<svg width="289" height="166" viewBox="0 0 289 166" fill="none" xmlns="http://www.w3.org/2000/svg">
<path d="M264.072 95.7603C263.715 95.293 263.401 94.7982 263.088 94.2978C257.046 84.7981 230.647 89.3006 230.647 89.3006C227.661 112.204 222.466 109.504 221.504 108.064C220.542 106.624 218.805 92.4783 217.656 90.5541C214.335 90.2627 207.551 90.3121 207.551 90.3121C201.004 90.4662 194.846 96.2277 188.788 105.612C182.729 114.991 172.048 122.929 172.048 122.929C172.048 122.929 175.22 123.221 176.374 130.148C177.083 130.368 179.211 129.428 180.761 128.669C182.144 127.992 183.687 127.709 185.22 127.85C187.716 128.081 191.306 128.878 194.175 131.594C194.528 131.923 194.903 132.228 195.297 132.506C195.66 132.303 195.863 132.165 195.863 132.165C201.779 129.713 205.242 121.198 205.242 121.198C204.762 120.127 204.483 118.977 204.418 117.806C204.324 116.639 204.341 115.467 204.467 114.304C204.593 113.166 204.681 112.039 204.714 110.906C204.772 109.764 204.722 108.619 204.566 107.487C205.037 108.563 205.306 109.716 205.358 110.89C205.438 112.055 205.414 113.225 205.286 114.386C205.16 115.519 205.088 116.646 205.061 117.784C205.02 118.925 205.081 120.067 205.242 121.198C205.574 124.236 206.293 127.22 207.381 130.076C208.944 130.594 210.555 130.95 212.191 131.137C212.996 131.229 213.807 131.255 214.616 131.214C215.444 131.168 216.27 131.08 217.09 130.95C216.35 131.394 215.536 131.699 214.687 131.852C214.262 131.934 213.833 131.986 213.401 132.006C212.968 132.012 212.535 131.995 212.103 131.956C211.245 131.863 210.402 131.66 209.596 131.352C208.792 131.052 208.043 130.621 207.381 130.076C207.844 131.348 208.458 132.559 209.211 133.683C213.289 133.918 217.286 134.919 220.993 136.635C221.933 137.069 222.796 137.652 223.665 138.081C224.549 138.522 225.476 138.874 226.43 139.131C228.352 139.654 230.332 139.935 232.323 139.966C233.335 139.999 234.297 139.945 235.342 139.912C236.368 139.9 237.394 139.95 238.415 140.06C240.438 140.269 242.456 140.5 244.457 140.852C245.221 140.984 245.979 141.127 246.738 141.275C246.386 140.797 246.084 140.285 245.837 139.747C245.45 138.935 245.161 138.08 244.973 137.201C244.781 136.322 244.665 135.428 244.627 134.529C244.577 133.623 244.612 132.714 244.732 131.814L244.737 131.786L244.748 131.748C245.049 130.772 245.236 129.765 245.303 128.746C245.388 127.713 245.399 126.675 245.336 125.64C245.265 124.604 245.138 123.573 244.957 122.55C244.759 121.544 244.495 120.494 244.352 119.433C244.064 117.318 243.998 115.179 244.154 113.05C244.209 111.989 244.319 110.928 244.479 109.884C244.625 108.835 244.825 107.795 245.078 106.766C244.817 108.857 244.674 110.96 244.649 113.067C244.618 115.158 244.771 117.248 245.105 119.312C245.177 119.829 245.303 120.335 245.408 120.84L245.749 122.402C245.951 123.457 246.085 124.524 246.15 125.596C246.312 127.745 246.064 129.906 245.419 131.962C245.282 132.807 245.212 133.662 245.21 134.518C245.203 135.389 245.271 136.259 245.413 137.119C245.551 137.981 245.772 138.828 246.073 139.648C246.285 140.224 246.552 140.778 246.87 141.302C248.063 141.544 249.245 141.819 250.416 142.144C252.385 142.658 254.277 143.429 256.046 144.436C254.218 143.577 252.295 142.938 250.317 142.534C249.3 142.297 248.276 142.092 247.244 141.918C247.241 141.915 247.237 141.913 247.233 141.913C246.282 141.748 245.325 141.605 244.363 141.478C242.362 141.22 240.355 140.995 238.349 140.835C237.355 140.742 236.356 140.704 235.358 140.72C234.385 140.753 233.318 140.824 232.307 140.791C230.246 140.749 228.199 140.442 226.216 139.879C225.22 139.587 224.256 139.201 223.335 138.724C222.873 138.499 222.422 138.196 221.999 137.949C221.576 137.691 221.152 137.421 220.707 137.201C218.929 136.268 217.057 135.527 215.121 134.991C213.186 134.411 211.211 133.974 209.211 133.683L204.665 134.117C204.805 134.311 204.908 134.529 204.967 134.76C206.138 138.548 204.451 153.386 204.451 153.386C210.943 158.147 246.881 165.508 246.881 165.508C270.048 169.406 270.262 148.834 270.262 148.834C274.407 111.918 266.26 98.597 264.072 95.7603ZM235.083 133.391C234.659 133.473 234.229 133.525 233.797 133.545C233.364 133.551 232.931 133.534 232.499 133.496C231.641 133.403 230.799 133.199 229.992 132.891C229.188 132.592 228.439 132.161 227.777 131.616C229.34 132.134 230.952 132.489 232.587 132.677C233.392 132.768 234.203 132.794 235.012 132.754C235.84 132.708 236.666 132.619 237.486 132.49C236.746 132.933 235.932 133.238 235.083 133.391Z" fill="black"/>
<path d="M217.607 90.5803C217.449 90.3417 217.273 90.1152 217.081 89.9031C216.889 89.6944 216.678 89.5038 216.452 89.3337C216.227 89.1674 215.984 89.0267 215.727 88.9143C215.481 88.8036 215.218 88.7326 214.949 88.7038L215.035 88.687C214.483 88.9526 213.9 89.1474 213.3 89.2668C212.69 89.3983 212.061 89.4189 211.444 89.3276C210.803 89.2328 210.199 88.9688 209.694 88.563C209.229 88.1472 208.822 87.6719 208.482 87.1494C207.819 86.1436 207.228 85.0913 206.716 84.0005C206.2 82.9173 205.736 81.8223 205.303 80.6971L205.748 80.9905C205.236 81.0425 204.719 80.964 204.245 80.7622C203.969 80.6327 203.736 80.4265 203.575 80.1681C203.426 79.9185 203.337 79.6376 203.315 79.3477C203.289 78.8507 203.36 78.3533 203.523 77.8832C203.667 77.4347 203.856 77.0021 204.087 76.5922C204.522 75.9564 204.726 75.191 204.665 74.4233C204.63 74.0496 204.528 73.6853 204.362 73.3486L204.062 72.7876C203.958 72.5887 203.858 72.3864 203.764 72.1796C203.57 71.7656 203.415 71.3343 203.301 70.8912C203.177 70.4598 203.077 70.022 203 69.5797C202.905 69.1408 202.875 68.6911 202.82 68.2464C202.803 67.7976 202.775 67.3498 202.799 66.9015C202.837 65.0987 203.278 63.3272 204.091 61.7175C204.148 61.6069 204.264 61.5394 204.389 61.5442C204.513 61.549 204.624 61.6251 204.673 61.7398L204.678 61.752C205.349 63.3013 206.205 64.7636 207.228 66.1067C208.247 67.4629 209.47 68.6524 210.855 69.6322C212.236 70.6144 213.813 71.2859 215.478 71.6004C217.14 71.9068 218.848 71.8611 220.492 71.4661L220.504 71.4634C220.582 71.4455 220.665 71.4748 220.714 71.5387C221.378 72.4516 221.84 73.4949 222.07 74.5995C222.315 75.6786 222.44 76.7815 222.443 77.888C222.449 78.9894 222.37 80.0895 222.208 81.1788C222.015 82.213 221.942 83.2662 221.991 84.3171C222.041 85.3328 222.315 86.3248 222.795 87.2213C223.274 88.085 224.006 88.7813 224.893 89.2167C225.796 89.6382 226.794 89.8157 227.788 89.7315C228.806 89.6493 229.802 89.3928 230.733 88.9733C230.916 88.894 231.127 88.9185 231.287 89.0374C231.446 89.1563 231.53 89.3515 231.506 89.5491L231.505 89.5562C231.102 93.0602 230.474 96.5346 229.626 99.9584C229.187 101.687 228.61 103.377 227.9 105.012C227.535 105.848 227.087 106.644 226.563 107.39C226.289 107.774 225.978 108.131 225.634 108.455C225.278 108.805 224.859 109.084 224.399 109.279C223.906 109.49 223.362 109.55 222.835 109.451C222.314 109.344 221.834 109.088 221.455 108.715C221.252 108.523 221.091 108.292 220.98 108.035C220.891 107.814 220.816 107.588 220.754 107.357C220.631 106.918 220.538 106.485 220.445 106.052C220.082 104.321 219.833 102.587 219.556 100.856L218.742 95.6688C218.602 94.8055 218.456 93.9435 218.287 93.0871C218.15 92.2297 217.922 91.3894 217.607 90.5803L217.604 90.5725C217.592 90.5457 217.603 90.514 217.629 90.5007C217.655 90.4876 217.688 90.4977 217.702 90.5236C218.085 91.321 218.373 92.1606 218.56 93.0251C218.778 93.8763 218.973 94.7321 219.162 95.5887C219.543 97.3014 219.864 99.0242 220.208 100.741C220.547 102.457 220.897 104.174 221.283 105.865C221.383 106.285 221.486 106.707 221.609 107.107C221.665 107.299 221.733 107.487 221.81 107.67C221.878 107.815 221.975 107.944 222.096 108.049C222.606 108.544 223.371 108.671 224.014 108.366C224.706 107.997 225.288 107.449 225.7 106.781C226.162 106.078 226.559 105.336 226.885 104.561C227.551 102.975 228.089 101.337 228.493 99.6648C229.311 96.2836 229.948 92.8613 230.402 89.4124L231.174 89.9953C230.12 90.4515 228.996 90.7229 227.851 90.7977C226.675 90.878 225.498 90.6489 224.438 90.1333C223.373 89.5968 222.501 88.7416 221.944 87.6865C221.421 86.6564 221.133 85.5226 221.101 84.3673C221.072 83.2534 221.176 82.1401 221.411 81.0508C221.607 80.0051 221.723 78.946 221.757 77.8826C221.796 76.8232 221.714 75.7629 221.514 74.7219C221.333 73.6949 220.943 72.7161 220.368 71.8465L220.59 71.919C218.882 72.2729 217.121 72.2877 215.407 71.9627C214.554 71.7961 213.723 71.5322 212.929 71.1763C212.134 70.8303 211.374 70.4085 210.659 69.9168C209.236 68.9262 207.963 67.7364 206.878 66.384C205.768 65.0437 204.827 63.5728 204.074 62.0041L204.661 62.0386C203.972 63.5693 203.629 65.2336 203.658 66.9123C203.661 67.7498 203.749 68.5849 203.919 69.4049C203.999 69.8157 204.101 70.2217 204.226 70.6212C204.335 71.0164 204.478 71.4018 204.653 71.773C204.739 71.9605 204.832 72.1464 204.93 72.3314C205.027 72.5213 205.128 72.6835 205.245 72.9165C205.464 73.3588 205.602 73.8376 205.649 74.3292C205.724 75.3068 205.465 76.2808 204.913 77.0916C204.507 77.747 204.279 78.4969 204.251 79.2674C204.247 79.5508 204.405 79.8119 204.658 79.9393C204.987 80.0761 205.344 80.131 205.698 80.0993L205.704 80.099C205.899 80.0904 206.077 80.2095 206.143 80.393C206.536 81.491 206.98 82.5888 207.454 83.661C207.91 84.7365 208.443 85.7777 209.048 86.7767C209.337 87.2613 209.688 87.7062 210.092 88.1002C210.505 88.4551 211.005 88.6941 211.54 88.7926C212.672 88.9725 213.832 88.8279 214.885 88.3758L214.908 88.3666C214.928 88.3586 214.95 88.3559 214.971 88.3588C215.279 88.406 215.576 88.5035 215.852 88.6474C216.12 88.7842 216.372 88.9505 216.603 89.1432C216.828 89.3378 217.033 89.5538 217.216 89.7882C217.396 90.0208 217.559 90.2666 217.702 90.5236C217.709 90.5363 217.711 90.5513 217.707 90.5654C217.703 90.5794 217.694 90.5914 217.681 90.5987C217.656 90.6123 217.624 90.6044 217.607 90.5803Z" fill="black"/>
<path d="M204.596 80.415C204.483 81.2895 204.366 82.1568 204.275 83.0255C204.189 83.8944 204.105 84.7614 204.079 85.6281C204.036 86.4898 204.072 87.3536 204.186 88.2089C204.242 88.6324 204.356 89.0464 204.524 89.4392C204.682 89.8425 204.944 90.1962 205.285 90.4637C204.882 90.2565 204.549 89.9344 204.329 89.5383C204.112 89.1417 203.95 88.7166 203.85 88.2753C203.662 87.4009 203.589 86.5056 203.634 85.6122C203.67 84.7273 203.772 83.8462 203.938 82.9762C204.093 82.1072 204.313 81.2511 204.596 80.415Z" fill="black"/>
<path d="M204.331 61.9094C204.102 61.5104 204.047 61.0348 204.18 60.5942L204.271 60.267L204.413 59.9637C204.462 59.8634 204.507 59.759 204.561 59.6613L204.748 59.3862C204.995 59.019 205.277 58.6754 205.587 58.3596C205.902 58.054 206.237 57.7723 206.566 57.4796C207.952 56.4311 209.437 55.5197 211 54.758C211.779 54.388 212.567 54.034 213.355 53.6821C214.152 53.355 214.954 53.0392 215.757 52.7288C216.563 52.4339 217.381 52.1793 218.194 51.9092C218.605 51.7855 219.002 51.645 219.442 51.5234C219.868 51.4088 220.3 51.3169 220.736 51.2479C222.468 50.963 224.24 51.0352 225.943 51.46C227.639 51.8874 229.206 52.7179 230.513 53.8812C231.801 55.0622 232.863 56.469 233.646 58.0321C234.432 59.5888 235.032 61.2323 235.436 62.9288L235.443 62.9745C235.868 65.3028 236.615 67.5606 237.663 69.6827C238.18 70.7415 238.779 71.7585 239.454 72.7242C240.118 73.6919 240.868 74.5981 241.695 75.4317L243.002 76.6426C243.472 77.0541 243.914 77.4968 244.325 77.9678C245.166 78.8968 245.86 79.949 246.382 81.0878C247.465 83.3381 247.735 85.8936 247.148 88.3209C247.141 88.349 247.113 88.3666 247.085 88.3609C247.056 88.3552 247.037 88.3282 247.041 88.2994L247.042 88.2932C247.197 87.1081 247.149 85.9054 246.901 84.7363C246.676 83.5782 246.269 82.4633 245.694 81.4333C245.411 80.9213 245.097 80.4275 244.752 79.955C244.399 79.489 244.016 79.0465 243.606 78.6303C243.204 78.2043 242.775 77.8061 242.319 77.4385L240.923 76.2292C239.129 74.4964 237.672 72.4452 236.627 70.1802C236.107 69.0588 235.667 67.9019 235.31 66.7182C234.94 65.5338 234.671 64.3202 234.505 63.0904L234.513 63.1358C234.185 61.4852 233.694 59.871 233.048 58.3168C232.402 56.7601 231.453 55.3471 230.257 54.1595C229.642 53.5853 228.957 53.0904 228.219 52.6866C227.475 52.2918 226.68 52.0026 225.856 51.8272C224.207 51.4985 222.505 51.539 220.874 51.9459C220.469 52.0393 220.07 52.1539 219.678 52.2894C219.301 52.4222 218.901 52.5951 218.502 52.7466L216.101 53.645C215.313 53.9626 214.523 54.2748 213.728 54.5757L211.391 55.5803C209.851 56.2708 208.367 57.0784 206.952 57.996C206.621 58.2478 206.279 58.4918 205.958 58.757C205.643 59.0253 205.35 59.3179 205.08 59.632L204.879 59.8683C204.821 59.9518 204.772 60.0405 204.717 60.1268L204.557 60.3894L204.446 60.6714C204.287 61.0451 204.278 61.4656 204.421 61.8459L204.426 61.8575C204.438 61.8834 204.428 61.914 204.403 61.9277C204.378 61.9413 204.346 61.9334 204.331 61.9094Z" fill="black"/>
<path d="M205.691 72.5319C206.451 71.9852 207.281 71.5419 208.159 71.2136C208.597 71.045 209.047 70.9098 209.506 70.8091C209.968 70.6921 210.448 70.67 210.919 70.744C210.47 70.8411 210.029 70.9746 209.601 71.143L208.317 71.629C207.457 71.9518 206.6 72.2845 205.691 72.5319Z" fill="black"/>
<path d="M208.096 75.6048C208.456 75.5924 208.741 75.2972 208.741 74.9374C208.741 74.5776 208.456 74.2824 208.096 74.27C207.737 74.2824 207.452 74.5776 207.452 74.9374C207.452 75.2972 207.737 75.5924 208.096 75.6048Z" fill="black"/>
<path d="M207.02 83.6901C207.355 83.7005 207.69 83.6912 208.023 83.6623C208.348 83.6326 208.669 83.5933 208.987 83.5326C209.305 83.4707 209.622 83.3997 209.94 83.3126C210.259 83.2267 210.579 83.132 210.919 83.0469C210.666 83.287 210.377 83.4863 210.063 83.6376C209.747 83.7913 209.413 83.903 209.068 83.9699C208.374 84.1196 207.649 84.0206 207.02 83.6901Z" fill="black"/>
<path d="M204.544 151.415C202.891 150.806 201.191 150.332 199.462 149.998C197.759 149.651 196.01 149.595 194.289 149.833L193.656 149.94L193.037 150.108C192.626 150.222 192.223 150.361 191.829 150.524C191.041 150.863 190.286 151.273 189.572 151.75C188.845 152.226 188.156 152.772 187.344 153.243C186.531 153.699 185.656 154.035 184.747 154.24C183.844 154.455 182.917 154.548 181.989 154.519C181.017 154.52 180.06 154.287 179.197 153.841C178.959 153.696 178.746 153.512 178.568 153.297C178.409 153.101 178.311 152.958 178.171 152.798C177.909 152.497 177.606 152.234 177.271 152.017C176.534 151.589 175.755 151.235 174.947 150.963C174.075 150.686 173.239 150.307 172.456 149.833C172.06 149.565 171.711 149.232 171.426 148.848C171.285 148.667 171.159 148.494 171.024 148.334C170.958 148.251 170.888 148.181 170.817 148.1C170.74 148.008 170.65 147.916 170.585 147.824C170.059 147.096 169.577 146.337 169.141 145.553C168.699 144.781 168.26 144.013 167.838 143.231L167.967 143.325L166.835 143.078C166.444 143.012 166.06 142.907 165.689 142.765C164.946 142.454 164.293 141.96 163.792 141.329C163.518 141.014 163.329 140.632 163.245 140.223C163.18 139.786 163.304 139.343 163.586 139.003C164.126 138.367 164.898 137.972 165.73 137.908C166.128 137.885 166.528 137.902 166.923 137.957L168.075 138.04C168.844 138.089 169.613 138.125 170.382 138.148C171.92 138.195 173.459 138.185 174.988 138.089C176.506 138.01 178.014 137.799 179.496 137.457C180.212 137.287 180.905 137.033 181.562 136.701C181.87 136.54 182.156 136.341 182.415 136.109C182.674 135.872 182.91 135.609 183.118 135.325C183.292 135.128 183.401 134.882 183.429 134.62C183.42 134.564 183.411 134.542 183.339 134.479C183.23 134.41 183.113 134.358 182.989 134.324C182.301 134.185 181.594 134.175 180.903 134.296C180.55 134.345 180.201 134.421 179.859 134.525C179.72 134.566 179.586 134.623 179.459 134.694L179.341 134.771C179.289 134.807 179.237 134.835 179.184 134.865C179.082 134.922 178.977 134.973 178.868 135.018C178.465 135.179 178.043 135.288 177.613 135.344C177.406 135.373 177.2 135.394 176.996 135.408C176.758 135.429 176.519 135.421 176.284 135.382C175.786 135.298 175.326 135.065 174.963 134.714C174.617 134.368 174.367 133.938 174.235 133.467C174.005 132.563 174.126 131.605 174.575 130.787C174.798 130.332 175.15 129.952 175.587 129.695C175.733 129.617 175.891 129.566 176.054 129.543C176.15 129.531 176.246 129.53 176.342 129.541C176.392 129.546 176.441 129.555 176.49 129.568L176.552 129.584L176.559 129.583C176.671 129.594 176.785 129.587 176.894 129.562C177.602 129.399 178.291 129.167 178.953 128.869C179.301 128.722 179.647 128.567 179.992 128.406L180.509 128.161C180.694 128.072 180.883 127.989 181.074 127.911C181.84 127.604 182.646 127.405 183.467 127.322C184.279 127.249 185.097 127.277 185.901 127.406C186.688 127.514 187.467 127.672 188.234 127.879C189.778 128.286 191.246 128.939 192.582 129.815C193.244 130.259 193.864 130.763 194.434 131.32C194.984 131.827 195.572 132.29 196.194 132.706C198.844 134.251 201.904 134.949 204.962 134.705L204.967 134.705C204.996 134.703 205.022 134.725 205.025 134.754C205.028 134.784 205.007 134.81 204.978 134.814C201.851 135.294 198.653 134.748 195.862 133.259C195.179 132.846 194.53 132.38 193.921 131.865C192.233 130.366 190.194 129.318 187.993 128.817C187.262 128.641 186.521 128.512 185.774 128.43C185.049 128.332 184.314 128.325 183.587 128.411C182.869 128.495 182.167 128.678 181.5 128.954C181.334 129.024 181.171 129.099 181.009 129.179L180.481 129.437C180.128 129.607 179.771 129.771 179.41 129.931C178.668 130.28 177.889 130.546 177.088 130.723C176.82 130.78 176.542 130.78 176.273 130.724L176.209 130.709C176.188 130.704 176.205 130.709 176.201 130.708L176.207 130.709C176.21 130.709 176.211 130.708 176.207 130.709C176.179 130.715 176.151 130.725 176.126 130.739C175.902 130.89 175.724 131.099 175.608 131.342C175.303 131.893 175.215 132.538 175.36 133.151C175.436 133.428 175.577 133.682 175.773 133.892C175.967 134.085 176.215 134.214 176.484 134.264C176.63 134.29 176.779 134.297 176.927 134.283C177.107 134.273 177.286 134.258 177.462 134.236C177.8 134.198 178.131 134.119 178.449 134C178.52 133.973 178.589 133.941 178.656 133.904C178.688 133.888 178.718 133.87 178.748 133.851L178.874 133.772C179.083 133.651 179.306 133.557 179.538 133.491C179.938 133.375 180.346 133.291 180.759 133.24C181.597 133.109 182.452 133.141 183.277 133.336C183.526 133.408 183.759 133.523 183.968 133.676C184.231 133.879 184.4 134.181 184.435 134.511C184.458 134.793 184.402 135.076 184.276 135.329C184.181 135.537 184.061 135.734 183.92 135.914C183.665 136.25 183.376 136.557 183.057 136.832C182.733 137.109 182.376 137.344 181.993 137.531C181.261 137.88 180.491 138.14 179.698 138.307C178.158 138.625 176.59 138.79 175.018 138.8C173.459 138.833 171.905 138.78 170.357 138.681C169.583 138.631 168.81 138.567 168.039 138.49L166.883 138.366C166.513 138.309 166.139 138.287 165.765 138.303C165.036 138.349 164.356 138.682 163.873 139.23C163.648 139.489 163.546 139.831 163.592 140.171C163.663 140.521 163.822 140.848 164.054 141.12C164.516 141.708 165.124 142.164 165.818 142.443C166.17 142.573 166.535 142.669 166.907 142.728L168.044 142.95C168.097 142.96 168.142 142.992 168.17 143.038L168.173 143.045C169.025 144.579 169.981 146.054 171.035 147.457C171.101 147.542 171.172 147.605 171.239 147.68C171.318 147.762 171.407 147.846 171.483 147.932C171.641 148.104 171.784 148.283 171.922 148.446C172.179 148.763 172.488 149.035 172.836 149.249C173.589 149.657 174.387 149.976 175.215 150.199C176.097 150.453 176.949 150.803 177.756 151.242C178.171 151.497 178.548 151.809 178.876 152.169C179.032 152.338 179.194 152.555 179.318 152.697C179.429 152.818 179.557 152.922 179.698 153.006C180.421 153.359 181.217 153.54 182.022 153.532C182.866 153.559 183.709 153.48 184.533 153.297C185.355 153.122 186.147 152.828 186.884 152.425C187.607 152.014 188.332 151.487 189.093 151.007C189.864 150.518 190.678 150.101 191.525 149.761C191.956 149.603 192.396 149.471 192.842 149.366L193.511 149.214L194.191 149.127C195.99 148.944 197.808 149.079 199.561 149.528C201.288 149.965 202.97 150.563 204.586 151.313C204.613 151.325 204.625 151.356 204.615 151.383C204.605 151.41 204.575 151.425 204.547 151.416L204.544 151.415Z" fill="black"/>
<path d="M168.004 143.137C169.075 143.045 170.145 143.002 171.216 142.967C172.286 142.926 173.357 142.92 174.428 142.915L176.033 142.926C176.585 142.926 177.134 143.002 177.665 143.152C178.682 143.513 179.674 143.942 180.633 144.436C180.116 144.288 179.61 144.113 179.098 143.953C178.604 143.763 178.098 143.606 177.584 143.484C177.074 143.379 176.554 143.333 176.033 143.348L174.428 143.359C173.357 143.354 172.286 143.348 171.216 143.308C170.145 143.272 169.075 143.229 168.004 143.137Z" fill="black"/>
<path d="M168.548 144.094C169.268 144.649 169.956 145.241 170.639 145.839C170.992 146.126 171.306 146.465 171.65 146.704C171.997 146.954 172.386 147.14 172.799 147.252C173.197 147.372 173.657 147.39 174.11 147.474C174.562 147.549 175.01 147.647 175.451 147.767C176.355 147.957 177.195 148.375 177.891 148.983C177.517 148.734 177.106 148.545 176.674 148.423C176.248 148.286 175.814 148.179 175.374 148.101C174.933 148.024 174.492 147.945 174.047 147.891C173.587 147.847 173.131 147.777 172.679 147.681C172.217 147.549 171.784 147.332 171.401 147.043C171.049 146.744 170.715 146.424 170.402 146.084C169.771 145.437 169.144 144.784 168.548 144.094Z" fill="black"/>
<path d="M158.431 129.861C158.076 129.142 157.643 128.465 157.139 127.842L157.224 127.897C156.38 127.765 155.594 127.388 154.963 126.813C154.634 126.48 154.431 126.043 154.39 125.577C154.37 125.345 154.38 125.112 154.421 124.884C154.477 124.666 154.545 124.451 154.625 124.241C155.01 123.421 155.688 122.775 156.525 122.43C156.944 122.231 157.4 122.121 157.864 122.109C158.363 122.106 158.851 122.259 159.259 122.548L158.536 122.779C158.647 122.479 158.798 122.196 158.985 121.938C159.164 121.685 159.372 121.455 159.606 121.253C160.079 120.849 160.641 120.562 161.246 120.415C161.83 120.275 162.434 120.243 163.03 120.322L163.455 120.377C163.62 120.401 163.783 120.442 163.941 120.497C164.235 120.597 164.516 120.73 164.78 120.893C165.776 121.537 166.573 122.446 167.081 123.518C167.579 124.534 167.941 125.61 168.159 126.719L167.122 126.783C167.212 126.077 167.424 125.392 167.75 124.759C168.074 124.107 168.558 123.548 169.156 123.132C169.767 122.732 170.478 122.512 171.208 122.496C171.382 122.489 171.557 122.494 171.73 122.511L171.99 122.528C172.092 122.532 172.193 122.549 172.29 122.577C172.641 122.681 172.973 122.843 173.271 123.055C174.342 123.897 175.133 125.042 175.542 126.341C175.973 127.57 176.253 128.848 176.375 130.146C176.089 128.895 175.68 127.675 175.153 126.505C174.673 125.364 173.882 124.381 172.871 123.667C172.633 123.521 172.373 123.41 172.102 123.34C172.044 123.326 171.984 123.32 171.925 123.323L171.701 123.321C170.984 123.285 170.276 123.488 169.687 123.897C168.796 124.639 168.247 125.713 168.168 126.87L168.168 126.874C168.141 127.13 167.932 127.328 167.675 127.343C167.418 127.358 167.188 127.185 167.131 126.933C166.921 125.922 166.581 124.943 166.119 124.019C165.687 123.131 165.031 122.372 164.215 121.816C164.021 121.692 163.813 121.591 163.596 121.514C163.5 121.477 163.4 121.451 163.298 121.435L162.92 121.382C162.443 121.313 161.957 121.329 161.484 121.428C161.032 121.523 160.608 121.722 160.247 122.011C159.894 122.298 159.614 122.664 159.429 123.079L159.407 123.132C159.309 123.363 159.041 123.471 158.81 123.372C158.773 123.356 158.738 123.335 158.706 123.31C158.155 122.936 157.444 122.891 156.851 123.194C156.172 123.433 155.603 123.911 155.25 124.538C154.875 125.14 154.913 125.912 155.347 126.473C155.868 127.034 156.539 127.434 157.28 127.625L157.298 127.63C157.326 127.638 157.349 127.656 157.365 127.68C157.818 128.355 158.177 129.089 158.431 129.861Z" fill="black"/>
<path d="M154.722 129.487C154.427 128.88 153.904 128.415 153.267 128.193C152.648 128.016 151.986 128.065 151.401 128.333C150.827 128.51 150.395 128.987 150.277 129.576C150.25 130.181 150.415 130.779 150.748 131.285C151.083 131.844 151.481 132.362 151.936 132.829C152.046 132.95 152.162 133.061 152.277 133.174L152.649 133.5C152.915 133.729 153.172 133.964 153.427 134.2C154.447 135.144 155.4 136.135 156.35 137.14C156.422 137.216 156.469 137.311 156.485 137.413L156.491 137.448C156.553 137.768 156.658 138.078 156.801 138.371C157.102 138.999 157.53 139.558 158.058 140.012C158.326 140.255 158.594 140.417 158.953 140.693C159.61 141.208 160.164 141.843 160.587 142.563C161.013 143.271 161.328 144.039 161.522 144.842L161.497 144.763C161.748 145.457 162.218 146.05 162.837 146.452C163.498 146.837 164.248 147.043 165.013 147.049C165.815 147.067 166.617 146.984 167.399 146.802C168.198 146.628 168.983 146.39 169.744 146.09C169.029 146.51 168.273 146.857 167.488 147.125C166.691 147.404 165.86 147.574 165.017 147.63C164.131 147.694 163.245 147.517 162.451 147.119C162.049 146.896 161.689 146.607 161.384 146.263C161.09 145.917 160.845 145.532 160.655 145.119L160.645 145.093L160.63 145.04C160.427 144.351 160.126 143.695 159.738 143.092C159.354 142.495 158.87 141.969 158.307 141.536C158.055 141.342 157.663 141.099 157.357 140.827C157.034 140.556 156.74 140.251 156.481 139.919C156.216 139.586 155.991 139.223 155.809 138.838C155.616 138.436 155.483 138.008 155.414 137.568L155.554 137.876C154.634 136.874 153.684 135.887 152.731 134.923C152.491 134.684 152.249 134.448 152.004 134.221L151.614 133.855C151.488 133.723 151.361 133.592 151.245 133.455C150.77 132.911 150.361 132.312 150.028 131.671C149.64 130.998 149.493 130.213 149.612 129.445C149.655 129.244 149.731 129.05 149.837 128.873C149.95 128.706 150.079 128.549 150.222 128.406L150.699 128.077L151.212 127.867C151.913 127.618 152.682 127.641 153.367 127.929C154.016 128.237 154.507 128.802 154.722 129.487Z" fill="black"/>
<path d="M155.952 137.508C155.785 136.9 155.796 136.256 155.986 135.654C156.077 135.34 156.238 135.05 156.458 134.808C156.676 134.556 156.991 134.41 157.324 134.405C157.079 134.558 156.877 134.769 156.734 135.019C156.594 135.261 156.486 135.519 156.41 135.788C156.234 136.332 156.127 136.908 155.952 137.508Z" fill="black"/>
<path d="M157.251 127.762C157.629 127.669 157.938 127.605 158.266 127.54C158.608 127.463 158.957 127.418 159.308 127.405C159.07 127.707 158.729 127.91 158.35 127.977C157.97 128.066 157.57 127.988 157.251 127.762Z" fill="black"/>
<path d="M159.258 122.928C159.252 123.406 159.315 123.882 159.445 124.341C159.56 124.8 159.804 125.216 160.149 125.539C160.518 125.85 160.999 125.995 161.478 125.94C161.725 125.92 161.969 125.88 162.209 125.82L162.916 125.564L162.231 125.885C161.99 125.969 161.743 126.034 161.492 126.077C160.965 126.181 160.419 126.065 159.981 125.756C159.555 125.427 159.234 124.982 159.055 124.475C158.864 123.981 158.747 123.461 158.708 122.932C158.697 122.781 158.81 122.648 158.962 122.637C159.113 122.625 159.246 122.738 159.258 122.89C159.258 122.898 159.259 122.907 159.258 122.915L159.258 122.928Z" fill="black"/>
<path d="M161.473 126.034C161.855 126.615 162.192 127.224 162.481 127.856C162.806 128.492 163.027 129.176 163.139 129.881C163.202 130.147 163.392 130.366 163.647 130.466C163.934 130.61 164.243 130.709 164.561 130.758C164.886 130.818 165.219 130.821 165.545 130.767C165.881 130.738 166.193 130.581 166.417 130.328C166.247 130.65 165.949 130.886 165.597 130.978C165.249 131.081 164.886 131.122 164.525 131.099C164.155 131.082 163.793 130.995 163.457 130.841C163.058 130.685 162.769 130.332 162.695 129.911C162.584 129.252 162.407 128.607 162.166 127.984L161.473 126.034Z" fill="black"/>
<path d="M168.186 126.738C168.307 127.597 168.58 128.427 168.991 129.19C169.094 129.373 169.211 129.547 169.341 129.712C169.506 129.91 169.652 130.123 169.777 130.348C169.903 130.576 170.004 130.817 170.078 131.067C170.153 131.33 170.189 131.549 170.241 131.766C170.268 131.96 170.321 132.15 170.399 132.329C170.506 132.491 170.642 132.632 170.799 132.747C171.113 132.992 171.511 133.101 171.906 133.051C172.318 132.965 172.688 132.742 172.956 132.417C173.257 132.084 173.513 131.712 173.718 131.312L173.707 131.347C173.844 130.7 173.936 130.044 173.98 129.384C174.04 128.721 173.996 128.054 173.85 127.405C174.044 128.047 174.137 128.716 174.126 129.388C174.129 130.061 174.084 130.734 173.992 131.401C173.991 131.411 173.988 131.421 173.984 131.43L173.981 131.436C173.792 131.88 173.546 132.296 173.25 132.676C172.944 133.095 172.505 133.397 172.005 133.533C171.473 133.645 170.918 133.538 170.465 133.237C170.234 133.094 170.032 132.909 169.867 132.693C169.777 132.573 169.711 132.436 169.674 132.291L169.571 131.948C169.478 131.527 169.316 131.123 169.092 130.754C168.978 130.58 168.848 130.418 168.703 130.269C168.53 130.08 168.372 129.879 168.23 129.666C167.691 128.825 167.308 127.894 167.101 126.917C167.033 126.62 167.218 126.325 167.514 126.257C167.81 126.189 168.106 126.374 168.174 126.67C168.177 126.683 168.179 126.696 168.181 126.709L168.186 126.738Z" fill="black"/>
<path d="M167.171 136.371C167.193 136.371 167.21 136.377 167.232 136.377L167.281 136.41L167.171 136.371Z" fill="black"/>
<path d="M178.326 135.629C168.881 134.194 159.98 130.533 157.77 129.582C157.387 129.414 156.978 129.315 156.561 129.29C154.549 129.186 153.856 129.84 153.669 130.516C153.497 131.187 153.785 131.891 154.378 132.248L164.202 138.427L164.208 138.422C164.703 137.827 165.276 137.302 165.912 136.861C165.68 137.349 165.394 137.81 165.06 138.235C165.975 137.984 166.94 137.988 167.853 138.246C179.227 139.323 182.086 136.948 182.086 136.948C180.866 135.811 178.326 135.629 178.326 135.629ZM170.03 134.689L172.339 136.371L167.045 135.58L162.278 132.386L170.03 134.689ZM172.999 137.542C171.031 137.361 169.068 137.135 167.105 136.915C167.067 136.909 167.03 136.896 166.995 136.877C165.181 135.783 163.372 134.678 161.58 133.546L158.892 131.836C158.012 131.248 157.116 130.681 156.242 130.077C157.182 130.571 158.106 131.094 159.035 131.599L161.8 133.177C163.625 134.216 165.428 135.294 167.232 136.377C169.167 136.613 171.113 136.855 173.048 137.13C175 137.405 176.957 137.691 178.903 138.032C176.93 137.911 174.961 137.729 172.999 137.542Z" fill="black"/>
<path d="M167.281 136.41L167.171 136.371C167.193 136.371 167.21 136.377 167.232 136.377L167.281 136.41Z" fill="white"/>
<path d="M100.309 57.5465C100.309 57.5465 98.8972 56.6995 97.5797 58.2053C97.5797 58.2053 95.2269 54.8622 85.2513 57.7572C85.2513 57.7572 86.5688 60.2757 87.5099 60.2757C88.451 60.2757 85.7218 64.6048 83.1809 64.4166C83.1809 64.4166 78.8518 70.7219 82.1457 76.8391C85.3921 82.8682 87.7243 84.7834 90.9445 80.8726C91.0433 80.7513 91.1535 80.6397 91.2736 80.5395C92.1997 79.7758 96.2994 76.6005 97.7525 78.9682C98.062 79.4942 98.1505 80.1214 97.9988 80.7125C97.3355 83.4902 94.2342 93.7212 85.2513 89.6381C85.2513 89.6381 74.7828 85.7124 77.252 76.4125C77.516 75.4666 77.8989 74.558 78.3915 73.7085C79.3514 71.9544 79.546 69.8824 78.9296 67.9803C78.5512 66.6386 77.6975 65.4804 76.5278 64.7219C75.3939 64.0146 73.8991 63.6984 72.7667 65.6762C72.298 66.499 72.051 67.4294 72.0497 68.3763C72.0476 69.243 72.2087 70.306 72.9229 70.8161L72.0497 72.51C71.5748 71.5438 70.9676 70.6485 70.2454 69.85C69.0362 68.6252 68.2594 67.0395 68.0329 65.3334C67.7132 62.6268 68.0981 58.5857 71.323 53.8763C71.323 53.8763 75.652 45.2181 83.7455 45.4063C91.8389 45.5946 98.8031 47.7591 100.309 57.5465Z" fill="black"/>
<path d="M86.7571 68.8395C88.1629 68.518 89.6074 68.3991 91.0469 68.4861C91.7719 68.5222 92.4915 68.6313 93.1946 68.8119C93.9122 68.9658 94.579 69.2991 95.1329 69.7807C94.4935 69.4837 93.8106 69.2914 93.1103 69.211C92.4184 69.1116 91.7203 69.0392 91.0161 69.0077C89.6089 68.9204 88.1942 68.9137 86.7571 68.8395Z" fill="black"/>
<path d="M100.309 68.7051C99.7941 68.8616 99.3177 69.124 98.9104 69.4756C98.52 69.7978 98.2852 70.271 98.2647 70.7767C98.3026 71.2898 98.4371 71.7911 98.6611 72.2542L99.2766 73.7671C99.7356 74.7908 100.002 75.8903 100.064 77.0105C100.063 77.3057 100.008 77.5982 99.9036 77.8741C99.791 78.1534 99.6069 78.3982 99.3697 78.5837C98.888 78.8871 98.3193 79.0222 97.7526 78.968C98.2839 78.9227 98.7897 78.7203 99.2057 78.3867C99.5513 78.0181 99.716 77.5154 99.6556 77.0138C99.615 76.4898 99.5086 75.9729 99.339 75.4755C99.1808 74.966 98.9917 74.4612 98.7902 73.9581C98.5968 73.4515 98.3876 72.9476 98.1993 72.4287C98.1093 72.1667 98.0179 71.9055 97.9471 71.6293C97.8591 71.3438 97.8293 71.0434 97.8595 70.7462C97.9232 70.1476 98.2505 69.6086 98.7522 69.2759C99.2182 68.9643 99.752 68.7686 100.309 68.7051Z" fill="black"/>
<path d="M100.309 57.5464C100.485 58.6012 100.616 59.6618 100.702 60.728C100.8 61.7925 100.861 62.8602 100.884 63.931C100.901 65.0017 100.885 66.0744 100.801 67.1479C100.752 68.2421 100.507 69.3187 100.079 70.3268C100.073 70.3393 100.065 70.3509 100.056 70.3612C99.7253 70.7168 99.4153 71.0908 99.127 71.4812C98.9839 71.6768 98.8566 71.8834 98.7463 72.0992C98.6237 72.3093 98.5746 72.5542 98.6069 72.7954C98.5313 72.5528 98.545 72.2912 98.6454 72.0578C98.7319 71.8224 98.8372 71.5942 98.9602 71.3756C99.206 70.9398 99.4901 70.5267 99.8091 70.1413L99.7857 70.1755C99.968 69.694 100.089 69.1917 100.147 68.6801C100.229 68.164 100.262 67.6369 100.301 67.1117C100.363 66.0574 100.374 64.9968 100.38 63.9357C100.38 61.8117 100.333 59.6838 100.309 57.5464Z" fill="black"/>
<path d="M94.6623 75.9922C94.563 76.1965 94.4828 76.4095 94.4226 76.6285C94.3613 76.8308 94.3479 77.0446 94.3834 77.2531C94.4126 77.4595 94.5029 77.6526 94.6426 77.8075C94.7904 77.9785 94.9546 78.1346 95.1329 78.2735C95.0188 78.2397 94.9068 78.1996 94.7973 78.1533C94.6907 78.0946 94.5903 78.0254 94.4975 77.9467C94.3033 77.7785 94.1722 77.5492 94.1259 77.2965C94.0929 77.0463 94.1303 76.7917 94.2339 76.5616C94.3306 76.3411 94.4773 76.1462 94.6623 75.9922Z" fill="black"/>
<path d="M72.9229 70.8159C73.2486 71.2247 73.5085 71.6819 73.6931 72.171C73.7921 72.4206 73.8637 72.6802 73.9066 72.9453C73.9297 73.0843 73.9389 73.2252 73.9341 73.3659L73.9314 73.4742L73.9378 73.533C73.9353 73.5713 73.9437 73.6095 73.9619 73.6432C74.0427 73.8153 74.1852 73.9508 74.3613 74.0226C74.5703 74.1295 74.7905 74.2128 75.0178 74.2713C75.5012 74.4016 75.9985 74.4738 76.499 74.4862C76.0046 74.68 75.4689 74.744 74.9427 74.6724C74.6681 74.6444 74.3993 74.5755 74.1451 74.468C73.843 74.3508 73.6002 74.1179 73.4706 73.8209C73.4368 73.7381 73.4203 73.6493 73.422 73.5599L73.4202 73.4278L73.4242 73.3454C73.43 73.2315 73.4274 73.1174 73.4165 73.0039C73.3957 72.7628 73.358 72.5235 73.3038 72.2876C73.1971 71.804 73.0566 71.3179 72.9229 70.8159Z" fill="black"/>
<path d="M72.0497 72.5098C71.8397 73.271 71.5436 74.0057 71.1671 74.6998C70.7986 75.4041 70.3537 76.0658 69.8405 76.6728C69.327 77.2913 68.718 77.8238 68.0365 78.25C67.3532 78.6736 66.5711 78.9115 65.7677 78.9401C66.503 78.7192 67.1939 78.371 67.8089 77.9114C68.4108 77.4484 68.9587 76.9193 69.4425 76.3341C69.9395 75.7496 70.3989 75.1342 70.818 74.4916C71.2399 73.8462 71.6589 73.1916 72.0497 72.5098Z" fill="black"/>
<path d="M78.9459 94.5318C79.5406 94.271 80.1029 93.9419 80.6215 93.5512C81.1361 93.167 81.6242 92.7486 82.0826 92.2988C82.5553 91.8623 82.9791 91.3743 83.4192 90.8966L84.0601 90.1568C84.2687 89.9043 84.4768 89.65 84.7064 89.4062C84.5753 89.7115 84.4229 90.0063 84.271 90.3031C84.0989 90.5863 83.9297 90.8739 83.7404 91.1482C83.3588 91.6977 82.925 92.2092 82.4449 92.6753C81.9625 93.1452 81.4242 93.554 80.8421 93.8925C80.265 94.2429 79.6174 94.4612 78.9459 94.5318Z" fill="black"/>
<path d="M69.5308 76.5033C69.0626 75.8093 68.4833 75.1971 67.8163 74.6911C67.5339 74.4415 67.1413 74.3582 66.7819 74.4716C66.4698 74.6837 66.2458 75.0024 66.1518 75.3679C66.0233 75.7576 65.9306 76.1583 65.8751 76.5649C65.8471 76.7672 65.8223 76.9776 65.804 77.1721C65.8051 77.3573 65.8213 77.5749 65.8399 77.7773C65.9209 78.6072 66.0747 79.4284 66.2997 80.2314C66.7139 81.8651 67.3574 83.432 68.2109 84.8854C69.0757 86.3382 70.1102 87.683 71.2927 88.8914C71.8856 89.4911 72.5019 90.0685 73.1272 90.6312C73.7768 91.1671 74.3974 91.7426 75.0735 92.2347C75.3998 92.4981 75.7593 92.7119 76.1 92.953C76.4606 93.1604 76.8068 93.3958 77.1824 93.5719C77.9082 93.9663 78.6802 94.2688 79.4807 94.4726C81.0794 94.8967 82.7782 94.7184 84.2539 93.9716C85.7369 93.18 86.9826 92.008 87.8631 90.576C87.8698 90.5631 87.8856 90.5581 87.8984 90.5647C87.9103 90.572 87.915 90.5869 87.9097 90.5997C87.1439 92.1547 85.9402 93.452 84.4469 94.332C83.682 94.7658 82.8406 95.0479 81.9689 95.1629C81.0944 95.2662 80.2083 95.2099 79.3539 94.9966C78.5056 94.7951 77.6891 94.4778 76.9275 94.0535C76.5385 93.8603 76.1855 93.6103 75.8165 93.3869C75.4702 93.1317 75.1038 92.902 74.7753 92.6255C74.0866 92.1082 73.4836 91.504 72.8463 90.9364C72.5213 90.6599 72.2458 90.3298 71.9475 90.0257C71.66 89.7104 71.3488 89.4184 71.0818 89.085C69.9676 87.7971 68.9558 86.424 68.0556 84.9784C67.139 83.5331 66.4089 81.9775 65.8828 80.3489C65.626 79.5249 65.4583 78.6757 65.3826 77.8159C65.3682 77.5957 65.3552 77.3902 65.36 77.1513C65.385 76.9249 65.4156 76.7143 65.4504 76.4975C65.5196 76.0652 65.6286 75.6402 65.7759 75.2279C65.9099 74.7683 66.2229 74.3818 66.6445 74.1551C66.8792 74.0631 67.139 74.0578 67.3772 74.1402C67.5938 74.2144 67.7961 74.3252 67.9752 74.4677C68.6329 75.028 69.1763 75.71 69.5756 76.4762C69.5828 76.4887 69.5784 76.5046 69.5659 76.5118C69.5537 76.518 69.5388 76.5144 69.5308 76.5033Z" fill="black"/>
<path d="M71.1208 74.2871C70.2806 73.7697 69.3433 73.4298 68.3668 73.2883C67.4047 73.1125 66.4116 73.2904 65.5703 73.7892C65.1736 74.0648 64.8401 74.4216 64.5918 74.8359L63.738 76.0623C63.1729 76.8957 62.5401 77.6812 61.846 78.4109C61.8133 78.4432 61.7685 78.4601 61.7226 78.4576L61.7099 78.4568C58.1929 78.2485 54.6639 78.165 51.1442 78.1887C49.384 78.2034 47.6256 78.274 45.8773 78.4113C44.1425 78.5073 42.4249 78.8054 40.7592 79.2997L40.7297 79.3077L40.6895 79.3163C39.7675 79.5523 38.8894 79.9345 38.0885 80.4485C37.6719 80.7008 37.271 80.9783 36.8881 81.2793L36.3078 81.7258C36.1206 81.8827 35.9441 82.0537 35.7617 82.2168C34.3085 83.5448 33.0175 85.04 31.9155 86.6712C29.7036 89.961 27.8957 93.5051 26.5309 97.227C26.1935 98.1609 25.8241 99.0829 25.5129 100.026L24.622 102.871C24.3206 103.808 24.051 104.801 23.6999 105.75C23.3585 106.708 22.959 107.634 22.5766 108.554L21.3992 111.318L20.7861 112.696C20.5772 113.172 20.3443 113.638 20.0883 114.09C20.0364 114.175 19.9774 114.255 19.912 114.33C19.9493 114.331 19.9525 114.245 19.9546 114.28C19.9486 114.333 19.9509 114.388 19.9613 114.441C20.0005 114.635 20.0676 114.823 20.1605 114.998C20.3659 115.391 20.6402 115.743 20.9703 116.038C21.6444 116.644 22.4874 117.029 23.3865 117.143L23.0331 118.001C22.4786 117.568 21.9537 117.098 21.462 116.594C21.1925 116.323 20.9576 116.02 20.7624 115.691C20.7036 115.584 20.6569 115.47 20.6232 115.353C20.6055 115.276 20.5935 115.197 20.5873 115.118C20.5873 115.014 20.605 114.911 20.6396 114.814C20.679 114.709 20.7424 114.614 20.8247 114.538C20.8628 114.502 20.903 114.469 20.945 114.438C20.9814 114.417 21.0169 114.4 21.0538 114.383C21.1776 114.326 21.3096 114.289 21.445 114.274C21.8318 114.246 22.2206 114.274 22.5996 114.355C22.9538 114.42 23.2929 114.506 23.6306 114.594L24.6375 114.914L25.6114 115.305C28.1552 116.453 30.4114 117.977 32.76 119.317C35.0933 120.68 37.5066 121.901 39.9866 122.974C42.4748 124.033 45.018 124.959 47.6051 125.747L47.6082 125.748C47.7543 125.793 47.8493 125.934 47.8367 126.086C47.6127 128.614 47.5219 131.152 47.5648 133.69C47.5824 134.951 47.6902 136.21 47.8875 137.457C47.9812 138.065 48.156 138.658 48.407 139.219C48.5238 139.473 48.6986 139.694 48.9173 139.867C48.9732 139.891 49.0275 139.918 49.0817 139.946C49.1388 139.964 49.1998 139.963 49.2582 139.976C49.3897 139.992 49.5691 139.983 49.7223 139.987L65.0163 140.029C70.1143 140.054 75.212 140.026 80.3099 140.02L95.6035 139.968L95.4272 140.046C96.4686 138.949 97.6083 137.951 98.8321 137.062C100.053 136.16 101.38 135.411 102.782 134.83C104.2 134.234 105.723 133.928 107.26 133.931C108.041 133.945 108.816 134.058 109.568 134.266L111.687 134.976C112.395 135.206 113.105 135.43 113.817 135.637C114.501 135.868 115.209 136.021 115.928 136.093C116.725 136.183 117.497 136.433 118.195 136.829C118.563 137.025 118.895 137.282 119.178 137.587C119.497 137.929 119.664 138.386 119.64 138.854C119.66 139.248 119.647 139.643 119.6 140.035C119.552 140.49 119.359 140.918 119.051 141.256C118.72 141.584 118.283 141.783 117.818 141.819C117.409 141.863 116.997 141.85 116.591 141.781C116.205 141.72 115.823 141.633 115.449 141.52L114.379 141.197C114.038 141.099 113.69 141.023 113.338 140.97C113.047 140.91 112.747 140.913 112.457 140.978L112.563 140.251C113.977 141.241 115.639 141.821 117.363 141.925C118.234 141.972 119.108 141.922 119.968 141.776C120.857 141.655 121.738 141.505 122.633 141.356C123.084 141.285 123.532 141.206 124.027 141.175C124.299 141.152 124.572 141.168 124.839 141.222C125.162 141.291 125.453 141.463 125.67 141.712C125.856 141.934 125.999 142.188 126.09 142.463C126.353 143.199 126.392 143.997 126.203 144.756C125.934 145.775 125.247 146.633 124.312 147.119C123.445 147.564 122.502 147.841 121.532 147.935L121.956 147.616C121.729 148.133 121.448 148.624 121.118 149.081C120.789 149.542 120.406 149.963 119.978 150.333C119.528 150.71 119.016 151.007 118.464 151.209C117.897 151.4 117.297 151.476 116.7 151.433L117.152 151.247C116.233 152.317 115.332 153.368 114.298 154.38C114.165 154.506 114.026 154.633 113.87 154.758C113.71 154.88 113.543 154.991 113.369 155.092C113.042 155.276 112.703 155.436 112.353 155.572C111.672 155.837 110.967 156.039 110.249 156.175C108.826 156.44 107.373 156.507 105.932 156.374C105.573 156.349 105.218 156.29 104.861 156.25L103.802 156.064L102.809 155.902L101.799 155.797C99.0497 155.655 96.2931 155.744 93.5583 156.063C90.8045 156.342 88.0586 156.757 85.3262 157.241C83.9705 157.482 82.6278 157.801 81.26 158.102C79.898 158.405 78.5313 158.699 77.1609 158.976C74.4189 159.524 71.665 160.022 68.8948 160.419C63.3555 161.241 57.7664 161.684 52.1667 161.742C51.4668 161.745 50.7672 161.771 50.0674 161.755L47.968 161.707C46.568 161.697 45.1709 161.598 43.7736 161.515C42.3746 161.455 40.983 161.293 39.5899 161.157C38.8902 161.08 38.2049 161.037 37.4913 160.926C36.7847 160.817 36.0852 160.666 35.3964 160.474C32.6142 159.724 30.0904 158.226 28.0987 156.144C26.1043 154.049 24.8432 151.365 24.5047 148.493C23.8917 142.926 23.6455 137.352 23.5059 131.775C23.3842 126.199 23.369 120.623 23.4602 115.047C23.4605 115.017 23.4853 114.992 23.5157 114.993C23.546 114.993 23.5704 115.018 23.5701 115.048C23.5935 120.621 23.7218 126.192 23.9552 131.761C24.2018 137.323 24.506 142.895 25.1975 148.403C25.5525 151.111 26.7777 153.629 28.6887 155.58C30.5929 157.532 32.9937 158.927 35.6323 159.615C36.2879 159.792 36.9532 159.929 37.625 160.028C38.2898 160.126 38.9974 160.166 39.6834 160.235C41.0652 160.358 42.4446 160.507 43.8321 160.554C45.2177 160.624 46.6023 160.711 47.9904 160.709L50.0712 160.738C50.7647 160.748 51.4584 160.717 52.1519 160.708L54.2325 160.665L56.311 160.558C57.6975 160.503 59.08 160.382 60.4631 160.27C61.8479 160.18 63.2247 159.996 64.6056 159.862C65.9826 159.69 67.3603 159.52 68.7329 159.314C71.4805 158.916 74.2126 158.416 76.9354 157.867C78.2965 157.589 79.6539 157.294 81.012 156.99C82.3653 156.689 83.7351 156.361 85.1236 156.112C87.8785 155.619 90.6473 155.194 93.4393 154.906C96.2438 154.574 99.0722 154.491 101.891 154.658L102.96 154.774L104.029 154.955L105.028 155.135C105.363 155.174 105.697 155.231 106.032 155.256C107.37 155.386 108.719 155.331 110.041 155.092C110.693 154.972 111.333 154.792 111.952 154.556C112.253 154.441 112.546 154.305 112.827 154.149C112.955 154.075 113.079 153.995 113.197 153.907C113.313 153.814 113.433 153.708 113.554 153.594C114.517 152.662 115.442 151.6 116.341 150.56C116.448 150.437 116.604 150.368 116.767 150.374L116.794 150.374C117.242 150.407 117.692 150.352 118.118 150.212C118.55 150.054 118.952 149.824 119.306 149.53C119.669 149.217 119.994 148.862 120.274 148.473C120.558 148.084 120.801 147.666 120.999 147.227L121.001 147.224C121.076 147.052 121.236 146.932 121.423 146.908C122.255 146.833 123.066 146.603 123.814 146.23C124.51 145.885 125.024 145.258 125.228 144.508C125.327 144.134 125.348 143.743 125.289 143.361C125.252 143.007 125.128 142.668 124.928 142.373C124.85 142.275 124.738 142.208 124.614 142.186C124.437 142.153 124.257 142.143 124.078 142.157C123.671 142.178 123.227 142.248 122.785 142.314C121.897 142.452 120.995 142.595 120.092 142.709C119.168 142.854 118.231 142.896 117.297 142.836C115.394 142.703 113.566 142.037 112.022 140.915L112.014 140.909C111.89 140.818 111.828 140.665 111.852 140.514C111.876 140.362 111.982 140.236 112.128 140.187C112.561 140.058 113.02 140.039 113.463 140.134C113.85 140.197 114.232 140.284 114.607 140.395L115.679 140.731C116.019 140.838 116.365 140.921 116.716 140.98C117.392 141.096 118.128 141.083 118.49 140.706C118.871 140.334 118.895 139.598 118.877 138.864C118.88 138.78 118.877 138.697 118.867 138.613C118.866 138.553 118.853 138.493 118.828 138.437C118.779 138.305 118.705 138.184 118.61 138.08C118.385 137.836 118.122 137.631 117.83 137.473C117.228 137.125 116.563 136.899 115.874 136.808C115.106 136.725 114.35 136.555 113.62 136.302C112.899 136.084 112.187 135.851 111.477 135.612L109.354 134.876C108.667 134.683 107.959 134.575 107.245 134.555C105.789 134.538 104.344 134.814 102.996 135.364C100.272 136.517 97.8151 138.22 95.7796 140.366L95.7721 140.374C95.7275 140.419 95.6666 140.445 95.6032 140.445L80.3109 140.393C75.2135 140.387 70.116 140.359 65.0187 140.384L49.7268 140.426C49.5617 140.423 49.4211 140.436 49.236 140.421C49.1372 140.413 49.0393 140.397 48.9429 140.373L48.675 140.249C48.3835 140.036 48.149 139.755 47.9923 139.431C47.7123 138.832 47.5145 138.198 47.4042 137.547C47.1847 136.278 47.0566 134.994 47.0208 133.707C46.942 131.147 46.9984 128.585 47.1896 126.031L47.4211 126.37C44.7979 125.61 42.2174 124.709 39.6909 123.672C37.1674 122.62 34.7094 121.418 32.3304 120.07C29.9408 118.757 27.6663 117.232 25.2427 116.156L24.3238 115.792L23.3873 115.498C23.0678 115.416 22.7474 115.336 22.4327 115.281C22.1468 115.219 21.854 115.196 21.562 115.211C21.5229 115.221 21.4547 115.229 21.4642 115.235L21.4578 115.233C21.4675 115.231 21.4763 115.225 21.483 115.218C21.4876 115.203 21.5196 115.181 21.5252 115.148C21.5418 115.018 21.5246 115.14 21.5973 115.24C21.7543 115.492 21.9402 115.726 22.1512 115.936C22.6118 116.402 23.1027 116.838 23.6207 117.239L23.6252 117.243C23.795 117.376 23.8548 117.607 23.7713 117.806C23.6878 118.006 23.4816 118.125 23.2672 118.097C22.1689 117.963 21.138 117.495 20.3131 116.758C19.8958 116.386 19.5487 115.942 19.2884 115.447C19.1466 115.181 19.046 114.894 18.9899 114.598C18.9534 114.405 18.9584 114.207 19.0048 114.017C19.0429 113.875 19.1137 113.744 19.2116 113.635C19.2225 113.604 19.2152 113.632 19.2506 113.568C19.4665 113.196 19.6853 112.724 19.8919 112.283L20.5047 110.926L21.6909 108.181C22.0802 107.258 22.4769 106.35 22.8109 105.427C23.1584 104.502 23.4169 103.566 23.7318 102.602L24.6471 99.732C24.9669 98.7799 25.3458 97.847 25.6924 96.9038C27.1021 93.1229 28.9621 89.5255 31.2322 86.1895C31.8107 85.3582 32.431 84.5568 33.0908 83.7884C33.763 83.0255 34.4824 82.3057 35.245 81.6332C35.437 81.4658 35.6225 81.2914 35.8199 81.1303L36.433 80.6703C36.8399 80.3593 37.2652 80.0732 37.7065 79.8135C38.5964 79.2567 39.5734 78.8532 40.5968 78.6199L40.5272 78.6365C42.2544 78.1432 44.0338 77.8553 45.8284 77.7785C47.6004 77.662 49.3721 77.614 51.1417 77.6218C54.6816 77.6293 58.2122 77.8087 61.7376 78.0898L61.6017 78.1356C62.2916 77.437 62.9241 76.6837 63.4927 75.8833L64.3691 74.681C64.6449 74.2463 65.0092 73.8746 65.4382 73.5901C65.8719 73.3104 66.3658 73.1375 66.8794 73.0858C67.3825 73.026 67.8914 73.036 68.3918 73.1155C69.3861 73.2811 70.336 73.6489 71.1825 74.1962C71.2082 74.2122 71.2161 74.2461 71.2 74.2718C71.1839 74.2975 71.1501 74.3054 71.1243 74.2893L71.1208 74.2871Z" fill="black"/>
<path d="M45.3033 83.6148C45.9887 83.8091 46.6107 84.181 47.1064 84.6927C47.6172 85.1963 48.0257 85.794 48.3094 86.4528C48.5938 87.1079 48.7536 87.8102 48.7808 88.5238C48.7945 88.875 48.7765 89.2268 48.7271 89.5747C48.6672 89.92 48.5759 90.2592 48.4543 90.5878C48.3323 90.2477 48.2773 89.9196 48.1877 89.5988C48.0915 89.28 48.0339 88.9627 47.927 88.6594C47.7564 88.0569 47.5474 87.4661 47.3011 86.8905C47.054 86.3182 46.7652 85.7648 46.4368 85.2349C46.0929 84.6719 45.7144 84.1309 45.3033 83.6148Z" fill="black"/>
<path d="M47.7014 96.7905C47.9132 99.2309 48.0165 101.671 48.0817 104.11C48.1537 106.55 48.1614 108.989 48.1567 111.428C48.1314 113.867 48.0923 116.306 47.9892 118.744C47.893 121.183 47.7577 123.621 47.5131 126.059C47.3 123.618 47.196 121.178 47.1312 118.739C47.0594 116.299 47.0517 113.86 47.0578 111.421C47.0845 108.982 47.1235 106.543 47.2269 104.105C47.3235 101.666 47.4581 99.2281 47.7014 96.7905Z" fill="black"/>
<path d="M98.0312 80.668C100.045 81.9278 102.021 83.2399 103.961 84.6044C104.931 85.2857 105.894 85.9793 106.849 86.6852L108.27 87.7706C108.519 87.9574 108.754 88.1629 108.972 88.3852L109.31 88.7378L109.594 89.0982C110.331 90.0479 111.003 91.0461 111.605 92.086C112.213 93.1106 112.804 94.142 113.378 95.1802C114.514 97.2658 115.684 99.3281 116.887 101.367C117.489 102.388 118.103 103.401 118.728 104.408L119.663 105.918C119.94 106.411 120.269 106.874 120.645 107.297C121.043 107.688 121.518 108.075 121.93 108.561C122.419 109.07 122.713 109.735 122.762 110.439C122.725 111.161 122.41 111.841 121.884 112.337C121.659 112.564 121.422 112.779 121.175 112.982C120.954 113.161 120.739 113.348 120.529 113.541C120.105 113.93 119.716 114.338 119.32 114.777C118.917 115.222 118.5 115.654 118.077 116.081C117.222 116.935 116.314 117.734 115.359 118.474C114.385 119.228 113.325 119.863 112.201 120.367C111.611 120.616 110.992 120.788 110.358 120.877C109.692 120.975 109.013 120.916 108.374 120.704C108.272 120.674 108.185 120.606 108.13 120.515L108.127 120.509C107.714 119.826 107.262 119.144 106.805 118.477C106.349 117.807 105.871 117.153 105.371 116.514C104.869 115.881 104.333 115.276 103.765 114.702C103.218 114.111 102.548 113.648 101.802 113.345L101.798 113.343C101.771 113.334 101.756 113.305 101.764 113.277C101.771 113.249 101.799 113.232 101.827 113.237C102.642 113.448 103.395 113.848 104.025 114.406C104.672 114.928 105.277 115.499 105.837 116.114C106.962 117.332 107.995 118.631 108.929 120.001L108.682 119.806C109.729 120.02 110.817 119.861 111.76 119.358C112.789 118.868 113.757 118.257 114.642 117.539C115.56 116.826 116.437 116.064 117.27 115.255C117.691 114.852 118.108 114.443 118.511 114.02C118.92 113.59 119.361 113.151 119.821 112.751C120.053 112.55 120.29 112.354 120.535 112.167C120.757 111.982 120.968 111.824 121.154 111.635C121.514 111.325 121.749 110.895 121.815 110.424C121.787 109.936 121.592 109.472 121.264 109.11C120.927 108.676 120.502 108.284 120.089 107.813C119.98 107.689 119.878 107.56 119.784 107.426L119.545 107.022L119.117 106.235L118.278 104.666C117.725 103.617 117.16 102.576 116.584 101.542C115.427 99.4757 114.208 97.4439 112.887 95.4785C111.578 93.516 110.249 91.5291 108.831 89.716L108.563 89.3808L108.283 89.095C108.091 88.8898 107.883 88.7004 107.661 88.5287L106.279 87.4307L103.488 85.2395C101.624 83.7805 99.7832 82.2863 97.9666 80.757C97.9444 80.7385 97.9404 80.7059 97.9574 80.6824C97.9744 80.659 98.0066 80.6526 98.0312 80.668Z" fill="black"/>
<path d="M105.391 98.4214C104.428 102.038 103.52 105.664 102.761 109.303C102.37 111.107 102.098 112.935 101.944 114.775C101.892 115.659 101.887 116.636 101.809 117.582C101.734 118.548 101.572 119.504 101.327 120.441C100.749 122.292 99.8234 124.016 98.5994 125.521C98.0338 126.275 97.4344 127.004 96.8733 127.737C96.6035 128.101 96.3296 128.462 96.0872 128.852C95.8273 129.227 95.5924 129.622 95.3585 130.019C94.4378 131.628 93.6147 133.291 92.8935 134.998C92.1326 136.7 91.4764 138.447 90.8352 140.206C91.6517 136.53 92.919 132.968 94.6084 129.602C95.0446 128.751 95.5443 127.934 96.1031 127.158C96.6575 126.392 97.2254 125.661 97.7605 124.904C98.8863 123.489 99.7369 121.875 100.268 120.146C100.504 119.276 100.662 118.386 100.74 117.488C100.828 116.572 100.825 115.677 100.909 114.697C101.106 112.813 101.446 110.947 101.927 109.115C102.85 105.48 104.007 101.908 105.391 98.4214Z" fill="black"/>
<path d="M121.478 112.036C122.687 112.976 123.833 113.977 124.998 114.909C125.292 115.135 125.585 115.358 125.873 115.554L126.352 115.84C126.529 115.951 126.696 116.068 126.856 116.191C127.474 116.688 128.041 117.244 128.552 117.85C129.566 119.051 130.364 120.419 130.909 121.893C131.48 123.353 131.641 124.941 131.376 126.486C131.215 125.002 130.791 123.559 130.124 122.224C129.474 120.908 128.664 119.676 127.713 118.558C127.255 117.997 126.748 117.477 126.198 117.005C126.065 116.887 125.927 116.778 125.79 116.677L125.313 116.347C125 116.104 124.703 115.841 124.424 115.559C123.336 114.478 122.349 113.299 121.478 112.036Z" fill="black"/>
<path d="M109.34 120.419C110.421 121.869 111.16 123.545 111.501 125.322C111.539 125.548 111.571 125.777 111.602 126.006C111.623 126.228 111.626 126.49 111.653 126.681C111.696 127.069 111.789 127.451 111.929 127.816C112.236 128.595 112.629 129.338 113.101 130.029C113.568 130.745 114.083 131.43 114.64 132.078C114.91 132.412 115.208 132.723 115.494 133.044C115.805 133.339 116.088 133.668 116.408 133.954C117.627 135.193 119.088 136.168 120.699 136.818C119.802 136.727 118.929 136.473 118.123 136.068C117.317 135.657 116.555 135.167 115.848 134.604C114.424 133.482 113.186 132.141 112.181 130.631C111.671 129.858 111.257 129.026 110.947 128.154C110.798 127.686 110.713 127.201 110.693 126.71C110.679 126.462 110.685 126.283 110.685 126.066L110.654 125.436C110.456 123.709 110.014 122.02 109.34 120.419Z" fill="black"/>
<path d="M121.478 134.528C121.587 133.82 121.833 133.14 122.201 132.524C122.561 131.902 123 131.329 123.505 130.817C124.016 130.314 124.583 129.872 125.195 129.499C125.499 129.314 125.813 129.146 126.136 128.996C126.465 128.86 126.795 128.729 127.13 128.619C126.547 129.023 125.972 129.412 125.426 129.835C124.882 130.253 124.364 130.704 123.875 131.186C123.393 131.672 122.947 132.193 122.543 132.744C122.13 133.302 121.773 133.9 121.478 134.528Z" fill="black"/>
<path d="M123.462 135.783C124.683 133.83 126.021 131.953 127.469 130.161C128.193 129.263 128.945 128.386 129.725 127.53C130.519 126.678 131.36 125.871 132.244 125.113C133.145 124.322 134.159 123.67 135.253 123.178C135.844 122.929 136.481 122.807 137.122 122.82C137.779 122.837 138.421 123.02 138.988 123.354C140.044 124.034 140.852 125.036 141.291 126.212C141.521 126.772 141.686 127.356 141.785 127.952C141.908 128.569 141.895 129.206 141.749 129.818L141.573 129.433C142.809 130.064 144.001 130.747 145.182 131.458C146.36 132.17 147.524 132.908 148.645 133.711C149.79 134.491 150.851 135.389 151.811 136.388C152.297 136.904 152.709 137.485 153.036 138.113C153.394 138.783 153.479 139.565 153.273 140.296L153.279 140.276C153.123 140.881 152.788 141.425 152.318 141.837C151.801 142.252 151.128 142.416 150.478 142.286C149.882 142.165 149.316 141.929 148.811 141.591C148.326 141.273 147.868 140.917 147.441 140.525L148.177 140.206C148.157 140.96 147.996 141.704 147.702 142.398C147.414 143.099 146.983 143.733 146.436 144.259C145.889 144.776 145.248 145.184 144.547 145.461C144.25 145.589 143.962 145.734 143.682 145.896C143.553 145.969 143.429 146.051 143.311 146.141C143.267 146.175 143.225 146.213 143.187 146.253C143.158 146.279 143.166 146.309 143.192 146.211L143.006 145.685C143.348 145.982 143.631 146.341 143.84 146.744C144.293 147.584 144.293 148.595 143.841 149.435C143.638 149.828 143.371 150.184 143.051 150.489C142.408 151.094 141.591 151.483 140.716 151.6C140.309 151.649 139.899 151.668 139.49 151.657C139.05 151.656 138.612 151.587 138.193 151.451L138.582 151.452C137.302 151.848 135.986 152.12 134.653 152.262C133.324 152.397 131.983 152.39 130.655 152.24C129.964 152.174 129.285 152.014 128.637 151.764C127.909 151.482 127.339 150.897 127.077 150.161C126.887 149.433 126.974 148.661 127.323 147.994C127.478 147.671 127.68 147.372 127.921 147.107C128.177 146.786 128.546 146.574 128.953 146.514L128.907 146.52C129.099 146.491 129.293 146.475 129.486 146.471C129.677 146.467 129.867 146.474 130.057 146.492C130.445 146.523 130.824 146.625 131.176 146.791L130.893 147.122C130.718 146.812 130.581 146.481 130.486 146.138C130.388 145.797 130.344 145.442 130.355 145.087C130.368 144.729 130.47 144.379 130.65 144.069C130.834 143.77 131.084 143.518 131.38 143.33C131.405 143.313 131.44 143.32 131.456 143.345C131.472 143.37 131.466 143.401 131.444 143.419C131.187 143.619 130.978 143.876 130.835 144.168C130.699 144.456 130.635 144.773 130.648 145.091C130.664 145.41 130.729 145.726 130.842 146.025C130.951 146.324 131.096 146.609 131.273 146.874C131.328 146.955 131.324 147.063 131.264 147.14C131.203 147.217 131.099 147.246 131.007 147.212L130.99 147.205C130.679 147.091 130.351 147.029 130.02 147.019C129.852 147.013 129.683 147.017 129.515 147.03C129.35 147.043 129.185 147.066 129.023 147.1L129.001 147.103L128.978 147.105C128.747 147.185 128.548 147.335 128.407 147.535C128.225 147.762 128.076 148.014 127.965 148.284C127.73 148.792 127.69 149.368 127.853 149.904C128.061 150.398 128.473 150.777 128.983 150.943C129.556 151.136 130.152 151.252 130.756 151.286C132.013 151.382 133.277 151.343 134.526 151.17C135.773 151.016 137.002 150.743 138.197 150.355C138.319 150.314 138.45 150.313 138.572 150.352L138.586 150.356C139.232 150.498 139.898 150.525 140.553 150.436C141.186 150.354 141.777 150.077 142.244 149.642C142.702 149.243 142.989 148.684 143.046 148.079C143.048 147.79 142.981 147.505 142.849 147.247C142.714 146.976 142.532 146.731 142.311 146.523L142.272 146.487C142.137 146.363 142.08 146.175 142.125 145.997C142.168 145.815 142.261 145.649 142.393 145.516C142.474 145.432 142.561 145.355 142.655 145.286C142.813 145.169 142.979 145.063 143.152 144.968C143.473 144.791 143.804 144.633 144.144 144.494C144.735 144.278 145.28 143.949 145.747 143.526C146.205 143.1 146.575 142.588 146.835 142.018C147.099 141.448 147.258 140.834 147.303 140.206L147.305 140.174C147.316 140.005 147.423 139.857 147.581 139.796C147.739 139.734 147.918 139.77 148.04 139.888C148.42 140.261 148.828 140.604 149.261 140.913C149.665 141.219 150.125 141.443 150.615 141.575C151.066 141.697 151.547 141.609 151.926 141.337C152.311 141.027 152.595 140.609 152.742 140.137L152.748 140.116C152.941 139.518 152.894 138.868 152.617 138.303C152.342 137.697 151.971 137.14 151.518 136.652C150.595 135.654 149.567 134.759 148.451 133.983C146.201 132.433 143.805 131.107 141.297 130.025C141.158 129.962 141.082 129.811 141.116 129.662L141.121 129.639C141.204 129.124 141.18 128.596 141.049 128.091C140.931 127.56 140.753 127.044 140.519 126.553C140.1 125.583 139.397 124.762 138.503 124.198C137.608 123.713 136.538 123.671 135.608 124.086C134.603 124.53 133.667 125.117 132.829 125.828C131.95 126.539 131.11 127.297 130.314 128.1C129.503 128.897 128.718 129.725 127.956 130.575C126.441 132.284 124.966 134.039 123.552 135.846C123.534 135.87 123.5 135.875 123.475 135.857C123.453 135.839 123.447 135.808 123.462 135.783Z" fill="black"/>
<path d="M134.502 127.408C134.508 128.425 134.638 129.439 134.888 130.425C135.018 130.892 135.224 131.333 135.499 131.732C135.759 132.107 136.15 132.37 136.595 132.471C137.053 132.581 137.532 132.575 137.989 132.455C138.462 132.345 138.911 132.148 139.312 131.873C140.145 131.294 140.864 130.568 141.435 129.729C141.031 130.705 140.386 131.563 139.561 132.222C138.7 132.939 137.56 133.227 136.462 133.004C135.895 132.866 135.401 132.52 135.078 132.035C134.783 131.575 134.578 131.063 134.473 130.526C134.285 129.494 134.295 128.436 134.502 127.408Z" fill="black"/>
<path d="M142.596 137.132C143.641 137.17 144.657 137.483 145.542 138.041C145.988 138.31 146.402 138.631 146.774 138.996C147.147 139.356 147.472 139.763 147.74 140.206C147.349 139.868 146.973 139.532 146.573 139.227C146.18 138.918 145.768 138.634 145.339 138.376C144.913 138.115 144.47 137.881 144.014 137.677C143.553 137.465 143.08 137.283 142.596 137.132Z" fill="black"/>
<path d="M131.083 146.998C131.326 147.243 131.605 147.449 131.911 147.607C132.209 147.78 132.511 147.942 132.816 148.1C133.428 148.414 134.048 148.716 134.672 149.011C135.915 149.615 137.174 150.192 138.39 150.904C137.023 150.586 135.696 150.117 134.433 149.506C133.798 149.204 133.184 148.857 132.598 148.467C131.982 148.107 131.462 147.603 131.083 146.998Z" fill="black"/>
<path d="M140.776 139.516C140.991 139.634 141.179 139.796 141.328 139.991C141.501 140.201 141.572 140.477 141.522 140.745C141.444 141.007 141.28 141.236 141.057 141.395C140.856 141.549 140.636 141.678 140.402 141.776C140.295 141.821 140.192 141.874 140.092 141.934C139.998 141.98 139.907 142.033 139.82 142.092L139.582 142.3C139.511 142.377 139.445 142.46 139.386 142.547C139.135 142.896 138.985 143.307 138.952 143.736C138.824 144.6 139.226 145.457 139.974 145.91C140.064 145.971 140.163 146.016 140.268 146.044C140.372 146.078 140.473 146.125 140.581 146.153C140.803 146.196 141.028 146.223 141.255 146.234C141.488 146.241 141.721 146.232 141.953 146.21C142.184 146.169 142.419 146.135 142.658 146.104C142.437 146.191 142.211 146.275 141.981 146.353C141.746 146.418 141.507 146.468 141.265 146.504C141.016 146.525 140.766 146.526 140.517 146.507C140.391 146.486 140.266 146.457 140.144 146.421C140.016 146.397 139.893 146.354 139.779 146.292C139.294 146.072 138.9 145.689 138.668 145.209C138.209 144.239 138.325 143.095 138.97 142.237C139.05 142.132 139.139 142.033 139.234 141.941L139.548 141.696C139.768 141.568 140.001 141.463 140.242 141.38C140.662 141.284 141.028 141.029 141.265 140.669C141.336 140.47 141.314 140.249 141.205 140.068C141.093 139.862 140.948 139.676 140.776 139.516Z" fill="black"/>
<path d="M136.322 128.976C136.386 129.265 136.474 129.548 136.586 129.822C136.678 130.083 136.843 130.312 137.06 130.482C137.28 130.638 137.557 130.691 137.819 130.625C137.96 130.6 138.1 130.564 138.237 130.518C138.374 130.465 138.509 130.404 138.656 130.356C138.541 130.454 138.415 130.54 138.292 130.634C138.154 130.708 138.011 130.77 137.863 130.822C137.542 130.931 137.189 130.884 136.908 130.694C136.655 130.488 136.476 130.205 136.397 129.888C136.313 129.592 136.288 129.282 136.322 128.976Z" fill="black"/>
<path d="M136.824 128.619C137.119 128.535 137.424 128.494 137.731 128.497C138.043 128.499 138.353 128.548 138.651 128.644C138.96 128.745 139.231 128.941 139.424 129.204C139.59 129.477 139.648 129.802 139.584 130.116C139.549 129.828 139.438 129.555 139.263 129.325C139.074 129.118 138.832 128.967 138.563 128.89C137.999 128.719 137.413 128.628 136.824 128.619Z" fill="black"/>
<path d="M141.027 145.163C141.136 144.94 141.302 144.749 141.508 144.611C141.73 144.457 142.004 144.4 142.269 144.453C142.519 144.533 142.739 144.688 142.898 144.897C142.963 145.004 143.031 145.106 143.087 145.214C143.129 145.33 143.178 145.44 143.211 145.556C143.05 145.372 142.908 145.19 142.747 145.031C142.598 144.879 142.413 144.767 142.208 144.707C142.005 144.659 141.79 144.687 141.605 144.785C141.398 144.886 141.203 145.013 141.027 145.163Z" fill="black"/>
<path d="M131.375 146.381C131.39 145.951 131.5 145.529 131.697 145.146C131.803 144.929 131.993 144.765 132.223 144.693C132.467 144.646 132.719 144.713 132.907 144.874C133.088 145.011 133.242 145.18 133.361 145.374C133.482 145.579 133.523 145.821 133.475 146.055C133.344 146.48 133.031 146.826 132.62 146.998C132.948 146.76 133.181 146.414 133.277 146.02C133.294 145.837 133.252 145.652 133.156 145.495C133.048 145.335 132.911 145.196 132.754 145.085C132.628 144.961 132.453 144.902 132.277 144.924C132.106 144.981 131.96 145.098 131.866 145.252C131.65 145.604 131.485 145.984 131.375 146.381Z" fill="black"/>
<path d="M124.669 143.196C124.644 143.626 124.523 144.045 124.316 144.422C124.204 144.637 124.01 144.796 123.778 144.862C123.533 144.902 123.283 144.829 123.098 144.662C122.921 144.521 122.772 144.347 122.658 144.151C122.543 143.943 122.508 143.699 122.562 143.467C122.704 143.045 123.026 142.708 123.441 142.547C123.107 142.776 122.865 143.116 122.759 143.507C122.737 143.69 122.775 143.875 122.866 144.035C122.97 144.198 123.103 144.34 123.258 144.455C123.38 144.582 123.554 144.647 123.73 144.629C123.903 144.576 124.052 144.464 124.149 144.311C124.374 143.966 124.549 143.59 124.669 143.196Z" fill="black"/>
<path d="M128.605 150.308C128.717 150.011 128.875 149.733 129.073 149.485C129.173 149.353 129.295 149.238 129.431 149.144C129.591 149.026 129.798 148.993 129.986 149.058C130.15 149.151 130.273 149.302 130.332 149.481C130.39 149.634 130.428 149.795 130.442 149.958C130.481 150.273 130.467 150.593 130.401 150.904C130.367 150.598 130.314 150.294 130.244 149.994C130.211 149.851 130.167 149.711 130.113 149.574C130.05 149.454 129.975 149.325 129.881 149.297C129.702 149.199 129.424 149.42 129.221 149.62C129.004 149.838 128.798 150.068 128.605 150.308Z" fill="black"/>
<path d="M121.475 135.816L119.254 138.262C119.254 138.262 119.271 141.391 117.687 141.523C117.687 141.523 116.885 142.248 117.457 142.397C117.968 142.523 119.809 142.067 120.607 142.16C120.607 142.16 124.383 141.413 125.027 141.819C125.418 142.085 125.674 142.509 125.725 142.979L126.033 142.946L137.946 143.656L143.114 135.816H121.475ZM136.825 141.303L120.106 141.022L122.289 137.509H139.04L136.825 141.303Z" fill="black"/>
<path d="M107.775 141.524C108.419 141.055 109.148 140.713 109.921 140.519C110.707 140.317 111.521 140.246 112.33 140.311C112.482 140.322 112.595 140.454 112.584 140.606C112.572 140.758 112.44 140.871 112.289 140.86C112.277 140.859 112.266 140.857 112.255 140.855C111.504 140.707 110.734 140.685 109.976 140.788C109.202 140.89 108.455 141.14 107.775 141.524Z" fill="black"/>
<path d="M112.292 147.203C113.839 147.232 115.386 147.285 116.933 147.433C117.316 147.467 117.716 147.529 118.086 147.572C118.459 147.613 118.835 147.62 119.21 147.595C119.952 147.544 120.681 147.369 121.365 147.078L121.383 147.07C121.522 147.008 121.685 147.071 121.746 147.21C121.807 147.349 121.744 147.512 121.605 147.573L121.59 147.579C120.832 147.855 120.033 148 119.226 148.007C118.828 148.01 118.43 147.979 118.038 147.913C117.643 147.842 117.283 147.763 116.898 147.705C115.376 147.469 113.833 147.323 112.292 147.203Z" fill="black"/>
<path d="M113.484 151.469C114.009 151.28 114.539 151.104 115.074 150.941C115.616 150.77 116.168 150.635 116.727 150.536C116.878 150.512 117.02 150.614 117.044 150.765C117.068 150.915 116.966 151.057 116.815 151.081C116.801 151.083 116.786 151.085 116.771 151.085H116.766C116.219 151.091 115.673 151.133 115.132 151.21C114.582 151.281 114.032 151.369 113.484 151.469Z" fill="black"/>
<path d="M115.555 137.578C115.836 137.87 116.167 138.11 116.532 138.286C116.902 138.457 117.289 138.586 117.688 138.669C117.477 138.718 117.26 138.73 117.045 138.703C116.828 138.674 116.616 138.612 116.417 138.521C116.221 138.42 116.043 138.288 115.889 138.131C115.735 137.976 115.62 137.786 115.555 137.578Z" fill="black"/>
<path d="M123.946 147.299C123.643 147.301 123.395 147.056 123.394 146.752C123.393 146.448 123.638 146.201 123.941 146.2L130.905 146.134C131.052 146.13 131.194 146.186 131.299 146.288C131.403 146.391 131.462 146.532 131.46 146.679C131.463 146.982 131.219 147.231 130.916 147.234L123.951 147.299H123.946Z" fill="black"/>
<path d="M143.083 147.121C142.779 147.121 142.533 146.875 142.533 146.572C142.532 146.268 142.778 146.022 143.082 146.022L162.278 145.996C162.582 145.996 162.829 146.242 162.829 146.546C162.83 146.849 162.584 147.096 162.28 147.096L143.083 147.121Z" fill="black"/>
<path d="M270.524 146.952C270.22 146.952 269.974 146.706 269.974 146.402C269.974 146.098 270.22 145.852 270.523 145.852L288.168 145.831C288.472 145.83 288.718 146.076 288.719 146.38C288.719 146.684 288.473 146.93 288.169 146.93L270.524 146.952Z" fill="black"/>
<path d="M170.03 146.668H168.725C168.652 146.668 168.593 146.61 168.592 146.538C168.592 146.503 168.605 146.47 168.629 146.446C168.653 146.421 168.686 146.407 168.721 146.407H170.03C170.102 146.407 170.161 146.466 170.161 146.538C170.161 146.61 170.102 146.668 170.03 146.668Z" fill="black"/>
<path d="M0.552313 148.45C0.248694 148.451 0.00140988 148.206 6.06805e-06 147.903C-0.00140537 147.599 0.24359 147.352 0.547217 147.35L24.7517 147.125C25.0519 147.131 25.2957 147.37 25.3066 147.67C25.3095 147.974 25.0656 148.222 24.7619 148.225L0.557425 148.45H0.552313Z" fill="black"/>
<path d="M91.839 72.3531C92.2616 72.3385 92.5965 71.9917 92.5965 71.5689C92.5965 71.1461 92.2616 70.7993 91.839 70.7847C91.4165 70.7993 91.0815 71.1461 91.0815 71.5689C91.0815 71.9917 91.4165 72.3385 91.839 72.3531Z" fill="black"/>
<path d="M131.484 57.1415L125.063 57.3807C122.957 57.4446 120.874 57.4956 118.803 57.5342C116.735 57.5629 114.674 57.5957 112.622 57.5726C110.568 57.5572 108.515 57.4654 106.441 57.408L106.747 57.1027C106.714 58.2874 106.66 59.4723 106.644 60.6571C106.615 61.8418 106.614 63.0266 106.607 64.2115C106.605 66.581 106.655 68.9506 106.722 71.3201L106.441 71.0396L111.565 70.8973C111.67 70.8942 111.773 70.9337 111.849 71.0067L111.864 71.0212L113.821 72.9031H113.148L115.04 70.9566C115.132 70.8616 115.258 70.8074 115.391 70.8062L115.404 70.8061C118.09 70.7839 120.777 70.7287 123.463 70.7337C124.806 70.727 126.15 70.7325 127.493 70.7502L131.522 70.8012L131.004 71.3201C131.04 69.0109 131.107 66.7012 131.203 64.3439L131.484 57.1415ZM131.561 57.0638L131.842 64.0789C131.938 66.4607 132.005 68.8902 132.041 71.3201C132.046 71.6024 131.82 71.8347 131.538 71.839H131.537L131.522 71.8392L127.493 71.8901C126.15 71.9063 124.806 71.9118 123.463 71.9066C120.777 71.9116 118.09 71.8564 115.404 71.8343L115.767 71.6838L113.821 73.5759L113.809 73.587C113.625 73.7666 113.329 73.7624 113.15 73.5776L113.148 73.5759L111.266 71.6193L111.565 71.743L106.441 71.6008L106.426 71.6003C106.275 71.5961 106.157 71.4707 106.161 71.3202C106.228 68.9507 106.277 66.581 106.276 64.2115C106.269 63.0266 106.268 61.8418 106.239 60.6571C106.223 59.4723 106.169 58.2874 106.136 57.1027C106.131 56.9388 106.261 56.8023 106.424 56.7978L106.441 56.7974C108.548 56.74 110.675 56.6481 112.801 56.6328C114.929 56.6097 117.048 56.6425 119.161 56.6712C121.27 56.7097 123.367 56.7608 125.441 56.8247L131.561 57.0638Z" fill="black"/>
<path d="M205.245 30.8422L195.795 31.0057L186.426 31.1238L167.817 31.2546L158.559 31.2219L149.307 31.1049C143.132 31.0101 136.927 30.9649 130.724 30.9805L130.901 30.8035L130.934 37.9121L131.016 45.0209L130.724 44.7291C136.191 44.6546 141.657 44.5841 147.124 44.5462L163.523 44.4558C168.989 44.4135 174.456 44.4621 179.922 44.4609C185.389 44.4542 190.855 44.526 196.322 44.5697L196.329 44.5699C196.446 44.5709 196.558 44.6184 196.641 44.702L198.543 46.6383H197.939L199.88 44.7405L199.887 44.7334C199.96 44.6621 200.058 44.6229 200.16 44.6242L205.284 44.6987L204.962 45.0208C204.999 42.6877 205.03 40.3547 205.094 37.9905L205.245 30.8422ZM205.323 30.7645L205.473 37.8336C205.538 40.2086 205.569 42.6147 205.606 45.0208C205.609 45.1959 205.469 45.34 205.294 45.3428L205.284 45.343L200.16 45.4175L200.441 45.3014L198.543 47.242C198.38 47.4087 198.113 47.4116 197.946 47.2486L197.939 47.242L196.003 45.3399L196.321 45.4719C190.855 45.5157 185.389 45.5875 179.922 45.5808C174.456 45.5796 168.989 45.6282 163.523 45.5859L147.124 45.4954C141.657 45.4576 136.191 45.3871 130.724 45.3126H130.717C130.558 45.3107 130.43 45.18 130.432 45.0208L130.514 37.9121L130.547 30.8034C130.547 30.7056 130.626 30.6263 130.724 30.6261C136.948 30.6418 143.169 30.5966 149.422 30.5018L158.809 30.3848L168.191 30.3521L186.862 30.4829L196.132 30.6009L205.323 30.7645Z" fill="black"/>
<path d="M153.474 0.502435C149.443 0.617197 145.48 0.697054 141.54 0.765772C137.591 0.84778 133.69 0.884416 129.79 0.914484C125.892 0.945085 122.019 0.920656 118.139 0.833818C114.256 0.767381 110.355 0.659067 106.441 0.639597L106.617 0.46364C106.616 1.64838 106.599 2.83314 106.612 4.01788L106.634 7.57228C106.637 9.94191 106.694 12.3114 106.729 14.681L106.441 14.3933L111.565 14.2973C111.662 14.2954 111.756 14.3322 111.826 14.3997L111.836 14.4098L113.786 16.2982H113.182L115.077 14.3549C115.16 14.2697 115.274 14.2211 115.393 14.2199L115.404 14.2197L124.931 14.1369C128.107 14.1117 131.283 14.0885 134.458 14.0934C140.81 14.0905 147.161 14.1834 153.513 14.2679L153.1 14.681L153.269 7.67348L153.474 0.502435ZM153.552 0.42473L153.757 7.47107L153.926 14.681C153.931 14.9038 153.755 15.0887 153.532 15.0939L153.528 15.094L153.513 15.0942C147.161 15.1787 140.81 15.2716 134.458 15.2687C131.283 15.2738 128.107 15.2504 124.931 15.2253L115.404 15.1424L115.73 15.0073L113.786 16.9024L113.778 16.9108C113.612 17.0729 113.345 17.0696 113.183 16.9034L113.182 16.9024L111.294 14.9524L111.565 15.0648L106.441 14.9688L106.432 14.9687C106.357 14.9675 106.285 14.9366 106.233 14.8826C106.181 14.8286 106.152 14.7561 106.153 14.681C106.188 12.3114 106.246 9.94191 106.249 7.57228L106.271 4.01789C106.284 2.83315 106.267 1.64839 106.265 0.463648C106.265 0.36638 106.344 0.287531 106.441 0.287416C110.373 0.267954 114.317 0.159639 118.28 0.0933549C122.244 0.0063798 126.217 -0.0179122 130.164 0.0125367C134.11 0.0427339 138.053 0.0793778 141.95 0.161386C145.855 0.229974 149.738 0.309976 153.552 0.42473Z" fill="black"/>
</svg>
