<svg width="500" height="500" viewBox="0 0 500 500" fill="none" xmlns="http://www.w3.org/2000/svg">
<path d="M60.51 63.42L73.63 63.14L80.29 63.03C82.52 63.03 84.75 63.03 86.99 63.03H87.43V63.48L87.49 74.67V75.17H86.99L73.78 75.05C69.36 75.05 64.95 74.94 60.54 74.88H60.26V74.61C60.26 72.71 60.35 70.83 60.39 68.96L60.51 63.42ZM60.51 63.42L60.65 69.08C60.65 70.94 60.76 72.78 60.78 74.61L60.51 74.34C64.92 74.34 69.33 74.18 73.75 74.18L86.99 74.11L86.49 74.61L86.54 63.42L86.99 63.87C84.8 63.87 82.63 63.87 80.44 63.81L73.86 63.7L60.51 63.42Z" fill="#EBEBEB"/>
<path d="M75.28 49.31L88.4 49.03L95.06 48.92C97.29 48.92 99.53 48.92 101.76 48.92H102.2V49.37L102.26 60.56V61.06H101.78L88.52 60.92C84.1 60.92 79.69 60.81 75.28 60.75H75V60.48C75 58.58 75.09 56.7 75.13 54.83L75.28 49.31ZM75.28 49.31L75.42 54.97C75.42 56.83 75.53 58.67 75.55 60.5L75.28 60.23C79.69 60.23 84.1 60.07 88.52 60.07L101.78 60L101.28 60.5V49.31L101.73 49.76C99.55 49.76 97.37 49.76 95.18 49.7L88.6 49.59L75.28 49.31Z" fill="#EBEBEB"/>
<path d="M100.96 193.08L114.08 192.8L120.74 192.69C122.97 192.64 125.21 192.69 127.44 192.63H127.88V193.08L127.94 204.27V204.77H127.44L114.2 204.7C109.78 204.7 105.37 204.59 100.96 204.54H100.68V204.27C100.68 202.37 100.77 200.48 100.81 198.61L100.96 193.08ZM100.96 193.08L101.1 198.73C101.1 200.59 101.21 202.44 101.23 204.27L100.96 203.99C105.37 203.99 109.78 203.83 114.2 203.83L127.44 203.77L126.94 204.27V193.08L127.39 193.52C125.2 193.52 123.03 193.52 120.84 193.52L114.26 193.41L100.96 193.08Z" fill="#EBEBEB"/>
<path d="M115.78 178.97L128.9 178.69L135.56 178.58C137.79 178.58 140.03 178.58 142.26 178.52H142.7V178.97L142.76 190.16V190.66H142.26L129.02 190.59C124.6 190.59 120.19 190.48 115.78 190.43H115.5V190.16C115.5 188.26 115.59 186.37 115.64 184.5L115.78 178.97ZM115.78 178.97L115.92 184.62C115.92 186.48 116.03 188.33 116.05 190.16L115.78 189.92C120.19 189.87 124.6 189.77 129.02 189.76L142.26 189.7L141.76 190.2V179.01L142.21 179.45C140.03 179.45 137.85 179.45 135.66 179.4L129.08 179.29L115.78 178.97Z" fill="#EBEBEB"/>
<path d="M45.78 49.31L58.91 49.03L65.52 48.92C67.74 48.92 69.98 48.92 72.21 48.92H72.66V49.37L72.71 60.56V61.06H72.2L58.97 60.92C54.56 60.92 50.15 60.81 45.73 60.75H45.46V60.48C45.46 58.58 45.55 56.7 45.59 54.83L45.78 49.31ZM45.78 49.31L45.93 54.97C45.93 56.83 46.04 58.67 46.06 60.5L45.78 60.23C50.2 60.23 54.61 60.07 59.02 60.07L72.26 60L71.76 60.5L71.78 49.31L72.22 49.76C70.04 49.76 67.87 49.76 65.68 49.7L59.1 49.59L45.78 49.31Z" fill="#EBEBEB"/>
<path d="M439.05 292.33L425.93 292.61L419.27 292.73C417.04 292.73 414.81 292.73 412.57 292.78H412.13V292.33L412.07 281.15V280.64H412.57L425.81 280.7C430.23 280.7 434.64 280.81 439.05 280.86H439.33V281.13C439.33 283.02 439.24 284.91 439.2 286.78L439.05 292.33ZM439.05 292.33L438.91 286.68C438.91 284.82 438.8 282.98 438.78 281.15L439.05 281.42C434.64 281.47 430.23 281.58 425.81 281.58L412.57 281.64L413.07 281.15L413.02 292.33L412.57 291.89C414.76 291.89 416.93 291.89 419.12 291.89L425.7 292.01L439.05 292.33Z" fill="#EBEBEB"/>
<path d="M453.83 306.44L440.7 306.72L434.04 306.84C431.81 306.84 429.58 306.84 427.35 306.89H426.9V306.44L426.85 295.25V294.75H427.36L440.6 294.81C445.01 294.81 449.42 294.92 453.84 294.97H454.11V295.23C454.11 297.13 454.02 299.02 453.98 300.89L453.83 306.44ZM453.83 306.44L453.68 300.79C453.68 298.93 453.57 297.09 453.55 295.25L453.83 295.53C449.41 295.58 445 295.69 440.59 295.69L427.35 295.75L427.85 295.25L427.78 306.44L427.34 306C429.52 306 431.69 306 433.88 306.05L440.46 306.17L453.83 306.44Z" fill="#EBEBEB"/>
<path d="M87.21 306.44L74.09 306.72L67.43 306.84C65.2 306.84 62.96 306.84 60.73 306.89H60.29V306.44L60.23 295.25V294.75H60.78L74.02 294.81C78.44 294.81 82.85 294.92 87.26 294.97H87.54V295.23C87.54 297.13 87.45 299.02 87.4 300.89L87.21 306.44ZM87.21 306.44L87.07 300.79C87.07 298.93 86.96 297.09 86.94 295.25L87.21 295.53C82.8 295.58 78.39 295.69 73.97 295.69L60.78 295.75L61.28 295.25L61.23 306.44L60.78 306C62.96 306 65.14 306 67.33 306.05L73.91 306.17L87.21 306.44Z" fill="#EBEBEB"/>
<path d="M412.46 49.31L425.59 49.03L432.25 48.92C434.47 48.92 436.71 48.92 438.94 48.92H439.39V49.37L439.44 60.56V61.06H438.94L425.7 60.92C421.29 60.92 416.87 60.81 412.46 60.75H412.19V60.48C412.19 58.58 412.27 56.7 412.32 54.83L412.46 49.31ZM412.46 49.31L412.6 54.97C412.65 56.83 412.72 58.67 412.73 60.5L412.46 60.23C416.87 60.23 421.29 60.07 425.7 60.07L438.94 60L438.44 60.5L438.5 49.31L438.94 49.76C436.76 49.76 434.58 49.76 432.4 49.7L425.78 49.59L412.46 49.31Z" fill="#EBEBEB"/>
<path d="M450.45 221.7H317.31V35.77H450.45V221.7ZM321.26 217.75H446.5V39.72H321.26V217.75Z" fill="#EBEBEB"/>
<path d="M385.85 40.75H381.9V219.72H385.85V40.75Z" fill="#EBEBEB"/>
<path d="M454.04 43.76H313.73V49.26H454.04V43.76Z" fill="#EBEBEB"/>
<path d="M454.04 49.95H313.73V55.45H454.04V49.95Z" fill="#EBEBEB"/>
<path d="M454.04 56.13H313.73V61.63H454.04V56.13Z" fill="#EBEBEB"/>
<path d="M454.04 62.32H313.73V67.82H454.04V62.32Z" fill="#EBEBEB"/>
<path d="M454.04 68.51H313.73V74.01H454.04V68.51Z" fill="#EBEBEB"/>
<path d="M454.04 74.7H313.73V80.2H454.04V74.7Z" fill="#EBEBEB"/>
<path d="M454.04 80.89H313.73V86.39H454.04V80.89Z" fill="#EBEBEB"/>
<path d="M454.04 87.08H313.73V92.58H454.04V87.08Z" fill="#EBEBEB"/>
<path d="M454.04 93.27H313.73V98.77H454.04V93.27Z" fill="#EBEBEB"/>
<path d="M442.3 42.64H441.31V149.69H442.3V42.64Z" fill="#A6A6A6"/>
<path d="M443.56 154.29H440.05L440.93 149.25H442.68L443.56 154.29Z" fill="#A6A6A6"/>
<path d="M445.86 42.64H444.87V176.69H445.86V42.64Z" fill="#A6A6A6"/>
<path d="M447.12 180.4H443.61L444.49 175.36H446.24L447.12 180.4Z" fill="#A6A6A6"/>
<path d="M460.17 35H307.6V46.51H460.17V35Z" fill="#DBDBDB"/>
<path d="M153.82 101H42V107.64H153.82V101Z" fill="#EBEBEB"/>
<path d="M57.13 107.64H50.49V129.6H57.13V107.64Z" fill="#EBEBEB"/>
<path d="M57.13 107.64H50.49V114.43H57.13V107.64Z" fill="#DBDBDB"/>
<path d="M145.33 107.64H138.69V129.6H145.33V107.64Z" fill="#EBEBEB"/>
<path d="M145.33 107.64H138.69V114.43H145.33V107.64Z" fill="#DBDBDB"/>
<path d="M67.21 101V58.68H56.55V101H67.21Z" fill="#C7C7C7"/>
<path d="M67.21 61.08V56.43H56.55V61.08H67.21Z" fill="#DBDBDB"/>
<path d="M67.21 68.76V67.03H56.55V68.76H67.21Z" fill="#DBDBDB"/>
<path d="M68.54 95.45V90.8H56.56V95.45H68.54Z" fill="#DBDBDB"/>
<path d="M74.65 101V51.64H67.2V101H74.65Z" fill="#DBDBDB"/>
<path d="M73.13 75.27V56.28H68.66V75.27H73.13Z" fill="#EBEBEB"/>
<path d="M127.622 95.7168L92.5191 61.0156L87.2816 66.3138L122.385 101.015L127.622 95.7168Z" fill="#C7C7C7"/>
<path d="M118.37 88.6134L104.864 75.263L101.722 78.4419L115.227 91.7923L118.37 88.6134Z" fill="#DBDBDB"/>
<path d="M87.3 101.01V63.52H74.65V101.01H87.3Z" fill="#A6A6A6"/>
<path d="M87.3 97.03V93.54H74.65V97.03H87.3Z" fill="#C7C7C7"/>
<path d="M87.3 91.25V89.89H74.65V91.25H87.3Z" fill="#C7C7C7"/>
<path d="M56.55 101.02V65.78H47.81V101.02H56.55Z" fill="#A6A6A6"/>
<path d="M56.55 97.27V93.99H47.81V97.27H56.55Z" fill="#C7C7C7"/>
<path d="M56.55 76.31V73.03H47.81V76.31H56.55Z" fill="#C7C7C7"/>
<path d="M56.55 79.84V78.57H47.81V79.84H56.55Z" fill="#C7C7C7"/>
<path d="M451.32 446.59C451.32 460.78 361.18 472.29 250 472.29C138.82 472.29 48.68 460.78 48.68 446.59C48.68 432.4 138.82 420.89 250 420.89C361.18 420.89 451.32 432.4 451.32 446.59Z" fill="#EBEBEB"/>
<path d="M400.14 326.64C400.14 326.64 383.55 322.88 374.46 314.5C365.37 306.12 360.28 291.11 360.28 291.11C366.586 292.319 372.804 293.953 378.89 296C381.174 298.356 383.073 301.055 384.52 304C384.663 302.106 384.663 300.204 384.52 298.31C386.645 299.226 388.634 300.431 390.43 301.89C398 308.45 400.14 326.64 400.14 326.64Z" fill="#670536"/>
<path d="M370.64 298.4C368.38 296.84 366.08 295.33 363.83 293.75C363.69 293.66 363.83 293.44 363.96 293.53C368.24 296.08 372.45 298.81 376.53 301.67C377.95 302.67 379.35 303.7 380.73 304.76L380.44 304.27C379.94 303.44 379.44 302.62 378.89 301.8C377.851 300.137 376.673 298.565 375.37 297.1C375.32 297.05 375.37 296.97 375.45 297.02C376.74 298.51 378.03 300.02 379.21 301.57C379.77 302.32 380.29 303.1 380.79 303.89C381.05 304.31 381.3 304.72 381.53 305.15L381.78 305.57C383.93 307.26 386.02 309.02 388.01 310.87C389.243 312.017 390.433 313.203 391.58 314.43C390.93 312.43 390.37 310.43 389.63 308.43C389.63 308.36 389.72 308.33 389.74 308.43C390.46 310.5 391.25 312.59 391.81 314.72C393.08 316.09 394.3 317.51 395.44 319L395.38 318.73C395.19 317.94 395 317.16 394.79 316.39C394.39 314.89 393.94 313.39 393.44 311.92C392.484 308.866 390.972 306.015 388.98 303.51C388.93 303.45 388.98 303.37 389.06 303.43C392.168 307.308 394.344 311.848 395.42 316.7C395.6 317.4 395.76 318.11 395.92 318.82C396.01 319.2 396.11 319.58 396.17 319.97C396.67 320.65 397.17 321.33 397.64 322.03C400.456 326.358 402.803 330.974 404.64 335.8C406.725 341.212 408.515 346.734 410 352.34C409.994 352.358 409.982 352.373 409.967 352.384C409.952 352.395 409.934 352.4 409.915 352.4C409.896 352.4 409.878 352.395 409.863 352.384C409.848 352.373 409.836 352.358 409.83 352.34C406.58 342.63 403.27 332.78 397.71 324.11C396.538 322.277 395.273 320.504 393.92 318.8C391.171 318.624 388.458 318.086 385.85 317.2C383.005 316.236 380.291 314.923 377.77 313.29C376.333 312.319 374.948 311.274 373.62 310.16C373.611 310.157 373.603 310.152 373.597 310.145C373.59 310.138 373.585 310.129 373.583 310.12C373.58 310.111 373.58 310.102 373.581 310.092C373.583 310.083 373.587 310.074 373.593 310.067C373.599 310.059 373.606 310.053 373.615 310.049C373.623 310.045 373.633 310.043 373.642 310.044C373.652 310.044 373.661 310.046 373.669 310.051C373.678 310.056 373.685 310.062 373.69 310.07C376.008 311.941 378.568 313.492 381.3 314.68C383.982 315.911 386.788 316.849 389.67 317.48C390.89 317.75 392.14 317.95 393.38 318.12C391.846 316.229 390.214 314.42 388.49 312.7C387.93 312.14 387.35 311.6 386.77 311.06C384.837 309.708 382.785 308.533 380.64 307.55C377.92 306.23 375.24 304.84 372.55 303.47C371.03 302.7 369.55 301.91 368 301.16C367.93 301.16 368 301.04 368.06 301.07C370.78 302.39 373.55 303.62 376.3 304.88C379.05 306.14 381.52 307.26 384 308.65L384.32 308.84C382.07 306.84 379.74 305.02 377.32 303.22C375.14 301.6 372.91 300 370.64 298.4Z" fill="#263238"/>
<path d="M371.59 307C372.94 307.59 374.31 308.11 375.65 308.74C376.99 309.37 378.32 310.13 379.65 310.9C379.656 310.903 379.661 310.908 379.665 310.913C379.67 310.918 379.673 310.924 379.675 310.931C379.676 310.937 379.677 310.944 379.676 310.951C379.675 310.958 379.673 310.964 379.67 310.97C379.667 310.976 379.662 310.981 379.657 310.985C379.652 310.99 379.646 310.993 379.639 310.995C379.633 310.996 379.626 310.997 379.619 310.996C379.612 310.995 379.606 310.993 379.6 310.99C378.28 310.36 376.94 309.77 375.6 309.11C374.26 308.45 372.93 307.71 371.55 307.11C371.49 307 371.52 306.93 371.59 307Z" fill="#263238"/>
<path d="M454 243C450.92 246.95 449.17 251.774 449 256.78C448.95 258.27 449.18 260.35 449.36 262.78C445.218 265.183 441.548 268.321 438.53 272.04C441.842 270.115 445.646 269.204 449.47 269.42C449.385 271.1 449.174 272.771 448.84 274.42C446.439 274.427 444.062 274.899 441.84 275.81C444.018 275.787 446.177 276.216 448.18 277.07C445.18 286.48 436.44 296.15 412.18 300.25C409.61 288.709 411.13 276.634 416.48 266.09C423.77 251.76 454 243 454 243Z" fill="#670536"/>
<path d="M403.8 340.49C404.22 336.49 404.743 332.49 405.37 328.49C406.598 320.493 408.231 312.563 410.26 304.73C411.214 301.054 412.386 297.437 413.77 293.9C413.7 293.256 413.67 292.608 413.68 291.96C413.68 291.18 413.68 290.4 413.68 289.62C413.68 288.07 413.77 286.52 413.9 284.97C414.146 281.898 414.644 278.851 415.39 275.86C415.84 274.13 416.39 272.43 416.86 270.72C416.865 270.709 416.872 270.7 416.882 270.694C416.892 270.687 416.903 270.684 416.915 270.684C416.927 270.684 416.938 270.687 416.948 270.694C416.958 270.7 416.965 270.709 416.97 270.72C416.16 273.705 415.559 276.742 415.17 279.81C414.74 282.83 414.47 285.871 414.36 288.92C414.36 289.75 414.31 290.59 414.31 291.42C414.31 291.78 414.31 292.14 414.31 292.49C415.505 289.592 416.871 286.767 418.4 284.03C420.867 279.692 423.644 275.538 426.71 271.6C426.716 271.14 426.783 270.682 426.91 270.24C427.02 269.7 427.14 269.16 427.26 268.61C427.51 267.51 427.79 266.4 428.09 265.31C428.69 263.11 429.49 260.98 430.18 258.81C430.185 258.799 430.192 258.79 430.202 258.784C430.212 258.777 430.223 258.774 430.235 258.774C430.247 258.774 430.258 258.777 430.268 258.784C430.278 258.79 430.285 258.799 430.29 258.81C429.65 260.96 429.22 263.19 428.73 265.38C428.48 266.46 428.25 267.54 428.01 268.63C427.89 269.17 427.77 269.71 427.66 270.25C427.66 270.25 427.66 270.34 427.66 270.38C428.64 269.14 429.64 267.92 430.66 266.72C435.29 261.28 440.37 256.26 445.49 251.29C446.12 250.67 446.76 250.08 447.4 249.47C447.4 249.47 447.53 249.47 447.48 249.56C442.59 254.66 437.78 259.81 433.22 265.21C432.13 266.5 431.07 267.8 430.02 269.11L431.68 268.01C433.09 267.09 434.52 266.19 435.99 265.37C437.46 264.55 438.99 263.73 440.46 262.98C441.93 262.23 443.68 261.58 445.19 260.71C445.25 260.71 445.31 260.78 445.24 260.81C443.706 261.518 442.225 262.337 440.81 263.26C439.33 264.14 437.86 265.02 436.41 265.94C434.96 266.86 433.55 267.74 432.13 268.66C430.95 269.43 429.79 270.27 428.56 270.97C425.746 274.587 423.148 278.367 420.78 282.29C419.317 284.763 417.982 287.31 416.78 289.92L417.65 289.54L419.88 288.54C421.3 287.91 422.74 287.29 424.17 286.67C426.89 285.48 429.66 284.4 432.33 283.1C433.835 282.39 435.292 281.582 436.69 280.68C436.75 280.68 436.8 280.68 436.74 280.78C431.74 284.21 426.18 286.62 420.68 289.06L418.29 290.12C417.63 290.41 416.97 290.73 416.29 290.99C414.657 294.639 413.283 298.398 412.18 302.24C410.012 309.969 408.249 317.807 406.9 325.72C405.51 333.65 404.57 341.63 403.84 349.65C403.75 350.65 403.66 351.65 403.54 352.65C403.527 352.724 403.488 352.791 403.43 352.839C403.373 352.887 403.3 352.914 403.225 352.914C403.15 352.914 403.077 352.887 403.02 352.839C402.962 352.791 402.923 352.724 402.91 352.65C403 348.61 403.37 344.54 403.8 340.49Z" fill="#263238"/>
<path d="M418.57 273.45C419.01 270.98 419.67 268.57 420.33 266.15C420.33 266.08 420.46 266.15 420.44 266.15C419.83 268.52 419.39 270.94 418.94 273.34C418.49 275.74 418.09 278.26 417.74 280.73C417.74 280.73 417.67 280.78 417.67 280.73C417.832 278.288 418.132 275.858 418.57 273.45Z" fill="#263238"/>
<path d="M429 280.14C430.69 279.021 432.454 278.019 434.28 277.14C435.16 276.69 436.06 276.25 436.95 275.82C437.84 275.39 438.84 275 439.76 274.54C439.82 274.54 439.87 274.6 439.76 274.63C438.87 275.08 438.03 275.63 437.16 276.09L434.46 277.57C432.69 278.52 430.94 279.57 429.08 280.35C429.059 280.344 429.04 280.333 429.024 280.319C429.007 280.304 428.995 280.286 428.987 280.265C428.979 280.245 428.977 280.223 428.979 280.201C428.981 280.179 428.988 280.158 429 280.14Z" fill="#263238"/>
<path opacity="0.1" d="M399.84 297.9C399.84 297.9 384.49 294.23 377.44 283.9C370.71 274.07 368.53 257.3 368.36 255.82C368.63 257.18 371.8 271.82 382.25 278.66C390.26 283.92 398 288.22 399.84 297.9Z" fill="#263238"/>
<path d="M399.84 297.9C399.84 297.9 384.49 294.23 377.44 283.9C370.71 274.07 368.53 257.3 368.36 255.82C368.355 255.787 368.355 255.753 368.36 255.72C368.36 255.72 375.72 266.19 383.46 268.86C391.2 271.53 402.06 280.79 399.84 297.9Z" fill="#670536"/>
<path d="M371.06 261.52C372.438 264.342 374.025 267.056 375.81 269.64C377.599 272.092 379.723 274.28 382.12 276.14C384.21 277.8 386.41 279.3 388.52 280.92V280.84C388.12 280.26 387.7 279.68 387.26 279.13C386.38 278 385.42 276.94 384.45 275.89C382.55 273.82 380.6 271.79 378.89 269.55C377.937 268.303 377.112 266.963 376.43 265.55C376.43 265.48 376.5 265.45 376.53 265.55C379.02 270.74 384 274.06 387.53 278.44C388.032 279.063 388.503 279.71 388.94 280.38C389.292 280.866 389.591 281.389 389.83 281.94C391.775 283.499 393.533 285.278 395.07 287.24C394.937 286.226 394.729 285.224 394.45 284.24C394.095 282.872 393.546 281.562 392.82 280.35C392.82 280.29 392.88 280.22 392.92 280.29C393.661 281.505 394.261 282.8 394.71 284.15C395.035 285.226 395.223 286.338 395.27 287.46C396.03 288.492 396.725 289.571 397.35 290.69C397.28 290.36 397.22 290.03 397.16 289.69C396.85 288.16 396.52 286.63 396.16 285.12C395.435 282.046 394.187 279.12 392.47 276.47C392.42 276.41 392.47 276.35 392.56 276.41C394.321 279.02 395.698 281.869 396.65 284.87C397.14 286.38 397.53 287.87 397.88 289.46C398.05 290.21 398.2 290.97 398.34 291.73C398.42 292.12 398.5 292.53 398.57 292.93C400.09 296.275 401.276 299.762 402.11 303.34C403.615 309.733 404.707 316.217 405.38 322.75C406.173 329.59 406.527 336.474 406.44 343.36C406.44 344.23 406.37 345.09 406.33 345.95C406.33 346.17 405.98 346.21 405.97 345.95C405.82 342.54 405.73 339.13 405.53 335.73C405.33 332.33 405.03 328.93 404.67 325.53C403.969 318.86 402.901 312.233 401.47 305.68C400.22 300.07 398.61 294.42 395.54 289.5C394.015 287.052 392.15 284.833 390 282.91C387.85 280.98 385.5 279.29 383.23 277.5C380.93 275.749 378.842 273.736 377.01 271.5C375.137 269.02 373.503 266.368 372.13 263.58L371.03 261.5C370.93 261.52 371 261.46 371.06 261.52Z" fill="#263238"/>
<path d="M373.71 263.78C374.72 265.851 375.862 267.856 377.13 269.78C377.13 269.78 377.13 269.87 377.06 269.78C375.741 267.88 374.584 265.873 373.6 263.78C373.57 263.75 373.68 263.71 373.71 263.78Z" fill="#263238"/>
<path d="M456.18 291.11C456.18 291.11 456.43 312.93 443.38 319.22C430.33 325.51 423.38 320.28 414.48 322.39C414.82 321.87 421.15 312.77 431.21 310.27C441.57 307.68 453 300.2 456.18 291.11Z" fill="#670536"/>
<path opacity="0.1" d="M456.18 291.11C456.18 291.11 456.43 312.93 443.38 319.22C430.33 325.51 423.38 320.28 414.48 322.39C419.165 320.155 424.173 318.673 429.32 318C437.55 317 453.26 311.65 456.18 291.11Z" fill="black"/>
<path d="M413.62 322.78C415.17 321.36 416.918 320.175 418.81 319.26C419.08 319.13 419.37 319.02 419.66 318.9C419.793 318.724 419.936 318.557 420.09 318.4C420.49 317.99 420.89 317.6 421.32 317.23C422.141 316.526 423.021 315.893 423.95 315.34C426.11 314.07 428.48 313.18 430.69 312C430.75 312 430.81 312.06 430.74 312.1C429.65 312.66 428.59 313.29 427.53 313.91C426.47 314.53 425.44 315.09 424.43 315.74C423.526 316.323 422.664 316.967 421.85 317.67C421.62 317.87 421.4 318.09 421.18 318.31C422.623 317.825 424.096 317.435 425.59 317.14C427.98 316.66 430.39 316.32 432.78 315.81C433.949 315.56 435.104 315.25 436.24 314.88C437.32 314 438.4 313.14 439.43 312.19C440.669 311.053 441.797 309.8 442.8 308.45C442.8 308.4 442.94 308.45 442.89 308.51C441.309 310.651 439.52 312.631 437.55 314.42C438.11 314.2 438.66 313.97 439.21 313.72C443.694 311.713 447.54 308.513 450.33 304.47C450.33 304.41 450.47 304.47 450.43 304.53C448.057 307.999 444.993 310.941 441.43 313.17C439.647 314.284 437.741 315.187 435.75 315.86C433.437 316.577 431.079 317.134 428.69 317.53C426.35 317.91 424.041 318.458 421.78 319.17C419.698 319.876 417.741 320.905 415.98 322.22C412.659 324.801 409.982 328.118 408.16 331.91C405.822 336.959 404.364 342.37 403.85 347.91C403.85 348.14 403.47 348.14 403.48 347.91C404.09 338.69 406.55 329.14 413.62 322.78Z" fill="#263238"/>
<path d="M428.76 315.66C429.44 314.642 430.361 313.808 431.44 313.23C432.677 312.584 433.764 311.685 434.63 310.59C434.63 310.53 434.77 310.59 434.72 310.65C433.937 311.647 432.986 312.5 431.91 313.17C430.726 313.801 429.681 314.665 428.84 315.71C428.8 315.76 428.72 315.71 428.76 315.66Z" fill="#263238"/>
<path d="M421.83 338.88L421.24 350.88L419.42 387.53H392.05L390.23 350.88L389.64 338.88H421.83Z" fill="#37474F"/>
<path d="M421.83 338.88L421.24 350.88H390.23L389.64 338.88H421.83Z" fill="#263238"/>
<path d="M423.75 333.87H387.72V345.32H423.75V333.87Z" fill="#37474F"/>
<path d="M42.22 387.53L94.16 387.29L146.11 387.2L250 387.03L353.89 387.2L405.84 387.29L457.78 387.53L405.84 387.78L353.89 387.87L250 388.03L146.11 387.86L94.16 387.78L42.22 387.53Z" fill="#263238"/>
<path d="M375.22 414.26V65.73C375.22 58.611 369.449 52.84 362.33 52.84L137.68 52.84C130.561 52.84 124.79 58.611 124.79 65.73L124.79 414.26C124.79 421.379 130.561 427.15 137.68 427.15H362.33C369.449 427.15 375.22 421.379 375.22 414.26Z" fill="#263238"/>
<path d="M364.65 79.04H135.64V401.18H364.65V79.04Z" fill="white"/>
<path d="M277.24 68.74V67.35C277.24 66.6597 276.68 66.1 275.99 66.1H223.99C223.3 66.1 222.74 66.6597 222.74 67.35V68.74C222.74 69.4304 223.3 69.99 223.99 69.99H275.99C276.68 69.99 277.24 69.4304 277.24 68.74Z" fill="#37474F"/>
<path d="M250 420.89C253.894 420.89 257.05 417.734 257.05 413.84C257.05 409.946 253.894 406.79 250 406.79C246.106 406.79 242.95 409.946 242.95 413.84C242.95 417.734 246.106 420.89 250 420.89Z" fill="#37474F"/>
<path d="M329.37 123.28H170.93V125.51H329.37V123.28Z" fill="#EBEBEB"/>
<path d="M329.37 130.2H170.93V132.43H329.37V130.2Z" fill="#EBEBEB"/>
<path d="M329.37 340.93H170.93V343.16H329.37V340.93Z" fill="#EBEBEB"/>
<path d="M329.37 347.85H170.93V350.08H329.37V347.85Z" fill="#EBEBEB"/>
<path d="M209.45 371.86C213.493 371.86 216.77 368.583 216.77 364.54C216.77 360.497 213.493 357.22 209.45 357.22C205.407 357.22 202.13 360.497 202.13 364.54C202.13 368.583 205.407 371.86 209.45 371.86Z" fill="#670536"/>
<path d="M209.57 368.81L205.21 364.4L206.68 362.95L209.22 365.53L214.52 357.23L216.25 358.34L209.57 368.81Z" fill="white"/>
<path d="M312.465 231.669C312.465 225.669 320.645 218.609 319.165 213.049C317.625 207.299 306.975 205.309 304.065 200.269C301.155 195.229 304.675 184.959 300.525 180.809C296.375 176.659 286.185 180.239 281.065 177.279C275.945 174.319 274.065 163.719 268.295 162.179C262.735 160.699 255.705 168.879 249.675 168.879C243.645 168.879 236.615 160.699 231.055 162.179C225.305 163.719 223.315 174.369 218.275 177.279C213.235 180.189 202.965 176.669 198.815 180.819C194.665 184.969 198.245 195.159 195.285 200.279C192.325 205.399 181.725 207.279 180.185 213.049C178.675 218.609 186.885 225.669 186.885 231.669C186.885 237.669 178.705 244.729 180.185 250.289C181.725 256.039 192.375 258.029 195.285 263.069C198.195 268.109 194.675 278.379 198.825 282.529C202.975 286.679 213.165 283.099 218.285 286.059C223.405 289.019 225.285 299.619 231.055 301.159C236.615 302.639 243.645 294.459 249.675 294.459C255.705 294.459 262.735 302.639 268.295 301.159C274.045 299.619 276.035 288.969 281.075 286.059C286.115 283.149 296.385 286.669 300.535 282.519C304.685 278.369 301.105 268.179 304.065 263.059C307.025 257.939 317.625 256.059 319.165 250.289C320.675 244.729 312.465 237.669 312.465 231.669Z" fill="#670536"/>
<path d="M248.805 256.829L221.675 228.109C221.052 227.446 220.718 226.563 220.746 225.653C220.774 224.743 221.162 223.882 221.825 223.259C222.488 222.636 223.372 222.301 224.281 222.33C225.191 222.358 226.052 222.746 226.675 223.409L247.975 245.969L274.875 206.969C275.12 206.574 275.442 206.232 275.823 205.965C276.203 205.698 276.634 205.511 277.089 205.416C277.544 205.32 278.014 205.318 278.469 205.41C278.925 205.502 279.358 205.685 279.74 205.949C280.123 206.213 280.448 206.552 280.696 206.946C280.943 207.339 281.108 207.779 281.181 208.238C281.253 208.697 281.232 209.166 281.117 209.617C281.003 210.067 280.798 210.49 280.515 210.859L248.805 256.829Z" fill="white"/>
<path d="M166.43 106.31C166.013 110.317 164.491 114.129 162.033 117.321C159.575 120.513 156.278 122.959 152.51 124.385C148.742 125.812 144.652 126.162 140.697 125.399C136.741 124.635 133.076 122.787 130.11 120.06L119.23 121.66L124.67 112.26C123.424 109.202 122.89 105.9 123.111 102.604C123.331 99.3093 124.299 96.1076 125.942 93.2424C127.584 90.3773 129.858 87.9241 132.59 86.0689C135.322 84.2138 138.441 83.0055 141.71 82.5358C144.979 82.0661 148.312 82.3474 151.456 83.3582C154.6 84.3691 157.473 86.083 159.856 88.3697C162.238 90.6565 164.069 93.4561 165.208 96.556C166.347 99.6558 166.765 102.974 166.43 106.26V106.31Z" fill="white"/>
<path d="M166.43 106.31C166.006 110.311 164.487 114.117 162.04 117.31C160.844 118.923 159.407 120.343 157.78 121.52C156.178 122.739 154.41 123.722 152.53 124.44C150.654 125.174 148.685 125.646 146.68 125.84C145.682 125.924 144.68 125.944 143.68 125.9C142.673 125.868 141.671 125.761 140.68 125.58C136.672 124.845 132.949 123.006 129.93 120.27L130.18 120.35L119.29 122L118.5 122.12L118.9 121.43L124.31 112V112.38C123.03 109.265 122.483 105.898 122.71 102.538C122.937 99.1776 123.933 95.9146 125.62 93C127.315 90.101 129.643 87.6226 132.43 85.75C135.899 83.4638 139.945 82.2068 144.099 82.1245C148.253 82.0421 152.346 83.1378 155.903 85.2847C159.46 87.4316 162.337 90.5419 164.2 94.2557C166.063 97.9695 166.836 102.135 166.43 106.27V106.31ZM166.43 106.31C166.777 103.036 166.368 99.7265 165.235 96.6357C164.101 93.5448 162.274 90.7554 159.892 88.4823C157.511 86.2092 154.64 84.5129 151.499 83.5243C148.359 82.5357 145.034 82.2811 141.78 82.78C138.549 83.2628 135.471 84.477 132.78 86.33C130.122 88.1975 127.9 90.62 126.27 93.43C124.671 96.247 123.728 99.3882 123.51 102.62C123.313 105.854 123.836 109.092 125.04 112.1L125.12 112.29L125.02 112.47L119.54 121.85L119.16 121.28L130.04 119.75H130.19L130.3 119.85C133.204 122.57 136.809 124.426 140.71 125.21C141.698 125.413 142.702 125.533 143.71 125.57C144.709 125.642 145.711 125.642 146.71 125.57C148.697 125.416 150.652 124.985 152.52 124.29C154.397 123.612 156.163 122.658 157.76 121.46C158.567 120.873 159.335 120.235 160.06 119.55C160.771 118.841 161.439 118.09 162.06 117.3C164.499 114.108 166.011 110.305 166.43 106.31Z" fill="#263238"/>
<path d="M142.26 116.45L132.98 107.05L136.1 103.97L141.52 109.46L152.79 91.79L156.49 94.15L142.26 116.45Z" fill="#670536"/>
<path d="M227.143 361.421C227.143 361.048 227.416 360.862 227.962 360.862C228.196 360.862 228.642 360.871 229.301 360.888C230.029 360.923 230.579 360.94 230.952 360.94C231.255 360.94 231.624 360.923 232.057 360.888C232.352 360.871 232.538 360.862 232.616 360.862C233.093 360.879 233.496 360.966 233.825 361.122C233.92 361.165 233.998 361.217 234.059 361.278C234.12 361.339 234.15 361.438 234.15 361.577C234.15 361.768 234.089 361.932 233.968 362.071C233.847 362.201 233.699 362.266 233.526 362.266C233.335 362.266 233.058 362.24 232.694 362.188C232.373 362.127 232.092 362.097 231.849 362.097C231.615 362.097 231.437 362.101 231.316 362.11C231.29 362.396 231.277 363.081 231.277 364.164C231.277 365.455 231.316 366.764 231.394 368.09L231.42 368.467C231.42 368.822 231.216 369 230.809 369C230.488 369 230.272 368.926 230.159 368.779C230.046 368.623 229.99 368.389 229.99 368.077C229.99 367.462 229.973 366.695 229.938 365.776C229.903 365.013 229.886 364.472 229.886 364.151C229.886 363.934 229.912 363.271 229.964 362.162L228.443 362.175C227.958 362.175 227.62 362.132 227.429 362.045C227.238 361.95 227.143 361.742 227.143 361.421ZM236.549 360.758C236.549 360.983 236.545 361.248 236.536 361.551C236.527 361.846 236.519 362.071 236.51 362.227C236.484 362.669 236.471 363.111 236.471 363.553C236.471 363.882 236.484 364.225 236.51 364.58C236.779 364.19 237.069 363.904 237.381 363.722C237.693 363.54 238.07 363.449 238.512 363.449C238.833 363.449 239.132 363.592 239.409 363.878C239.686 364.164 239.864 364.498 239.942 364.879C239.968 365.217 239.981 365.629 239.981 366.114C239.981 366.426 239.998 366.833 240.033 367.336C240.05 367.527 240.098 367.704 240.176 367.869C240.263 368.034 240.384 368.116 240.54 368.116C240.618 368.116 240.679 368.112 240.722 368.103C240.774 368.094 240.822 368.09 240.865 368.09C240.986 368.09 241.069 368.12 241.112 368.181C241.164 368.242 241.19 368.328 241.19 368.441C241.19 368.649 241.086 368.805 240.878 368.909C240.67 369.013 240.479 369.065 240.306 369.065C239.682 369.065 239.253 368.805 239.019 368.285C238.889 367.99 238.807 367.609 238.772 367.141C238.737 366.664 238.72 366.11 238.72 365.477C238.72 364.853 238.508 364.541 238.083 364.541C237.849 364.541 237.611 364.667 237.368 364.918C237.134 365.161 236.939 365.486 236.783 365.893C236.627 366.292 236.549 366.708 236.549 367.141L236.562 368.493C236.562 368.684 236.488 368.827 236.341 368.922C236.194 369.009 236.055 369.052 235.925 369.052C235.734 369.052 235.561 368.996 235.405 368.883C235.249 368.762 235.171 368.627 235.171 368.48C235.232 367.83 235.262 366.742 235.262 365.217C235.262 364.94 235.24 363.913 235.197 362.136L235.158 360.94C235.158 360.749 235.245 360.585 235.418 360.446C235.591 360.299 235.786 360.225 236.003 360.225C236.194 360.225 236.332 360.268 236.419 360.355C236.506 360.442 236.549 360.576 236.549 360.758ZM247.886 368.376C247.886 368.567 247.782 368.727 247.574 368.857C247.375 368.987 247.189 369.052 247.015 369.052C246.686 369.052 246.422 369.013 246.222 368.935C246.032 368.848 245.854 368.692 245.689 368.467C245.464 368.666 245.156 368.818 244.766 368.922C244.376 369.017 244.017 369.065 243.687 369.065C243.15 369.065 242.708 368.922 242.361 368.636C242.015 368.341 241.841 367.912 241.841 367.349C241.841 367.106 241.906 366.885 242.036 366.686C242.166 366.478 242.344 366.296 242.569 366.14C242.821 365.975 243.107 365.85 243.427 365.763C243.748 365.668 244.082 365.62 244.428 365.62C244.61 365.62 244.827 365.655 245.078 365.724C245.33 365.793 245.525 365.867 245.663 365.945V365.737C245.663 365.269 245.551 364.948 245.325 364.775C245.1 364.593 244.736 364.502 244.233 364.502C244.086 364.502 243.939 364.532 243.791 364.593C243.653 364.654 243.492 364.736 243.31 364.84C243.068 364.97 242.838 365.035 242.621 365.035C242.543 365.035 242.47 364.983 242.4 364.879C242.331 364.766 242.296 364.667 242.296 364.58C242.296 364.329 242.413 364.112 242.647 363.93C242.89 363.748 243.176 363.614 243.505 363.527C243.835 363.432 244.129 363.384 244.389 363.384C244.649 363.384 244.948 363.436 245.286 363.54C245.624 363.635 245.902 363.77 246.118 363.943C246.378 364.168 246.578 364.433 246.716 364.736C246.864 365.031 246.937 365.356 246.937 365.711C246.937 365.824 246.929 365.993 246.911 366.218C246.894 366.461 246.885 366.669 246.885 366.842C246.885 366.92 246.877 367.037 246.859 367.193C246.842 367.384 246.833 367.535 246.833 367.648C246.833 367.752 246.872 367.843 246.95 367.921C247.028 367.99 247.119 368.025 247.223 368.025L247.587 368.012C247.683 368.012 247.756 368.047 247.808 368.116C247.86 368.185 247.886 368.272 247.886 368.376ZM243.7 368.038C244.073 368.038 244.385 367.999 244.636 367.921C244.888 367.843 245.191 367.7 245.546 367.492C245.581 367.345 245.603 367.15 245.611 366.907C245.135 366.682 244.74 366.569 244.428 366.569C244.073 366.569 243.757 366.634 243.479 366.764C243.202 366.894 243.063 367.124 243.063 367.453C243.063 367.618 243.133 367.756 243.271 367.869C243.41 367.982 243.553 368.038 243.7 368.038ZM248.647 364.424C248.577 364.372 248.521 364.32 248.478 364.268C248.434 364.207 248.413 364.103 248.413 363.956C248.413 363.791 248.469 363.666 248.582 363.579C248.703 363.484 248.842 363.436 248.998 363.436C249.301 363.436 249.561 363.514 249.778 363.67C250.003 363.826 250.168 364.043 250.272 364.32C250.462 363.965 250.705 363.722 251 363.592C251.294 363.453 251.702 363.384 252.222 363.384C252.43 363.384 252.642 363.449 252.859 363.579C253.084 363.7 253.288 363.852 253.47 364.034C253.617 364.225 253.743 364.463 253.847 364.749C253.951 365.026 254.003 365.278 254.003 365.503C254.003 365.633 253.994 365.845 253.977 366.14C253.959 366.452 253.951 366.699 253.951 366.881C253.951 367.488 254.068 367.86 254.302 367.999C254.336 368.016 254.401 368.038 254.497 368.064C254.592 368.09 254.661 368.116 254.705 368.142C254.757 368.168 254.783 368.207 254.783 368.259C254.791 368.467 254.713 368.64 254.549 368.779C254.393 368.909 254.202 368.974 253.977 368.974C253.639 368.974 253.374 368.883 253.184 368.701C252.993 368.519 252.859 368.242 252.781 367.869C252.737 367.73 252.716 367.527 252.716 367.258C252.716 367.111 252.724 366.872 252.742 366.543C252.768 366.283 252.781 366.006 252.781 365.711C252.781 365.408 252.694 365.143 252.521 364.918C252.347 364.684 252.109 364.567 251.806 364.567C251.624 364.567 251.433 364.623 251.234 364.736C251.034 364.84 250.896 364.97 250.818 365.126C250.688 365.395 250.601 365.668 250.558 365.945C250.454 366.482 250.402 366.998 250.402 367.492C250.402 367.613 250.41 367.847 250.428 368.194C250.428 368.22 250.428 368.285 250.428 368.389C250.428 368.484 250.415 368.575 250.389 368.662C250.371 368.749 250.337 368.827 250.285 368.896C250.25 368.931 250.185 368.965 250.09 369C249.994 369.035 249.912 369.052 249.843 369.052C249.721 369.052 249.57 369 249.388 368.896C249.206 368.792 249.097 368.675 249.063 368.545L249.05 368.363C249.05 368.294 249.058 368.19 249.076 368.051C249.18 367.444 249.232 366.916 249.232 366.465C249.232 366.266 249.227 366.114 249.219 366.01L249.206 365.412C249.206 365.23 249.154 365.057 249.05 364.892C248.946 364.719 248.811 364.563 248.647 364.424ZM256.683 369.052C256.51 369.052 256.362 369.022 256.241 368.961C256.12 368.9 256.046 368.835 256.02 368.766C255.925 368.419 255.877 367.964 255.877 367.401C255.877 366.361 255.894 365.516 255.929 364.866C255.964 364.095 255.981 363.354 255.981 362.643C255.981 362.435 255.955 362.132 255.903 361.733C255.894 361.664 255.881 361.538 255.864 361.356C255.847 361.174 255.838 361.005 255.838 360.849C255.838 360.658 255.903 360.507 256.033 360.394C256.172 360.281 256.349 360.225 256.566 360.225C256.739 360.225 256.878 360.281 256.982 360.394C257.095 360.498 257.151 360.641 257.151 360.823C257.151 361.1 257.16 361.49 257.177 361.993C257.194 362.461 257.203 362.812 257.203 363.046C257.203 363.306 257.194 363.653 257.177 364.086C257.16 364.346 257.151 364.537 257.151 364.658C257.151 365.039 257.155 365.356 257.164 365.607C257.485 365.286 257.905 364.909 258.425 364.476C258.945 364.043 259.348 363.739 259.634 363.566C259.937 363.384 260.137 363.293 260.232 363.293C260.414 363.293 260.57 363.332 260.7 363.41C260.83 363.488 260.895 363.601 260.895 363.748C260.895 363.895 260.873 364.012 260.83 364.099C260.787 364.186 260.709 364.272 260.596 364.359L259.127 365.438C259.274 365.499 259.413 365.633 259.543 365.841C259.682 366.049 259.846 366.331 260.037 366.686C260.254 367.093 260.431 367.397 260.57 367.596C260.717 367.795 260.865 367.895 261.012 367.895L261.337 367.882C261.398 367.882 261.45 367.917 261.493 367.986C261.545 368.055 261.571 368.155 261.571 368.285C261.571 368.484 261.471 368.645 261.272 368.766C261.081 368.887 260.865 368.948 260.622 368.948C260.284 368.948 259.985 368.818 259.725 368.558C259.465 368.289 259.218 367.93 258.984 367.479L258.698 366.907C258.577 366.664 258.481 366.491 258.412 366.387C258.351 366.283 258.278 366.214 258.191 366.179L257.151 367.011L257.203 368.428C257.203 368.653 257.142 368.814 257.021 368.909C256.908 369.004 256.796 369.052 256.683 369.052ZM271.909 361.369C271.909 361.525 271.775 361.755 271.506 362.058C271.315 362.275 270.899 362.868 270.258 363.839C269.712 364.662 269.292 365.273 268.997 365.672C269.006 366.599 269.04 367.28 269.101 367.713C269.127 367.973 269.14 368.159 269.14 368.272C269.14 368.558 269.088 368.753 268.984 368.857C268.889 368.952 268.72 369 268.477 369C268.295 369 268.122 368.948 267.957 368.844C267.801 368.731 267.723 368.597 267.723 368.441C267.723 367.99 267.71 367.15 267.684 365.919C267.684 365.858 267.606 365.698 267.45 365.438C267.311 365.195 266.969 364.727 266.423 364.034C265.894 363.349 265.496 362.812 265.227 362.422C264.967 362.023 264.837 361.72 264.837 361.512C264.837 361.33 264.919 361.187 265.084 361.083C265.257 360.97 265.444 360.914 265.643 360.914C265.894 360.914 266.098 361.031 266.254 361.265C266.341 361.386 266.475 361.62 266.657 361.967C266.787 362.218 266.934 362.483 267.099 362.76C267.264 363.037 267.415 363.263 267.554 363.436L267.918 363.878C268.178 364.19 268.308 364.35 268.308 364.359C268.568 364.099 268.802 363.813 269.01 363.501C269.218 363.18 269.469 362.773 269.764 362.279L270.258 361.473L270.479 361.135C270.557 361.031 270.648 360.949 270.752 360.888C270.856 360.827 270.999 360.797 271.181 360.797C271.346 360.797 271.506 360.845 271.662 360.94C271.827 361.035 271.909 361.178 271.909 361.369ZM277.841 364.827C277.911 364.948 277.967 365.126 278.01 365.36C278.054 365.585 278.075 365.789 278.075 365.971C278.075 366.205 278.049 366.465 277.997 366.751C277.945 367.037 277.898 367.258 277.854 367.414C277.256 368.506 276.372 369.052 275.202 369.052C274.769 369.052 274.327 368.909 273.876 368.623C273.426 368.337 273.114 368.008 272.94 367.635C272.706 366.898 272.589 366.426 272.589 366.218C272.589 365.871 272.663 365.503 272.81 365.113C272.966 364.723 273.161 364.385 273.395 364.099C273.551 363.9 273.82 363.731 274.201 363.592C274.583 363.445 274.929 363.371 275.241 363.371C275.848 363.371 276.359 363.488 276.775 363.722C277.2 363.947 277.555 364.316 277.841 364.827ZM276.71 366.92C276.754 366.833 276.775 366.543 276.775 366.049C276.775 365.798 276.728 365.551 276.632 365.308C276.546 365.065 276.416 364.857 276.242 364.684C276.225 364.667 276.177 364.641 276.099 364.606C276.021 364.563 275.913 364.524 275.774 364.489C275.644 364.446 275.493 364.424 275.319 364.424C274.834 364.424 274.479 364.619 274.253 365.009C274.028 365.399 273.915 365.841 273.915 366.335C273.915 366.413 273.941 366.573 273.993 366.816C274.045 367.059 274.084 367.215 274.11 367.284C274.18 367.405 274.318 367.548 274.526 367.713C274.743 367.869 274.977 367.947 275.228 367.947C275.618 367.947 275.926 367.856 276.151 367.674C276.385 367.483 276.572 367.232 276.71 366.92ZM279.178 364.619C279.109 364.619 279.048 364.593 278.996 364.541C278.944 364.48 278.918 364.411 278.918 364.333C278.918 364.082 279 363.891 279.165 363.761C279.33 363.622 279.533 363.553 279.776 363.553C280.114 363.553 280.404 363.644 280.647 363.826C280.898 363.999 281.024 364.251 281.024 364.58C281.024 364.667 281.007 364.996 280.972 365.568C280.937 366.227 280.92 366.664 280.92 366.881C280.92 367.184 280.976 367.431 281.089 367.622C281.21 367.804 281.397 367.895 281.648 367.895C282.133 367.895 282.506 367.626 282.766 367.089C283.035 366.543 283.212 365.876 283.299 365.087C283.334 364.74 283.386 364.376 283.455 363.995C283.49 363.787 283.537 363.635 283.598 363.54C283.659 363.445 283.776 363.397 283.949 363.397C284.062 363.397 284.192 363.423 284.339 363.475C284.495 363.527 284.595 363.596 284.638 363.683C284.69 363.813 284.716 363.956 284.716 364.112C284.716 364.329 284.686 364.61 284.625 364.957C284.556 365.304 284.508 365.681 284.482 366.088C284.465 366.452 284.521 366.833 284.651 367.232C284.781 367.631 284.967 367.891 285.21 368.012C285.487 368.151 285.626 368.276 285.626 368.389C285.626 368.571 285.561 368.714 285.431 368.818C285.301 368.922 285.175 368.974 285.054 368.974C284.733 368.974 284.443 368.857 284.183 368.623C283.932 368.389 283.75 368.099 283.637 367.752C283.455 368.029 283.277 368.259 283.104 368.441C282.939 368.614 282.727 368.762 282.467 368.883C282.207 368.996 281.886 369.052 281.505 369.052C281.054 369.052 280.643 368.892 280.27 368.571C279.906 368.25 279.724 367.7 279.724 366.92C279.724 366.703 279.728 366.474 279.737 366.231C279.754 365.988 279.763 365.815 279.763 365.711C279.789 365.399 279.802 365.113 279.802 364.853C279.802 364.775 279.772 364.71 279.711 364.658C279.659 364.606 279.598 364.58 279.529 364.58C279.477 364.58 279.416 364.589 279.347 364.606C279.286 364.615 279.23 364.619 279.178 364.619ZM291.089 361.46C291.089 361.928 291.063 362.613 291.011 363.514C290.959 364.381 290.933 365.044 290.933 365.503C290.933 365.624 290.942 365.876 290.959 366.257C290.951 366.404 290.899 366.517 290.803 366.595C290.708 366.664 290.595 366.699 290.465 366.699C290.327 366.699 290.201 366.664 290.088 366.595C289.976 366.526 289.906 366.435 289.88 366.322C289.776 365.611 289.724 364.762 289.724 363.774L289.737 361.746C289.737 361.425 289.776 361.165 289.854 360.966C289.941 360.758 290.123 360.654 290.4 360.654C290.634 360.654 290.808 360.732 290.92 360.888C291.033 361.035 291.089 361.226 291.089 361.46ZM290.4 367.375C290.99 367.375 291.284 367.596 291.284 368.038C291.284 368.263 291.211 368.471 291.063 368.662C290.925 368.844 290.747 368.935 290.53 368.935C290.27 368.935 290.058 368.857 289.893 368.701C289.729 368.536 289.646 368.346 289.646 368.129C289.646 367.938 289.716 367.765 289.854 367.609C290.002 367.453 290.184 367.375 290.4 367.375Z" fill="#670536"/>
</svg>
