<svg width="500" height="500" viewBox="0 0 500 500" fill="none" xmlns="http://www.w3.org/2000/svg">
<path d="M448.78 113.53C445.464 108.188 441.813 103.061 437.85 98.18C405.49 58.39 363.18 41.55 314.85 30.27C264.93 18.62 206.48 15 158.55 36C147.27 41 136.55 47.6 128.07 56.6C96 90.51 85 147.3 49.29 192.19C13.58 237.08 -3.84001 293 28.22 346.08C41.79 368.56 59.09 387.08 79.56 403.38C104.76 423.38 126.5 450.44 155.63 466.09C186.24 482.53 227.01 488.26 260.89 480.73C299.54 472.14 322.21 437.98 351.71 414.73C374.97 396.37 402.8 384.35 425.59 365.41C460.51 336.41 486.99 289.75 482.59 243.52C478.27 198.64 472.71 152 448.78 113.53Z" fill="#670536"/>
<path opacity="0.7" d="M448.78 113.53C445.464 108.188 441.813 103.061 437.85 98.18C405.49 58.39 363.18 41.55 314.85 30.27C264.93 18.62 206.48 15 158.55 36C147.27 41 136.55 47.6 128.07 56.6C96 90.51 85 147.3 49.29 192.19C13.58 237.08 -3.84001 293 28.22 346.08C41.79 368.56 59.09 387.08 79.56 403.38C104.76 423.38 126.5 450.44 155.63 466.09C186.24 482.53 227.01 488.26 260.89 480.73C299.54 472.14 322.21 437.98 351.71 414.73C374.97 396.37 402.8 384.35 425.59 365.41C460.51 336.41 486.99 289.75 482.59 243.52C478.27 198.64 472.71 152 448.78 113.53Z" fill="white"/>
<path opacity="0.2" d="M454.75 31.1C453.787 31.101 452.849 31.4048 452.068 31.9683C451.288 32.5318 450.704 33.3265 450.4 34.24H224.89C224.54 33.2016 223.833 32.3213 222.894 31.7564C221.955 31.1915 220.846 30.9786 219.764 31.1559C218.683 31.3331 217.7 31.8889 216.991 32.7241C216.281 33.5592 215.892 34.6193 215.892 35.715C215.892 36.8108 216.281 37.8708 216.991 38.706C217.7 39.5411 218.683 40.0969 219.764 40.2742C220.846 40.4514 221.955 40.2386 222.894 39.6736C223.833 39.1087 224.54 38.2284 224.89 37.19H450.4C450.674 37.9898 451.163 38.6987 451.813 39.2388C452.463 39.7789 453.25 40.1293 454.086 40.2516C454.923 40.3739 455.777 40.2634 456.555 39.9321C457.332 39.6008 458.004 39.0616 458.495 38.3737C458.987 37.6858 459.279 36.8758 459.34 36.0327C459.401 35.1895 459.229 34.3458 458.842 33.5942C458.455 32.8427 457.868 32.2123 457.146 31.7722C456.424 31.3322 455.595 31.0996 454.75 31.1Z" fill="black"/>
<g opacity="0.2">
<path d="M278.22 38C281.44 116.18 284.22 195.11 287.61 273L287.28 288.27C287.28 288.27 272.83 288.27 265.22 289.03C257.61 289.79 245.82 289.79 237.45 289.79C229.08 289.79 224.52 286.74 224.52 286.74L225.07 272.98C226.75 195.12 228.58 116.18 229.76 37.98" stroke="black" stroke-linejoin="round"/>
<path d="M242.19 260.11L242.15 269.31" stroke="black" stroke-linejoin="round"/>
<path d="M242.98 80.75L242.23 251.93" stroke="black" stroke-linejoin="round"/>
<path d="M243.17 36.29L243 75.64" stroke="black" stroke-linejoin="round"/>
<path d="M256.14 126.21L254.41 240.18" stroke="black" stroke-linejoin="round"/>
<path d="M257.48 37.31L256.24 119.08" stroke="black" stroke-linejoin="round"/>
<path d="M268.24 157.91L268.72 263.69" stroke="black" stroke-linejoin="round"/>
<path d="M267.9 82.79L268.2 149.22" stroke="black" stroke-linejoin="round"/>
<path d="M267.7 38.33L267.86 74.62" stroke="black" stroke-linejoin="round"/>
</g>
<g opacity="0.2">
<path d="M394.89 38C391.8 120.78 387.89 204.39 384.89 286.73C390.25 287.542 395.652 288.039 401.07 288.22H433.38C438.397 288.11 443.396 287.595 448.33 286.68C446.88 204.39 445.89 120.78 443.33 38" stroke="black" stroke-linejoin="round"/>
<path d="M430.92 260.11L430.96 269.31" stroke="black" stroke-linejoin="round"/>
<path d="M430.14 80.75L430.89 251.93" stroke="black" stroke-linejoin="round"/>
<path d="M429.94 36.29L430.11 75.64" stroke="black" stroke-linejoin="round"/>
<path d="M416.98 126.21L418.7 240.18" stroke="black" stroke-linejoin="round"/>
<path d="M415.63 37.31L416.87 119.08" stroke="black" stroke-linejoin="round"/>
<path d="M404.87 157.91L404.39 263.69" stroke="black" stroke-linejoin="round"/>
<path d="M405.21 82.79L404.91 149.22" stroke="black" stroke-linejoin="round"/>
<path d="M405.41 38.33L405.25 74.62" stroke="black" stroke-linejoin="round"/>
</g>
<g opacity="0.2">
<path d="M279.66 60.24H302.35V86.72H281.17" stroke="black" stroke-linejoin="round"/>
<path d="M330.03 60.3H306.31V86.86H330.03V60.3Z" stroke="black" stroke-linejoin="round"/>
</g>
<g opacity="0.2">
<path d="M393.76 60.24H371.07V86.72H392.25" stroke="black" stroke-linejoin="round"/>
<path d="M343.39 86.86H367.11V60.3H343.39V86.86Z" stroke="black" stroke-linejoin="round"/>
</g>
<path opacity="0.2" d="M283.4 180.55H330.64V101.17H281.33" stroke="black" stroke-linejoin="round"/>
<path opacity="0.2" d="M391.37 100.5H343.1V180.55H387.74" stroke="black" stroke-linejoin="round"/>
<path opacity="0.2" d="M284.96 199.39H330.64V279.19H288.42" stroke="black" stroke-linejoin="round"/>
<path opacity="0.2" d="M388.26 198.72H343.1V279.93H384.27" stroke="black" stroke-linejoin="round"/>
<path opacity="0.2" d="M288.21 285H384.9" stroke="black" stroke-linejoin="round"/>
<path opacity="0.2" d="M279.47 51.05H393.71" stroke="black" stroke-linejoin="round"/>
<path opacity="0.2" d="M336.86 51.6V283.9" stroke="black" stroke-linejoin="round"/>
<path opacity="0.2" d="M280.92 95.03H392.04" stroke="black" stroke-linejoin="round"/>
<g opacity="0.2">
<path d="M354.9 385.19V308C354.9 306.543 354.613 305.1 354.055 303.754C353.497 302.408 352.679 301.185 351.648 300.155C350.617 299.125 349.394 298.308 348.047 297.751C346.7 297.195 345.257 296.909 343.8 296.91H242.38V386" stroke="black" stroke-linejoin="round"/>
<path d="M243.23 296.89H139.92C138.462 296.889 137.017 297.175 135.67 297.733C134.322 298.292 133.098 299.11 132.068 300.142C131.038 301.174 130.221 302.4 129.666 303.748C129.11 305.097 128.826 306.542 128.83 308V385.21" stroke="black" stroke-linejoin="round"/>
<path d="M364.92 392.56V418.56H242.43V385.19H357.55C359.505 385.19 361.379 385.966 362.761 387.349C364.144 388.731 364.92 390.605 364.92 392.56Z" stroke="black" stroke-linejoin="round"/>
<path d="M243.36 385.19H126.19C125.221 385.189 124.262 385.378 123.367 385.748C122.471 386.118 121.658 386.661 120.972 387.345C120.287 388.03 119.743 388.842 119.372 389.737C119.001 390.632 118.81 391.591 118.81 392.56V418.56H243.36" stroke="black" stroke-linejoin="round"/>
<path d="M365.13 418.53H118.81V460.36H365.13V418.53Z" stroke="black" stroke-linejoin="round"/>
<path d="M128.83 340.89C128.136 340.166 127.302 339.59 126.379 339.196C125.456 338.803 124.463 338.6 123.46 338.6H101.15C99.1829 338.597 97.295 339.375 95.9003 340.762C94.5056 342.149 93.7179 344.033 93.71 346V452.9C93.7126 454.871 94.4977 456.761 95.8926 458.154C97.2876 459.548 99.1785 460.33 101.15 460.33H123.46" stroke="black" stroke-linejoin="round"/>
<path d="M357.69 460.36H380C381.971 460.36 383.86 459.577 385.254 458.184C386.647 456.79 387.43 454.901 387.43 452.93V346C387.422 344.035 386.636 342.153 385.243 340.766C383.851 339.379 381.965 338.6 380 338.6H357.69C356.734 338.598 355.786 338.781 354.9 339.14" stroke="black" stroke-linejoin="round"/>
</g>
<path d="M248.87 147.22V112.3H245.71V67.6C245.717 63.9779 245.009 60.39 243.627 57.0417C242.246 53.6934 240.217 50.6504 237.658 48.0869C235.1 45.5233 232.06 43.4895 228.714 42.1019C225.369 40.7142 221.782 40 218.16 40H70.16C66.5366 39.9987 62.9484 40.7119 59.6009 42.0988C56.2534 43.4858 53.2123 45.5192 50.6515 48.0827C48.0907 50.6463 46.0606 53.6896 44.6773 57.0387C43.294 60.3877 42.5847 63.9766 42.59 67.6V368.34C42.59 375.649 45.4936 382.659 50.6621 387.828C55.8306 392.996 62.8406 395.9 70.15 395.9H218.15C221.769 395.9 225.352 395.187 228.695 393.802C232.038 392.417 235.076 390.387 237.634 387.827C240.193 385.268 242.222 382.23 243.606 378.886C244.99 375.542 245.701 371.959 245.7 368.34V177H248.86V156.35H245.7V147.22H248.87Z" fill="#707070" stroke="#263238" stroke-linejoin="round"/>
<path d="M212 43.84H76.3C59.4443 43.84 45.78 57.5043 45.78 74.36V361.58C45.78 378.436 59.4443 392.1 76.3 392.1H212C228.856 392.1 242.52 378.436 242.52 361.58V74.36C242.52 57.5043 228.856 43.84 212 43.84Z" fill="#263238" stroke="#263238" stroke-linejoin="round"/>
<path d="M209.5 46.34H154.86L154.8 46.54C153.19 52.36 149.46 56.14 145.34 56.14H143C138.87 56.14 135.15 52.36 133.53 46.54L133.48 46.34H78.81C71.5006 46.34 64.4906 49.2436 59.3221 54.4121C54.1536 59.5806 51.25 66.5906 51.25 73.9V348.66C51.25 352.279 51.9629 355.862 53.3481 359.205C54.7332 362.548 56.7634 365.586 59.3227 368.144C61.8821 370.703 64.9203 372.732 68.264 374.116C71.6077 375.5 75.1912 376.211 78.81 376.21H209.5C213.118 376.211 216.701 375.5 220.044 374.116C223.388 372.732 226.425 370.702 228.984 368.144C231.542 365.585 233.571 362.548 234.956 359.204C236.34 355.861 237.051 352.278 237.05 348.66V73.9C237.051 70.2812 236.34 66.6977 234.956 63.354C233.572 60.0103 231.543 56.9721 228.984 54.4127C226.426 51.8534 223.388 49.8232 220.045 48.4381C216.702 47.0529 213.119 46.34 209.5 46.34Z" fill="white" stroke="#263238" stroke-linejoin="round"/>
<path d="M209.5 46.34H154.86L154.8 46.54C153.19 52.36 149.46 56.14 145.34 56.14H143C138.87 56.14 135.15 52.36 133.53 46.54L133.48 46.34H78.81C71.5006 46.34 64.4906 49.2436 59.3221 54.4121C54.1536 59.5806 51.25 66.5906 51.25 73.9V77H237.05V73.9C237.051 70.2812 236.34 66.6977 234.956 63.354C233.572 60.0103 231.543 56.9721 228.984 54.4127C226.426 51.8534 223.388 49.8232 220.045 48.4381C216.702 47.0529 213.119 46.34 209.5 46.34Z" fill="#670536"/>
<path d="M205.79 202C205.79 196 213.97 188.94 212.49 183.38C210.95 177.63 200.3 175.64 197.39 170.6C194.48 165.56 198 155.29 193.85 151.14C189.7 146.99 179.51 150.57 174.39 147.61C169.27 144.65 167.39 134.05 161.62 132.51C156.06 131.03 149.03 139.21 143 139.21C136.97 139.21 129.94 131.03 124.38 132.51C118.63 134.05 116.64 144.7 111.6 147.61C106.56 150.52 96.29 147 92.14 151.15C87.99 155.3 91.57 165.49 88.61 170.61C85.65 175.73 75.05 177.61 73.51 183.38C72 188.94 80.21 196 80.21 202C80.21 208 72.03 215.06 73.51 220.62C75.05 226.37 85.7 228.36 88.61 233.4C91.52 238.44 88 248.71 92.15 252.86C96.3 257.01 106.49 253.43 111.61 256.39C116.73 259.35 118.61 269.95 124.38 271.49C129.94 272.97 136.97 264.79 143 264.79C149.03 264.79 156.06 272.97 161.62 271.49C167.37 269.95 169.36 259.3 174.4 256.39C179.44 253.48 189.71 257 193.86 252.85C198.01 248.7 194.43 238.51 197.39 233.39C200.35 228.27 210.95 226.39 212.49 220.62C214 215.06 205.79 208 205.79 202Z" fill="#670536"/>
<path d="M142.13 227.16L115 198.44C114.377 197.777 114.042 196.893 114.071 195.984C114.099 195.074 114.487 194.213 115.15 193.59C115.813 192.967 116.697 192.632 117.606 192.661C118.516 192.689 119.377 193.077 120 193.74L141.3 216.3L168.2 177.3C168.444 176.905 168.767 176.563 169.147 176.296C169.528 176.029 169.959 175.842 170.414 175.747C170.869 175.651 171.338 175.649 171.794 175.741C172.25 175.833 172.682 176.016 173.065 176.28C173.448 176.544 173.773 176.883 174.02 177.277C174.268 177.67 174.433 178.11 174.506 178.569C174.578 179.028 174.556 179.497 174.442 179.948C174.328 180.398 174.123 180.821 173.84 181.19L142.13 227.16Z" fill="white"/>
<path d="M72.15 303.88L71.33 304.71L65.69 310.35L59.21 303.88C58.465 303.131 58.0468 302.117 58.0468 301.06C58.0468 300.003 58.465 298.989 59.21 298.24C59.9594 297.495 60.9732 297.077 62.03 297.077C63.0867 297.077 64.1005 297.495 64.85 298.24L65.69 299.07L66.51 298.24C67.2594 297.495 68.2732 297.077 69.33 297.077C70.3867 297.077 71.4005 297.495 72.15 298.24C72.895 298.989 73.3132 300.003 73.3132 301.06C73.3132 302.117 72.895 303.131 72.15 303.88Z" stroke="#263238" stroke-linejoin="round"/>
<path d="M87.88 312.23C92.4364 312.23 96.13 308.536 96.13 303.98C96.13 299.424 92.4364 295.73 87.88 295.73C83.3237 295.73 79.63 299.424 79.63 303.98C79.63 308.536 83.3237 312.23 87.88 312.23Z" stroke="#263238" stroke-linecap="round" stroke-linejoin="round"/>
<path d="M83.06 305.49C83.2652 306.608 83.8644 307.615 84.7487 308.329C85.6331 309.042 86.7441 309.415 87.88 309.38C89.0271 309.465 90.1636 309.11 91.0587 308.387C91.9538 307.665 92.5406 306.629 92.7 305.49H83.06Z" stroke="#263238" stroke-linecap="round" stroke-linejoin="round"/>
<path d="M85.92 302.46C85.92 303.4 85.64 304.16 85.3 304.16C84.96 304.16 84.68 303.4 84.68 302.46C84.68 301.52 84.96 300.75 85.3 300.75C85.64 300.75 85.92 301.51 85.92 302.46Z" fill="#263238"/>
<path d="M90.57 302.46C90.57 303.4 90.29 304.16 89.95 304.16C89.61 304.16 89.33 303.4 89.33 302.46C89.33 301.52 89.61 300.75 89.95 300.75C90.29 300.75 90.57 301.51 90.57 302.46Z" fill="#263238"/>
<path d="M59.38 320.5H116.5" stroke="#263238" stroke-linejoin="round"/>
<path d="M162.33 328H181.67" stroke="#263238" stroke-linejoin="round"/>
<path d="M146.33 328H158.33" stroke="#263238" stroke-linejoin="round"/>
<path d="M98.33 328H141.67" stroke="#263238" stroke-linejoin="round"/>
<path d="M59.38 328H93" stroke="#263238" stroke-linejoin="round"/>
<path d="M132.33 336H170" stroke="#263238" stroke-linejoin="round"/>
<path d="M99 336H127.67" stroke="#263238" stroke-linejoin="round"/>
<path d="M59.38 336H94.33" stroke="#263238" stroke-linejoin="round"/>
<path d="M219.67 344H224.33" stroke="#263238" stroke-linejoin="round"/>
<path d="M185 344H216.33" stroke="#263238" stroke-linejoin="round"/>
<path d="M123.67 344H177" stroke="#263238" stroke-linejoin="round"/>
<path d="M73 344H118.33" stroke="#263238" stroke-linejoin="round"/>
<path d="M59.38 344H67.67" stroke="#263238" stroke-linejoin="round"/>
<path d="M70.87 113.63C76.923 113.63 81.83 108.723 81.83 102.67C81.83 96.6169 76.923 91.71 70.87 91.71C64.817 91.71 59.91 96.6169 59.91 102.67C59.91 108.723 64.817 113.63 70.87 113.63Z" fill="#595959"/>
<path d="M87.31 103.17H125.18" stroke="#263238" stroke-linejoin="round"/>
<path d="M143.59 50.25C145.02 50.25 146.18 49.0904 146.18 47.66C146.18 46.2296 145.02 45.07 143.59 45.07C142.16 45.07 141 46.2296 141 47.66C141 49.0904 142.16 50.25 143.59 50.25Z" fill="#707070"/>
<path d="M67.76 57.58C67.76 60.19 64.83 61.14 64.76 63.13V63.27H67.62V64.15H63.86V63.41C63.86 60.6 66.8 60.06 66.8 57.61C66.8 56.72 66.5 56.25 65.8 56.25C65.1 56.25 64.8 56.76 64.8 57.53V58.3H63.9V57.59C63.9 56.26 64.51 55.38 65.9 55.38C67.29 55.38 67.76 56.25 67.76 57.58Z" fill="white"/>
<path d="M72.52 57.56V57.79C72.5607 58.1616 72.4793 58.5363 72.2881 58.8575C72.0968 59.1787 71.8061 59.4288 71.46 59.57C71.8077 59.7148 72.099 59.9686 72.2902 60.2932C72.4813 60.6178 72.562 60.9956 72.52 61.37V62C72.52 63.33 71.9 64.2 70.52 64.2C69.14 64.2 68.52 63.33 68.52 62V61.41H69.43V62.06C69.43 62.84 69.75 63.32 70.43 63.32C71.11 63.32 71.43 62.86 71.43 61.98V61.31C71.43 60.45 71.07 60.04 70.34 60.02H69.82V59.15H70.39C70.539 59.1527 70.6866 59.1221 70.8223 59.0604C70.9579 58.9988 71.078 58.9076 71.1738 58.7935C71.2697 58.6794 71.3388 58.5454 71.3762 58.4012C71.4136 58.257 71.4183 58.1062 71.39 57.96V57.56C71.39 56.67 71.08 56.21 70.39 56.21C69.7 56.21 69.39 56.69 69.39 57.47V58H68.48V57.6C68.48 56.28 69.1 55.42 70.48 55.42C71.86 55.42 72.52 56.24 72.52 57.56Z" fill="white"/>
<path d="M74.39 58.22V59.42H73.46V58.22H74.39ZM74.39 62.95V64.15H73.46V63L74.39 62.95Z" fill="white"/>
<path d="M76.35 59C76.4765 58.7717 76.6643 58.5832 76.8923 58.456C77.1202 58.3288 77.3792 58.2678 77.64 58.28C78.76 58.28 79.25 59.1 79.25 60.34V62C79.25 63.33 78.62 64.2 77.25 64.2C75.88 64.2 75.31 63.33 75.31 62V61.42H76.21V62.06C76.21 62.84 76.53 63.32 77.21 63.32C77.89 63.32 78.21 62.84 78.21 62.06V60.42C78.21 59.64 77.88 59.16 77.21 59.16C77.0824 59.1518 76.9545 59.1698 76.8342 59.2127C76.7138 59.2557 76.6034 59.3227 76.5098 59.4097C76.4162 59.4968 76.3413 59.602 76.2898 59.719C76.2382 59.8359 76.2111 59.9622 76.21 60.09V60.29H75.3L75.54 55.47H79V56.34H76.49L76.35 59Z" fill="white"/>
<path d="M84.08 57.55V57.71H83.17V57.49C83.17 56.71 82.85 56.25 82.17 56.25C81.49 56.25 81.11 56.72 81.11 57.65V59.65C81.2112 59.3643 81.4025 59.1192 81.6549 58.9515C81.9074 58.7838 82.2074 58.7026 82.51 58.72C83.63 58.72 84.12 59.52 84.12 60.78V62C84.12 63.33 83.47 64.2 82.12 64.2C80.77 64.2 80.12 63.33 80.12 62V57.61C80.12 56.24 80.74 55.38 82.12 55.38C83.5 55.38 84.08 56.22 84.08 57.55ZM81.08 60.8V62.1C81.08 62.88 81.4 63.36 82.08 63.36C82.76 63.36 83.08 62.88 83.08 62.1V60.8C83.08 60.02 82.74 59.55 82.08 59.55C81.42 59.55 81.09 60 81.09 60.8H81.08Z" fill="white"/>
<path d="M178.86 57.93H176.41V64.06H178.86V57.93Z" fill="white"/>
<path d="M182.13 56.7H179.68V64.06H182.13V56.7Z" fill="white"/>
<path d="M185.4 55.83H182.95V64.06H185.4V55.83Z" fill="white"/>
<path d="M188.67 54.32H186.22V64.06H188.67V54.32Z" fill="white"/>
<path d="M219 63.89H204.3V54.89H219V63.89ZM205.1 63.08H218.18V55.72H205.11L205.1 63.08Z" fill="white"/>
<path d="M214.1 56.61H206.34V62.19H214.1V56.61Z" fill="white"/>
<path d="M220.35 58.34H218.5V60.46H220.35V58.34Z" fill="white"/>
<path d="M198.9 61.94C198.802 61.9367 198.705 61.9093 198.62 61.86C195.62 60.08 193.62 61.73 193.57 61.8C193.518 61.8585 193.455 61.9053 193.383 61.9373C193.312 61.9694 193.235 61.9859 193.157 61.9857C193.079 61.9856 193.002 61.9688 192.931 61.9366C192.86 61.9043 192.796 61.8573 192.745 61.7986C192.693 61.7399 192.655 61.671 192.632 61.5963C192.609 61.5216 192.602 61.443 192.612 61.3655C192.622 61.2881 192.649 61.2136 192.69 61.1472C192.731 61.0807 192.785 61.0237 192.85 60.98C192.95 60.88 195.48 58.72 199.19 60.92C199.314 60.9948 199.404 61.1155 199.439 61.256C199.475 61.3964 199.453 61.5452 199.38 61.67C199.329 61.7519 199.259 61.8196 199.175 61.8668C199.091 61.914 198.996 61.9392 198.9 61.94Z" fill="white"/>
<path d="M200 60.09C199.901 60.0917 199.803 60.0639 199.72 60.01C195.39 57.44 192.48 59.93 192.45 59.95C192.397 59.9993 192.335 60.0373 192.267 60.0615C192.199 60.0858 192.126 60.096 192.054 60.0913C191.982 60.0866 191.912 60.0672 191.847 60.0343C191.783 60.0014 191.726 59.9557 191.68 59.9C191.632 59.8465 191.595 59.784 191.572 59.716C191.548 59.6481 191.539 59.5762 191.543 59.5045C191.548 59.4328 191.567 59.3627 191.599 59.2984C191.631 59.2341 191.676 59.1769 191.73 59.13C191.73 59.13 195.27 56.13 200.28 59.07C200.342 59.1061 200.397 59.1543 200.441 59.2118C200.484 59.2694 200.516 59.335 200.533 59.4049C200.551 59.4748 200.554 59.5476 200.544 59.6189C200.533 59.6902 200.508 59.7585 200.47 59.82C200.423 59.9031 200.355 59.9721 200.272 60.0196C200.189 60.0672 200.095 60.0915 200 60.09Z" fill="white"/>
<path d="M201 58C200.902 58.003 200.805 57.9788 200.72 57.93C195.23 54.67 191.59 57.73 191.44 57.87C191.33 57.9668 191.186 58.0159 191.04 58.0065C190.893 57.9972 190.757 57.9301 190.66 57.82C190.563 57.7099 190.514 57.5659 190.523 57.4197C190.533 57.2734 190.6 57.1368 190.71 57.04C190.76 57.04 195.09 53.3 201.28 56.98C201.404 57.0548 201.494 57.1755 201.529 57.316C201.565 57.4564 201.543 57.6052 201.47 57.73C201.422 57.8124 201.354 57.8808 201.271 57.9282C201.189 57.9757 201.095 58.0004 201 58Z" fill="white"/>
<path d="M197.25 62.86C197.25 63.133 197.169 63.3998 197.017 63.6267C196.866 63.8536 196.65 64.0305 196.398 64.135C196.146 64.2394 195.868 64.2667 195.601 64.2135C195.333 64.1602 195.087 64.0288 194.894 63.8358C194.701 63.6428 194.57 63.3969 194.517 63.1292C194.463 62.8615 194.491 62.5841 194.595 62.3319C194.699 62.0797 194.876 61.8642 195.103 61.7126C195.33 61.5609 195.597 61.48 195.87 61.48C196.236 61.48 196.587 61.6254 196.846 61.8842C197.105 62.143 197.25 62.494 197.25 62.86Z" fill="white"/>
<path d="M451.55 273.48C451.55 273.48 439.6 266.84 438.72 281.89C437.84 296.94 435.62 421.78 435.62 421.78" stroke="#263238" stroke-width="2" stroke-linecap="round" stroke-linejoin="round"/>
<path d="M432.51 283.21C432.51 283.21 442.26 331.92 437.83 420.45" stroke="#263238" stroke-width="2" stroke-linecap="round" stroke-linejoin="round"/>
<path d="M442.09 276.51C442.09 276.51 437.52 279.44 434.92 276.08C432.32 272.72 436.68 266.59 432.83 263.96C428.98 261.33 422.35 265.35 422.35 265.35C422.35 265.35 427.46 266.85 427.3 269.64C427.14 272.43 424.67 273.48 424.3 272.26C423.93 271.04 421.54 264.9 417.39 267.45C416.194 268.157 415.154 269.1 414.332 270.22C413.511 271.341 412.925 272.617 412.61 273.97C412.61 273.97 422.26 272.97 422.85 276.57C423.44 280.17 418.85 275.94 414.9 275.71C410.95 275.48 407.29 276.06 407.54 278.47C407.634 280.604 407.51 282.741 407.17 284.85C409.346 283.038 412.099 282.066 414.93 282.11C419.31 282.36 419.14 285.11 415.16 284.92C411.18 284.73 407.75 288.48 407.75 288.48C407.75 288.48 411.38 294.69 416 297.76C420.62 300.83 422.28 299.76 422.82 297.37C423.36 294.98 422.12 288.93 424.91 289.09C427.7 289.25 420.29 299.62 423.85 300.23C427.41 300.84 430.28 299.81 431.21 297.46L432.15 295.12C432.15 295.12 430.91 289.05 431.45 286.68C431.99 284.31 432.65 286.75 433.28 289.59C433.91 292.43 434.28 299.24 435.53 298.92C436.78 298.6 440.64 293.62 441.53 291.67C442.42 289.72 436.4 283.77 436.47 282.58C436.54 281.39 441.21 283.66 441.93 284.9C442.458 285.834 442.935 286.795 443.36 287.78C443.36 287.78 446.27 285.95 446.2 280.35C446.13 274.75 442.09 276.51 442.09 276.51Z" fill="#670536"/>
<path opacity="0.3" d="M442.09 276.51C442.09 276.51 437.52 279.44 434.92 276.08C432.32 272.72 436.68 266.59 432.83 263.96C428.98 261.33 422.35 265.35 422.35 265.35C422.35 265.35 427.46 266.85 427.3 269.64C427.14 272.43 424.67 273.48 424.3 272.26C423.93 271.04 421.54 264.9 417.39 267.45C416.194 268.157 415.154 269.1 414.332 270.22C413.511 271.341 412.925 272.617 412.61 273.97C412.61 273.97 422.26 272.97 422.85 276.57C423.44 280.17 418.85 275.94 414.9 275.71C410.95 275.48 407.29 276.06 407.54 278.47C407.634 280.604 407.51 282.741 407.17 284.85C409.346 283.038 412.099 282.066 414.93 282.11C419.31 282.36 419.14 285.11 415.16 284.92C411.18 284.73 407.75 288.48 407.75 288.48C407.75 288.48 411.38 294.69 416 297.76C420.62 300.83 422.28 299.76 422.82 297.37C423.36 294.98 422.12 288.93 424.91 289.09C427.7 289.25 420.29 299.62 423.85 300.23C427.41 300.84 430.28 299.81 431.21 297.46L432.15 295.12C432.15 295.12 430.91 289.05 431.45 286.68C431.99 284.31 432.65 286.75 433.28 289.59C433.91 292.43 434.28 299.24 435.53 298.92C436.78 298.6 440.64 293.62 441.53 291.67C442.42 289.72 436.4 283.77 436.47 282.58C436.54 281.39 441.21 283.66 441.93 284.9C442.458 285.834 442.935 286.795 443.36 287.78C443.36 287.78 446.27 285.95 446.2 280.35C446.13 274.75 442.09 276.51 442.09 276.51Z" fill="#263238"/>
<path d="M418.91 289.64C421.91 285.96 426.29 280.97 429.97 278.59" stroke="#263238" stroke-linecap="round" stroke-linejoin="round"/>
<path d="M415.46 294.13C415.46 294.13 416.22 293.07 417.46 291.47" stroke="#263238" stroke-linecap="round" stroke-linejoin="round"/>
<path d="M431.91 279.51C431.91 279.51 436.34 285.77 437.16 292.21" stroke="#263238" stroke-linecap="round" stroke-linejoin="round"/>
<path d="M426.9 283.21C426.9 283.21 428.14 282.48 427.67 290.45" stroke="#263238" stroke-linecap="round" stroke-linejoin="round"/>
<path d="M430.13 275.8C430.13 275.8 432.67 273.55 431.33 269.07" stroke="#263238" stroke-linecap="round" stroke-linejoin="round"/>
<path d="M426.71 279.6L424.91 276.29" stroke="#263238" stroke-linecap="round" stroke-linejoin="round"/>
<path d="M422.91 283C422.91 283 417.17 278.67 413.58 278.45" stroke="#263238" stroke-linecap="round" stroke-linejoin="round"/>
<path d="M458.38 264.7C458.38 264.7 458.2 271.27 453.07 271.59C447.94 271.91 444.76 263.36 439.51 265.42C434.26 267.48 433.76 276.85 433.76 276.85C433.76 276.85 438.76 272.76 441.42 274.85C444.08 276.94 443.48 280.1 442.04 279.6C440.6 279.1 432.78 277.35 432.51 283.24C432.402 284.919 432.635 286.602 433.195 288.189C433.755 289.775 434.631 291.232 435.77 292.47C435.77 292.47 441.33 282.1 445.36 283.99C449.39 285.88 442.03 287.53 439.08 291.36C436.13 295.19 434.24 299.22 436.83 300.61C439.039 301.962 441.106 303.533 443 305.3C442.666 301.889 443.568 298.472 445.54 295.67C448.79 291.45 451.47 293.52 448.54 297.35C445.61 301.18 447.05 307.19 447.05 307.19C447.05 307.19 455.75 307.79 461.97 305.26C468.19 302.73 468.23 300.32 466.22 298.16C464.21 296 457.3 293.11 459.36 290.43C461.42 287.75 466.75 302.23 469.79 299.08C472.83 295.93 473.79 292.36 472.04 289.83L470.33 287.29C470.33 287.29 463.41 284.39 461.4 282.24C459.39 280.09 462.29 281.09 465.56 282.39C468.83 283.69 475.93 287.94 476.43 286.5C476.93 285.06 474.61 277.77 473.29 275.5C471.97 273.23 461.88 275.25 460.73 274.37C459.58 273.49 465.04 270.37 466.78 270.48C468.075 270.592 469.364 270.772 470.64 271.02C470.64 271.02 470.79 266.86 465.14 263.11C459.49 259.36 458.38 264.7 458.38 264.7Z" fill="#670536"/>
<path opacity="0.2" d="M458.38 264.7C458.38 264.7 458.2 271.27 453.07 271.59C447.94 271.91 444.76 263.36 439.51 265.42C434.26 267.48 433.76 276.85 433.76 276.85C433.76 276.85 438.76 272.76 441.42 274.85C444.08 276.94 443.48 280.1 442.04 279.6C440.6 279.1 432.78 277.35 432.51 283.24C432.402 284.919 432.635 286.602 433.195 288.189C433.755 289.775 434.631 291.232 435.77 292.47C435.77 292.47 441.33 282.1 445.36 283.99C449.39 285.88 442.03 287.53 439.08 291.36C436.13 295.19 434.24 299.22 436.83 300.61C439.039 301.962 441.106 303.533 443 305.3C442.666 301.889 443.568 298.472 445.54 295.67C448.79 291.45 451.47 293.52 448.54 297.35C445.61 301.18 447.05 307.19 447.05 307.19C447.05 307.19 455.75 307.79 461.97 305.26C468.19 302.73 468.23 300.32 466.22 298.16C464.21 296 457.3 293.11 459.36 290.43C461.42 287.75 466.75 302.23 469.79 299.08C472.83 295.93 473.79 292.36 472.04 289.83L470.33 287.29C470.33 287.29 463.41 284.39 461.4 282.24C459.39 280.09 462.29 281.09 465.56 282.39C468.83 283.69 475.93 287.94 476.43 286.5C476.93 285.06 474.61 277.77 473.29 275.5C471.97 273.23 461.88 275.25 460.73 274.37C459.58 273.49 465.04 270.37 466.78 270.48C468.075 270.592 469.364 270.772 470.64 271.02C470.64 271.02 470.79 266.86 465.14 263.11C459.49 259.36 458.38 264.7 458.38 264.7Z" fill="#263238"/>
<path d="M455.74 296.85C454.08 291.36 452.08 283.56 452.21 278.25" stroke="#263238" stroke-linecap="round" stroke-linejoin="round"/>
<path d="M457.87 303.37C457.87 303.37 457.33 301.88 456.58 299.55" stroke="#263238" stroke-linecap="round" stroke-linejoin="round"/>
<path d="M454.45 276.93C454.45 276.93 463.74 276.76 470.75 280.33" stroke="#263238" stroke-linecap="round" stroke-linejoin="round"/>
<path d="M454.74 284.47C454.74 284.47 454.86 282.73 462.52 288.64" stroke="#263238" stroke-linecap="round" stroke-linejoin="round"/>
<path d="M449.53 276.19C449.53 276.19 449 272.12 443.61 270.4" stroke="#263238" stroke-linecap="round" stroke-linejoin="round"/>
<path d="M451 282.2L446.46 281.75" stroke="#263238" stroke-linecap="round" stroke-linejoin="round"/>
<path d="M451.79 288.3C451.79 288.3 443.53 291.1 440.87 294.54" stroke="#263238" stroke-linecap="round" stroke-linejoin="round"/>
<path d="M403.31 308.45C403.31 308.45 429.42 352.73 429 419.57" stroke="#263238" stroke-width="2" stroke-linecap="round" stroke-linejoin="round"/>
<path d="M435.51 303.89C435.51 303.89 434.68 311.45 428.73 311.34C422.78 311.23 419.92 301.06 413.67 302.93C407.42 304.8 405.94 315.58 405.94 315.58C405.94 315.58 412.08 311.33 414.94 313.97C417.8 316.61 416.82 320.22 415.2 319.5C413.58 318.78 404.74 316.03 403.87 322.81C403.581 324.744 403.688 326.716 404.185 328.607C404.682 330.498 405.558 332.268 406.76 333.81C406.76 333.81 414.15 322.37 418.63 324.93C423.11 327.49 414.44 328.69 410.68 332.83C406.92 336.97 404.35 341.45 407.21 343.3C409.614 345.071 411.832 347.082 413.83 349.3C413.83 349.3 413.53 342.97 417.68 338.42C421.83 333.87 424.68 336.5 420.95 340.64C417.22 344.78 418.31 351.86 418.31 351.86C418.31 351.86 428.31 353.37 435.71 351.04C443.11 348.71 443.39 345.92 441.29 343.25C439.19 340.58 431.46 336.58 434.1 333.68C436.74 330.78 441.51 347.99 445.31 344.68C449.11 341.37 450.51 337.3 448.78 334.22L447.05 331.13C447.05 331.13 439.33 327.13 437.23 324.46C435.13 321.79 438.36 323.22 442.01 325.03C445.66 326.84 453.45 332.41 454.17 330.79C454.89 329.17 452.89 320.55 451.58 317.84C450.27 315.13 438.44 316.48 437.19 315.35C435.94 314.22 442.54 311.13 444.54 311.43C446.54 311.73 448.94 312.43 448.94 312.43C448.94 312.43 449.51 307.65 443.34 302.79C437.17 297.93 435.51 303.89 435.51 303.89Z" fill="#670536"/>
<path opacity="0.3" d="M435.51 303.89C435.51 303.89 434.68 311.45 428.73 311.34C422.78 311.23 419.92 301.06 413.67 302.93C407.42 304.8 405.94 315.58 405.94 315.58C405.94 315.58 412.08 311.33 414.94 313.97C417.8 316.61 416.82 320.22 415.2 319.5C413.58 318.78 404.74 316.03 403.87 322.81C403.581 324.744 403.688 326.716 404.185 328.607C404.682 330.498 405.558 332.268 406.76 333.81C406.76 333.81 414.15 322.37 418.63 324.93C423.11 327.49 414.44 328.69 410.68 332.83C406.92 336.97 404.35 341.45 407.21 343.3C409.614 345.071 411.832 347.082 413.83 349.3C413.83 349.3 413.53 342.97 417.68 338.42C421.83 333.87 424.68 336.5 420.95 340.64C417.22 344.78 418.31 351.86 418.31 351.86C418.31 351.86 428.31 353.37 435.71 351.04C443.11 348.71 443.39 345.92 441.29 343.25C439.19 340.58 431.46 336.58 434.1 333.68C436.74 330.78 441.51 347.99 445.31 344.68C449.11 341.37 450.51 337.3 448.78 334.22L447.05 331.13C447.05 331.13 439.33 327.13 437.23 324.46C435.13 321.79 438.36 323.22 442.01 325.03C445.66 326.84 453.45 332.41 454.17 330.79C454.89 329.17 452.89 320.55 451.58 317.84C450.27 315.13 438.44 316.48 437.19 315.35C435.94 314.22 442.54 311.13 444.54 311.43C446.54 311.73 448.94 312.43 448.94 312.43C448.94 312.43 449.51 307.65 443.34 302.79C437.17 297.93 435.51 303.89 435.51 303.89Z" fill="#263238"/>
<path d="M429.42 340.74C428.03 334.25 426.42 325.06 427.1 318.94" stroke="#263238" stroke-linecap="round" stroke-linejoin="round"/>
<path d="M431.27 348.47C431.27 348.47 430.78 346.69 430.14 343.94" stroke="#263238" stroke-linecap="round" stroke-linejoin="round"/>
<path d="M429.82 317.63C429.82 317.63 440.55 318.31 448.3 323.1" stroke="#263238" stroke-linecap="round" stroke-linejoin="round"/>
<path d="M429.43 326.36C429.43 326.36 429.74 324.36 438.02 331.9" stroke="#263238" stroke-linecap="round" stroke-linejoin="round"/>
<path d="M424.2 316.31C424.2 316.31 423.98 311.56 417.92 309.07" stroke="#263238" stroke-linecap="round" stroke-linejoin="round"/>
<path d="M425.33 323.39L420.14 322.44" stroke="#263238" stroke-linecap="round" stroke-linejoin="round"/>
<path d="M425.67 330.5C425.67 330.5 415.88 332.95 412.49 336.67" stroke="#263238" stroke-linecap="round" stroke-linejoin="round"/>
<path d="M435.51 367.16C435.51 367.16 434.68 374.73 428.73 374.62C422.78 374.51 419.92 364.33 413.67 366.21C407.42 368.09 405.94 378.86 405.94 378.86C405.94 378.86 412.08 374.61 414.94 377.25C417.8 379.89 416.82 383.5 415.2 382.78C413.58 382.06 404.74 379.31 403.87 386.09C403.581 388.024 403.688 389.996 404.185 391.887C404.682 393.778 405.558 395.548 406.76 397.09C406.76 397.09 414.15 385.65 418.63 388.21C423.11 390.77 414.44 391.97 410.68 396.11C406.92 400.25 404.35 404.73 407.21 406.58C409.616 408.348 411.834 410.359 413.83 412.58C413.83 412.58 413.53 406.25 417.68 401.7C421.83 397.15 424.68 399.78 420.95 403.92C417.22 408.06 418.31 415.14 418.31 415.14C418.31 415.14 428.31 416.65 435.71 414.32C443.11 411.99 443.39 409.2 441.29 406.53C439.19 403.86 431.46 399.86 434.1 396.96C436.74 394.06 441.51 411.27 445.31 407.96C449.11 404.65 450.51 400.58 448.78 397.49L447.05 394.41C447.05 394.41 439.33 390.41 437.23 387.74C435.13 385.07 438.36 386.49 442.01 388.3C445.66 390.11 453.45 395.69 454.17 394.07C454.89 392.45 452.89 383.83 451.58 381.12C450.27 378.41 438.44 379.75 437.19 378.62C435.94 377.49 442.54 374.41 444.54 374.71C446.023 374.966 447.492 375.3 448.94 375.71C448.94 375.71 449.51 370.93 443.34 366.07C437.17 361.21 435.51 367.16 435.51 367.16Z" fill="#670536"/>
<path opacity="0.3" d="M435.51 367.16C435.51 367.16 434.68 374.73 428.73 374.62C422.78 374.51 419.92 364.33 413.67 366.21C407.42 368.09 405.94 378.86 405.94 378.86C405.94 378.86 412.08 374.61 414.94 377.25C417.8 379.89 416.82 383.5 415.2 382.78C413.58 382.06 404.74 379.31 403.87 386.09C403.581 388.024 403.688 389.996 404.185 391.887C404.682 393.778 405.558 395.548 406.76 397.09C406.76 397.09 414.15 385.65 418.63 388.21C423.11 390.77 414.44 391.97 410.68 396.11C406.92 400.25 404.35 404.73 407.21 406.58C409.616 408.348 411.834 410.359 413.83 412.58C413.83 412.58 413.53 406.25 417.68 401.7C421.83 397.15 424.68 399.78 420.95 403.92C417.22 408.06 418.31 415.14 418.31 415.14C418.31 415.14 428.31 416.65 435.71 414.32C443.11 411.99 443.39 409.2 441.29 406.53C439.19 403.86 431.46 399.86 434.1 396.96C436.74 394.06 441.51 411.27 445.31 407.96C449.11 404.65 450.51 400.58 448.78 397.49L447.05 394.41C447.05 394.41 439.33 390.41 437.23 387.74C435.13 385.07 438.36 386.49 442.01 388.3C445.66 390.11 453.45 395.69 454.17 394.07C454.89 392.45 452.89 383.83 451.58 381.12C450.27 378.41 438.44 379.75 437.19 378.62C435.94 377.49 442.54 374.41 444.54 374.71C446.023 374.966 447.492 375.3 448.94 375.71C448.94 375.71 449.51 370.93 443.34 366.07C437.17 361.21 435.51 367.16 435.51 367.16Z" fill="#263238"/>
<path d="M429.42 404C428.03 397.5 426.42 388.32 427.1 382.2" stroke="#263238" stroke-linecap="round" stroke-linejoin="round"/>
<path d="M431.27 411.75C431.27 411.75 430.78 409.97 430.14 407.21" stroke="#263238" stroke-linecap="round" stroke-linejoin="round"/>
<path d="M429.82 380.91C429.82 380.91 440.55 381.59 448.3 386.37" stroke="#263238" stroke-linecap="round" stroke-linejoin="round"/>
<path d="M429.43 389.64C429.43 389.64 429.74 387.64 438.02 395.18" stroke="#263238" stroke-linecap="round" stroke-linejoin="round"/>
<path d="M424.2 379.58C424.2 379.58 423.98 374.84 417.92 372.35" stroke="#263238" stroke-linecap="round" stroke-linejoin="round"/>
<path d="M425.33 386.66L420.14 385.72" stroke="#263238" stroke-linecap="round" stroke-linejoin="round"/>
<path d="M425.67 393.78C425.67 393.78 415.88 396.22 412.49 399.95" stroke="#263238" stroke-linecap="round" stroke-linejoin="round"/>
<path d="M413.49 361.12C413.49 361.12 430.31 401 432.08 420L428.54 329.24" stroke="#263238" stroke-width="2" stroke-linecap="round" stroke-linejoin="round"/>
<path d="M454.21 351.83C432.08 347.83 432.08 420.01 432.08 420.01" stroke="#263238" stroke-width="2" stroke-linecap="round" stroke-linejoin="round"/>
<path d="M434.73 419.57C434.73 419.57 421.9 299.15 459.08 299.15" stroke="#263238" stroke-width="2" stroke-linecap="round" stroke-linejoin="round"/>
<path d="M445.78 349.14C442.78 345.74 436.33 345.74 432.55 354.43C428.77 363.12 432.17 361.61 432.17 361.61C432.17 361.61 439.35 359.34 443.89 357.83C448.43 356.32 454.47 352.54 454.89 354.83C455.31 357.12 451.89 359.36 447.71 360.12C443.53 360.88 432.59 363.9 433.71 366.12C434.83 368.34 437.49 375.18 437.49 375.18C440.723 372.44 444.133 369.918 447.7 367.63C452.61 364.63 455.63 365.74 452.99 369.14C450.35 372.54 442.78 376.32 444.3 380.85C445.82 385.38 454.88 391.06 454.88 391.06C454.88 391.06 456.01 381.61 458.66 378.59C461.31 375.57 461.3 378.96 460.55 384.25C460.17 386.504 459.916 388.778 459.79 391.06L470.37 394.84C472.1 392.204 473.994 389.679 476.04 387.28L477.93 385.39C477.93 385.39 469.61 378.21 469.24 373.67C468.87 369.13 474.91 373.67 476.79 374.43C478.67 375.19 481.71 380.48 481.71 380.48C481.71 380.48 483.6 371.78 483.97 368.76L484.35 365.76C484.35 365.76 476.42 362.76 473.35 362.76C470.28 362.76 468.82 365.03 468.82 362.01C468.82 358.99 471.82 357.1 475.24 357.47C478.318 357.986 481.351 358.745 484.31 359.74C484.31 359.74 486.58 357.85 485.82 352.18C485.06 346.51 483.18 346.52 478.64 348.03C474.1 349.54 471.09 352.94 467.69 352.94C464.29 352.94 466.17 348.78 468.44 347.65C470.71 346.52 476.38 344.25 477.51 343.87C478.64 343.49 471.51 338.2 467.69 337.45C463.87 336.7 459.01 339.35 459.37 343.11C460.14 351 448.8 352.54 445.78 349.14Z" fill="#670536"/>
<path d="M470.1 388.05C470.22 389.19 470.3 390.33 470.34 391.46" stroke="#263238" stroke-linecap="round" stroke-linejoin="round"/>
<path d="M462.51 360.92C465.836 368.405 468.227 376.271 469.63 384.34" stroke="#263238" stroke-linecap="round" stroke-linejoin="round"/>
<path d="M461.15 357.89C459.28 353.89 457.87 351.41 457.87 351.41C459.933 350.435 461.646 348.85 462.78 346.87C463.662 345.081 464.958 343.528 466.56 342.34" stroke="#263238" stroke-linecap="round" stroke-linejoin="round"/>
<path d="M444.64 364.26C444.64 364.26 458.25 358.59 458.25 359.72" stroke="#263238" stroke-linecap="round" stroke-linejoin="round"/>
<path d="M465.81 357.08C465.81 357.08 471.81 354.08 477.14 354.08" stroke="#263238" stroke-linecap="round" stroke-linejoin="round"/>
<path d="M463.54 366.15C460.918 368.303 458.513 370.708 456.36 373.33C454.15 375.93 452.365 378.863 451.07 382.02" stroke="#263238" stroke-linecap="round" stroke-linejoin="round"/>
<path d="M467.7 367.66C467.7 367.66 475.63 365.39 479.79 369.17" stroke="#263238" stroke-linecap="round" stroke-linejoin="round"/>
<path d="M482.07 316.6C477.96 314.16 473.41 314.11 471.18 311.54C468.95 308.97 473.32 307.67 475.67 308.64C478.02 309.61 483.44 312.41 484.47 313.01C485.5 313.61 484.78 304.73 482.88 301.38C480.98 298.03 475.75 296.09 473.15 298.82C467.65 304.6 459.07 297.03 459.66 292.51C460.25 287.99 456 283.15 447 286C438 288.85 441.33 290.43 441.33 290.43C441.33 290.43 447.74 294.36 451.86 296.79C455.98 299.22 462.79 301.32 461.33 303.09C459.87 304.86 455.92 303.78 452.62 301.09C449.32 298.4 439.86 292.16 438.89 294.5C437.92 296.84 434.52 303.3 434.52 303.3C438.709 303.942 442.852 304.861 446.92 306.05C452.42 307.78 453.55 310.8 449.24 311.05C444.93 311.3 437.13 308.05 434.7 312.17C432.27 316.29 433.93 326.85 433.93 326.85C433.93 326.85 441.81 321.51 445.83 321.53C449.85 321.55 447.27 323.77 442.78 326.67C440.833 327.862 438.953 329.16 437.15 330.56L441.24 341C444.362 340.574 447.509 340.347 450.66 340.32L453.32 340.51C453.32 340.51 453.32 329.51 456.47 326.27C459.62 323.03 460.19 330.55 460.86 332.47C461.53 334.39 459.51 340.14 459.51 340.14C459.51 340.14 467.31 335.87 469.84 334.14L472.37 332.44C472.37 332.44 469.45 324.44 467.47 322.18C465.49 319.92 462.79 320.24 465.07 318.26C467.35 316.28 470.76 317.33 472.71 320.14C474.337 322.805 475.751 325.593 476.94 328.48C476.94 328.48 479.85 328.95 483.64 324.66C487.43 320.37 486.18 319 482.07 316.6ZM446.31 328.69C443.31 327.18 450.46 324.16 450.46 324.16C453.11 323.78 449.33 330.2 446.31 328.69ZM451.4 314.58C450.11 313.94 453.98 312.65 453.98 312.65C459.56 313.72 452.69 315.23 451.4 314.58Z" fill="#670536"/>
<path d="M446.23 336.39C445.44 337.22 444.63 338.03 443.8 338.81" stroke="#263238" stroke-linecap="round" stroke-linejoin="round"/>
<path d="M461.74 312.87C458.266 320.283 453.9 327.244 448.74 333.6" stroke="#263238" stroke-linecap="round" stroke-linejoin="round"/>
<path d="M463.13 309.86C464.95 305.8 465.88 303.13 465.88 303.13C467.966 304.049 470.283 304.307 472.52 303.87C474.449 303.363 476.472 303.322 478.42 303.75" stroke="#263238" stroke-linecap="round" stroke-linejoin="round"/>
<path d="M447.5 301.57C447.5 301.57 460.7 308.12 459.85 308.87" stroke="#263238" stroke-linecap="round" stroke-linejoin="round"/>
<path d="M466.8 312.84C466.8 312.84 473.04 315.42 476.51 319.42" stroke="#263238" stroke-linecap="round" stroke-linejoin="round"/>
<path d="M458.46 317.07C455.114 316.506 451.722 316.268 448.33 316.36C444.928 316.402 441.554 316.976 438.33 318.06" stroke="#263238" stroke-linecap="round" stroke-linejoin="round"/>
<path d="M460.05 321.2C460.05 321.2 466.96 325.71 466.83 331.33" stroke="#263238" stroke-linecap="round" stroke-linejoin="round"/>
<path d="M423.35 369C420.04 367 416.35 367 414.58 364.93C412.81 362.86 416.31 361.82 418.2 362.6C420.09 363.38 424.45 365.6 425.28 366.12C426.11 366.64 425.53 359.45 424 356.76C422.47 354.07 418.26 352.49 416.17 354.69C411.74 359.34 404.84 353.25 405.32 349.62C405.8 345.99 402.4 342.08 395.12 344.37C387.84 346.66 390.56 347.93 390.56 347.93C390.56 347.93 395.73 351.1 399.04 353.05C402.35 355 407.83 356.69 406.66 358.12C405.49 359.55 402.31 358.67 399.66 356.55C397.01 354.43 389.39 349.35 388.66 351.24C387.93 353.13 385.14 358.32 385.14 358.32C388.519 358.835 391.859 359.573 395.14 360.53C399.57 361.92 400.47 364.36 397.01 364.53C393.55 364.7 387.27 362.11 385.31 365.43C383.35 368.75 384.69 377.24 384.69 377.24C384.69 377.24 391.03 372.94 394.26 372.96C397.49 372.98 395.43 374.76 391.81 377.09C390.246 378.053 388.734 379.098 387.28 380.22L390.57 388.65C393.083 388.308 395.614 388.124 398.15 388.1L400.3 388.26C400.3 388.26 400.3 379.42 402.83 376.79C405.36 374.16 405.83 380.24 406.36 381.79C406.89 383.34 405.27 387.96 405.27 387.96C405.27 387.96 411.55 384.52 413.59 383.16L415.59 381.79C415.59 381.79 413.24 375.38 411.64 373.54C410.04 371.7 407.87 371.98 409.71 370.38C411.55 368.78 414.29 369.63 415.85 371.9C417.165 374.038 418.305 376.279 419.26 378.6C419.26 378.6 421.61 378.98 424.65 375.53C427.69 372.08 426.66 370.92 423.35 369ZM394.57 378.73C392.14 377.52 397.91 375.08 397.91 375.08C400 374.74 397 379.91 394.57 378.69V378.73ZM398.67 367.38C397.67 366.86 400.74 365.82 400.74 365.82C405.23 366.65 399.7 367.86 398.67 367.34V367.38Z" fill="#670536"/>
<path d="M394.5 384.89C393.87 385.56 393.22 386.21 392.55 386.83" stroke="#263238" stroke-linecap="round" stroke-linejoin="round"/>
<path d="M407 366C404.201 371.967 400.681 377.569 396.52 382.68" stroke="#263238" stroke-linecap="round" stroke-linejoin="round"/>
<path d="M408.11 363.53C409.57 360.27 410.32 358.12 410.32 358.12C412.001 358.858 413.868 359.064 415.67 358.71C417.221 358.306 418.845 358.275 420.41 358.62" stroke="#263238" stroke-linecap="round" stroke-linejoin="round"/>
<path d="M395.53 356.86C395.53 356.86 406.15 362.14 405.46 362.74" stroke="#263238" stroke-linecap="round" stroke-linejoin="round"/>
<path d="M411.06 365.93C411.06 365.93 416.06 368.01 418.88 371.23" stroke="#263238" stroke-linecap="round" stroke-linejoin="round"/>
<path d="M404.35 369.34C401.658 368.886 398.929 368.695 396.2 368.77C393.455 368.798 390.731 369.26 388.13 370.14" stroke="#263238" stroke-linecap="round" stroke-linejoin="round"/>
<path d="M405.63 372.67C405.63 372.67 411.19 376.29 411.09 380.81" stroke="#263238" stroke-linecap="round" stroke-linejoin="round"/>
<path d="M409.85 306.56C409.85 306.56 405.69 309.56 403.05 306.56C400.41 303.56 404.18 297.49 400.4 295.22C396.62 292.95 390.58 297.11 390.58 297.11C390.58 297.11 395.49 298.24 395.49 300.89C395.49 303.54 393.22 304.67 392.84 303.53C392.46 302.39 389.84 296.73 386.04 299.38C384.948 300.113 384.017 301.06 383.302 302.164C382.587 303.267 382.103 304.504 381.88 305.8C381.88 305.8 390.95 304.29 391.71 307.69C392.47 311.09 387.93 307.31 384.15 307.31C380.37 307.31 376.97 308.07 377.35 310.31C377.556 312.321 377.556 314.349 377.35 316.36C379.309 314.535 381.855 313.471 384.53 313.36C388.69 313.36 388.69 316 384.91 316C381.13 316 378.11 319.78 378.11 319.78C378.11 319.78 381.88 325.45 386.42 328.1C390.96 330.75 392.47 329.61 392.84 327.34C393.21 325.07 391.71 319.4 394.36 319.4C397.01 319.4 390.58 329.61 394 330C397.42 330.39 400 329.24 400.8 327L401.56 324.73C401.56 324.73 400 319 400.4 316.76C400.8 314.52 401.54 316.76 402.29 319.4C403.04 322.04 403.8 328.47 404.94 328.1C406.08 327.73 409.47 322.81 410.23 320.92C410.99 319.03 404.94 313.74 404.94 312.6C404.94 311.46 409.47 313.36 410.23 314.49C410.99 315.62 411.74 317.14 411.74 317.14C411.74 317.14 414.38 315.25 414.01 309.96C413.64 304.67 409.85 306.56 409.85 306.56Z" fill="#670536"/>
<path d="M388.68 320.26C391.29 316.61 395.17 311.66 398.51 309.2" stroke="#263238" stroke-linecap="round" stroke-linejoin="round"/>
<path d="M385.66 324.69C385.66 324.69 386.33 323.69 387.41 322.07" stroke="#263238" stroke-linecap="round" stroke-linejoin="round"/>
<path d="M400.4 310C400.4 310 404.94 315.67 406.07 321.71" stroke="#263238" stroke-linecap="round" stroke-linejoin="round"/>
<path d="M395.87 313.74C395.87 313.74 397 312.98 397 320.54" stroke="#263238" stroke-linecap="round" stroke-linejoin="round"/>
<path d="M398.51 306.56C398.51 306.56 400.78 304.29 399.27 300.13" stroke="#263238" stroke-linecap="round" stroke-linejoin="round"/>
<path d="M395.49 310.33L393.6 307.31" stroke="#263238" stroke-linecap="round" stroke-linejoin="round"/>
<path d="M392.09 313.74C392.09 313.74 386.42 310 383 310" stroke="#263238" stroke-linecap="round" stroke-linejoin="round"/>
<path d="M446.68 386.87C446.68 386.87 442.52 389.87 439.87 386.87C437.22 383.87 441.01 377.8 437.23 375.53C433.45 373.26 427.4 377.42 427.4 377.42C427.4 377.42 432.32 378.55 432.32 381.2C432.32 383.85 430.05 384.98 429.67 383.84C429.29 382.7 426.67 377.04 422.87 379.69C421.778 380.423 420.847 381.37 420.132 382.474C419.417 383.577 418.933 384.814 418.71 386.11C418.71 386.11 427.78 384.6 428.54 388C429.3 391.4 424.76 387.62 420.98 387.62C417.2 387.62 413.8 388.38 414.18 390.62C414.384 392.615 414.384 394.625 414.18 396.62C416.139 394.795 418.685 393.731 421.36 393.62C425.51 393.62 425.51 396.26 421.74 396.26C417.97 396.26 414.93 400.04 414.93 400.04C414.93 400.04 418.71 405.71 423.25 408.36C427.79 411.01 429.25 409.87 429.67 407.6C430.09 405.33 428.54 399.67 431.18 399.67C433.82 399.67 427.4 409.87 430.8 410.25C434.2 410.63 436.85 409.49 437.61 407.25L438.36 404.99C438.36 404.99 436.85 399.32 437.23 397.05C437.61 394.78 438.36 397.05 439.12 399.7C439.88 402.35 440.63 408.76 441.76 408.39C442.89 408.02 446.3 403.1 447.05 401.21C447.8 399.32 441.76 394.03 441.76 392.89C441.76 391.75 446.3 393.65 447.05 394.78C447.601 395.637 448.109 396.521 448.57 397.43C448.57 397.43 451.21 395.54 450.83 390.25C450.45 384.96 446.68 386.87 446.68 386.87Z" fill="#670536"/>
<path d="M425.51 400.57C428.12 396.92 431.99 391.97 435.34 389.51" stroke="#263238" stroke-linecap="round" stroke-linejoin="round"/>
<path d="M422.49 405C422.49 405 423.15 403.95 424.24 402.37" stroke="#263238" stroke-linecap="round" stroke-linejoin="round"/>
<path d="M437.23 390.27C437.23 390.27 441.76 395.94 442.9 401.98" stroke="#263238" stroke-linecap="round" stroke-linejoin="round"/>
<path d="M432.69 394.05C432.69 394.05 433.83 393.29 433.83 400.85" stroke="#263238" stroke-linecap="round" stroke-linejoin="round"/>
<path d="M435.34 386.87C435.34 386.87 437.61 384.6 436.09 380.44" stroke="#263238" stroke-linecap="round" stroke-linejoin="round"/>
<path d="M432.32 390.65L430.43 387.62" stroke="#263238" stroke-linecap="round" stroke-linejoin="round"/>
<path d="M428.92 394.05C428.92 394.05 423.25 390.27 419.85 390.27" stroke="#263238" stroke-linecap="round" stroke-linejoin="round"/>
<path d="M448.01 418.31H418.8V460.36H448.01V418.31Z" fill="#263238"/>
<path d="M85 460.36H26.1" stroke="#263238" stroke-linejoin="round"/>
<path d="M469 460.36H96" stroke="#263238" stroke-linejoin="round"/>
<path d="M372.76 440.331C371.69 426.001 373.34 415.011 372.12 392.631C372.01 386.891 371.8 380.751 371.4 375.291C370.08 356.921 367.18 350.641 366.91 347.091C366.91 347.091 366.41 318.511 365.18 278.311C364.6 259.411 358.99 253.681 354.51 243.641H299.06C293.11 268.411 293.56 322.421 293.74 347.941C293.83 360.941 299.21 430.571 299.32 432.171C299.7 437.851 299.19 440.091 296.91 442.481C292.14 447.481 285.22 452.241 279.23 456.611C280.1 458.841 287.3 458.761 290.86 457.061C295.515 454.688 299.957 451.922 304.14 448.791C309.06 445.241 315.34 442.391 315.42 436.981C315.445 436.644 315.499 436.309 315.58 435.981C315.68 432.821 323.22 386.261 323.84 375.451C324.38 366.161 323.22 350.391 323.22 350.391L329.39 311.071C329.39 311.071 333.18 334.331 337.01 350.211C340.12 363.141 345.26 385.211 348.77 401.111C352.14 419.441 357.09 432.491 357.95 441.671C358.2 443.861 360.74 465.361 361.79 470.291C362.84 475.221 373.84 475.341 374.54 466.871C374.98 461.201 372.96 443.031 372.76 440.331Z" fill="#C8856A"/>
<path d="M269.05 462.321C268.75 462.321 268.25 465.591 269.89 467.001C271.78 468.621 277.35 471.321 284.76 470.461C292.17 469.601 296.2 467.411 299.19 465.021C302.18 462.631 306.36 459.271 309.72 458.581C312.83 457.941 316.22 456.581 317.23 455.671C318.24 454.761 318.14 450.571 318.14 450.571L269.05 462.321Z" fill="#263238"/>
<path d="M315.74 434.481C315.74 434.481 316.3 434.481 316.48 435.481C316.69 436.641 316.9 439.981 317.37 441.871C318.02 444.501 318.37 449.871 317.99 452.021C317.61 454.171 312.47 455.581 309.22 456.751C305.402 458.338 301.84 460.481 298.65 463.111C295.15 465.881 287.8 468.611 282.98 468.631C275.62 468.631 270.87 466.631 269.43 464.061C267.64 460.841 269.09 459.011 277.59 455.271C279.2 454.561 284.86 451.371 286.79 450.211C288.834 448.996 290.774 447.615 292.59 446.081C293.508 445.313 294.379 444.492 295.2 443.621C296.053 442.85 296.788 441.957 297.38 440.971C297.47 440.751 297.54 440.491 297.63 440.271C297.879 439.647 298.069 439 298.2 438.341C298.35 437.651 298.44 436.651 299.12 436.251C300.074 435.879 301.109 435.769 302.12 435.931C303.214 436.014 304.3 436.178 305.37 436.421C306.62 436.701 308.06 436.831 308.78 437.971C309.26 438.896 309.491 439.93 309.45 440.971C309.45 441.461 309.45 441.971 309.45 442.431C309.45 442.631 309.36 443.001 309.66 442.921C309.96 442.841 310.26 442.121 310.37 441.921C310.61 441.381 310.77 440.801 311.03 440.281C311.572 439.074 312.408 438.022 313.46 437.221C313.961 436.951 314.445 436.65 314.91 436.321C315.37 435.808 315.66 435.166 315.74 434.481Z" fill="#37474F"/>
<path d="M276.22 455.871C286.87 456.701 290.16 463.161 290.56 467.151C288.121 468.017 285.566 468.512 282.98 468.621C275.62 468.621 270.57 466.621 269.12 464.051C267.44 461.011 268.63 458.591 276.22 455.871Z" fill="#FAFAFA"/>
<path d="M292.2 456.201C292.32 456.199 292.437 456.157 292.53 456.081C292.583 456.04 292.626 455.989 292.659 455.931C292.691 455.873 292.712 455.809 292.719 455.743C292.727 455.677 292.721 455.61 292.702 455.546C292.683 455.482 292.652 455.423 292.61 455.371C291.366 454.099 289.869 453.102 288.215 452.446C286.561 451.79 284.788 451.488 283.01 451.561C282.943 451.566 282.878 451.584 282.818 451.615C282.758 451.645 282.704 451.687 282.661 451.738C282.617 451.789 282.584 451.849 282.563 451.913C282.542 451.977 282.535 452.044 282.54 452.111C282.555 452.247 282.624 452.372 282.73 452.458C282.837 452.545 282.974 452.585 283.11 452.571C284.716 452.521 286.315 452.8 287.809 453.389C289.303 453.979 290.661 454.868 291.8 456.001C291.848 456.062 291.908 456.112 291.977 456.146C292.047 456.181 292.123 456.2 292.2 456.201Z" fill="#F0F0F0"/>
<path d="M296.81 453.581C296.933 453.585 297.053 453.546 297.15 453.471C297.203 453.43 297.246 453.379 297.279 453.321C297.311 453.263 297.332 453.199 297.339 453.133C297.347 453.067 297.341 453 297.322 452.936C297.303 452.872 297.272 452.813 297.23 452.761C295.987 451.487 294.49 450.489 292.836 449.831C291.182 449.173 289.409 448.87 287.63 448.941C287.556 448.936 287.481 448.947 287.412 448.973C287.342 449 287.28 449.041 287.228 449.094C287.176 449.147 287.136 449.211 287.112 449.282C287.087 449.352 287.078 449.427 287.086 449.501C287.093 449.574 287.117 449.646 287.155 449.71C287.193 449.774 287.244 449.829 287.305 449.871C287.367 449.913 287.437 449.941 287.51 449.953C287.583 449.965 287.658 449.961 287.73 449.941C289.335 449.888 290.933 450.165 292.426 450.755C293.919 451.345 295.275 452.235 296.41 453.371C296.456 453.435 296.516 453.487 296.585 453.524C296.654 453.56 296.732 453.58 296.81 453.581Z" fill="#F0F0F0"/>
<path d="M301.1 450.641C301.22 450.649 301.339 450.61 301.43 450.531C301.484 450.491 301.529 450.44 301.562 450.382C301.595 450.324 301.616 450.26 301.624 450.193C301.631 450.127 301.625 450.059 301.605 449.995C301.586 449.931 301.553 449.872 301.51 449.821C300.269 448.548 298.774 447.55 297.121 446.894C295.469 446.237 293.697 445.936 291.92 446.011C291.853 446.015 291.786 446.032 291.726 446.062C291.665 446.092 291.611 446.134 291.567 446.186C291.523 446.237 291.49 446.297 291.47 446.361C291.45 446.426 291.443 446.494 291.45 446.561C291.465 446.697 291.534 446.822 291.64 446.908C291.747 446.995 291.884 447.035 292.02 447.021C293.625 446.969 295.223 447.246 296.716 447.836C298.209 448.426 299.565 449.316 300.7 450.451C300.748 450.511 300.809 450.56 300.878 450.593C300.947 450.626 301.023 450.642 301.1 450.641Z" fill="#F0F0F0"/>
<path d="M305.3 447.701C305.415 447.708 305.529 447.673 305.62 447.601C305.674 447.561 305.72 447.51 305.755 447.452C305.789 447.394 305.812 447.329 305.821 447.262C305.83 447.195 305.826 447.127 305.809 447.061C305.791 446.996 305.761 446.935 305.72 446.881C303.72 444.351 299.11 442.641 295.23 443.011C295.163 443.017 295.098 443.037 295.038 443.068C294.979 443.1 294.926 443.143 294.883 443.195C294.841 443.247 294.808 443.307 294.789 443.372C294.77 443.436 294.763 443.504 294.77 443.571C294.776 443.638 294.796 443.703 294.828 443.762C294.859 443.821 294.902 443.873 294.955 443.915C295.007 443.957 295.067 443.988 295.132 444.006C295.196 444.024 295.264 444.029 295.33 444.021C298.82 443.691 303.11 445.261 304.89 447.511C304.94 447.571 305.003 447.619 305.074 447.652C305.145 447.685 305.222 447.702 305.3 447.701Z" fill="#F0F0F0"/>
<path d="M358.31 474.131C358.6 479.041 359.38 482.291 361.17 485.131C362.96 487.971 366.32 488.911 369.72 488.071C373.12 487.231 377.5 484.971 378.47 480.741C379.44 476.511 380.02 473.601 379.25 469.051L358.31 474.131Z" fill="#263238"/>
<path d="M372.64 438.581C374.04 438.691 374.46 445.281 375.27 451.881C376.13 458.951 378.27 461.881 379.07 467.681C379.96 474.301 378.83 477.261 376.46 481.271C374.09 485.281 365.66 489.211 361.51 483.471C358.13 478.791 357.99 473.601 358.3 466.991C358.474 461.397 358.324 455.798 357.85 450.221C357.57 445.221 356.45 440.221 357.67 439.701C357.76 440.431 357.85 441.361 357.95 442.071C358.002 442.969 358.157 443.858 358.41 444.721C358.55 445.091 358.86 445.471 358.99 444.871C359.06 444.464 359.06 444.048 358.99 443.641C358.78 441.811 359.73 441.641 360.24 441.521C362.393 441.107 364.566 440.807 366.75 440.621C367.82 440.551 371.53 440.391 372.01 440.991C372.321 441.58 372.482 442.236 372.48 442.901C372.6 443.901 372.84 444.631 372.87 444.321C372.93 443.601 372.79 441.751 372.77 441.321C372.75 440.891 372.68 440.321 372.68 439.871C372.68 439.421 372.67 439.001 372.64 438.581Z" fill="#37474F"/>
<path d="M379.46 471.521C379.714 475.076 378.79 478.615 376.83 481.591C374.46 485.591 365.36 489.541 361.21 483.801C359.15 480.941 358.6 477.571 358.31 474.121C360.8 469.701 375.54 467.751 379.46 471.521Z" fill="#FAFAFA"/>
<path d="M361.39 466.921C361.449 466.912 361.506 466.896 361.56 466.871C361.62 466.871 368.11 464.221 374.44 465.651C374.573 465.681 374.712 465.658 374.828 465.587C374.943 465.516 375.027 465.403 375.06 465.271C375.076 465.205 375.079 465.137 375.068 465.07C375.057 465.003 375.032 464.94 374.996 464.883C374.959 464.825 374.912 464.776 374.856 464.738C374.8 464.7 374.737 464.674 374.67 464.661C367.98 463.151 361.36 465.841 361.11 465.951C361.049 465.979 360.994 466.019 360.948 466.068C360.902 466.118 360.867 466.176 360.843 466.239C360.82 466.302 360.81 466.369 360.812 466.437C360.815 466.504 360.832 466.57 360.86 466.631C360.908 466.728 360.985 466.807 361.08 466.859C361.174 466.911 361.283 466.932 361.39 466.921Z" fill="#F0F0F0"/>
<path d="M374.11 460.711C374.209 460.701 374.304 460.665 374.383 460.605C374.462 460.545 374.524 460.464 374.56 460.371C374.601 460.241 374.59 460.1 374.528 459.979C374.466 459.857 374.359 459.765 374.23 459.721C367.93 457.641 360.95 460.771 360.68 460.901C360.62 460.932 360.567 460.974 360.523 461.025C360.48 461.077 360.447 461.136 360.426 461.2C360.406 461.264 360.398 461.332 360.404 461.399C360.41 461.466 360.429 461.531 360.46 461.591C360.529 461.71 360.641 461.798 360.773 461.837C360.905 461.876 361.047 461.863 361.17 461.801C361.23 461.801 368.04 458.741 373.89 460.691C373.961 460.712 374.036 460.719 374.11 460.711Z" fill="#F0F0F0"/>
<path d="M373.89 456.051C373.987 456.044 374.08 456.009 374.158 455.95C374.236 455.892 374.296 455.812 374.33 455.721C374.354 455.658 374.364 455.591 374.361 455.524C374.359 455.457 374.342 455.391 374.313 455.33C374.284 455.27 374.243 455.215 374.193 455.171C374.143 455.126 374.084 455.092 374.02 455.071C367.09 452.651 360.46 456.071 360.21 456.211C360.095 456.282 360.012 456.395 359.98 456.526C359.948 456.657 359.97 456.796 360.04 456.911C360.112 457.027 360.227 457.11 360.36 457.142C360.493 457.173 360.633 457.152 360.75 457.081C360.81 457.081 367.22 453.781 373.66 456.031C373.735 456.052 373.813 456.059 373.89 456.051Z" fill="#F0F0F0"/>
<path d="M373.55 451.471C373.646 451.462 373.736 451.426 373.813 451.368C373.889 451.31 373.947 451.231 373.98 451.141C374.004 451.079 374.015 451.012 374.013 450.946C374.011 450.879 373.995 450.813 373.967 450.753C373.939 450.692 373.899 450.638 373.85 450.593C373.801 450.548 373.743 450.513 373.68 450.491C367.19 448.121 360.05 451.621 359.78 451.771C359.722 451.803 359.67 451.847 359.629 451.899C359.588 451.952 359.557 452.012 359.54 452.076C359.522 452.14 359.517 452.208 359.526 452.274C359.535 452.34 359.556 452.404 359.59 452.461C359.623 452.521 359.668 452.574 359.722 452.616C359.776 452.658 359.838 452.689 359.905 452.707C359.971 452.725 360.04 452.729 360.108 452.719C360.176 452.71 360.241 452.687 360.3 452.651C360.37 452.651 367.3 449.241 373.3 451.441C373.379 451.472 373.466 451.483 373.55 451.471Z" fill="#EBEBEB"/>
<path d="M364.11 243.811C364.97 259.751 366.93 264.241 367.57 297.671C368.21 331.101 368.11 340.461 368.24 344.491C368.37 348.521 370.78 355.731 372.89 375.591C375 395.451 372.5 419.101 372.5 419.101C372.5 419.101 371.05 422.301 363.27 422.981C356.1 423.601 352.55 420.981 352.55 420.981C352.55 420.981 342.71 382.311 339.99 370.351C337.27 358.391 329.39 319.071 329.39 319.071L324.7 350.961C324.7 350.961 326.89 361.961 324.7 379.331C322.51 396.701 318.7 414.581 318.7 414.581C315.16 415.787 311.44 416.382 307.7 416.341C304.314 416.398 300.974 415.545 298.03 413.871C298.03 413.871 291.93 362.061 291.93 342.321C291.93 322.581 293.51 272.321 294.73 244.031L364.11 243.811Z" fill="#455A64"/>
<path d="M366.45 359.921C366.19 358.781 365.95 357.691 365.73 356.651C363.73 347.421 363.78 335.341 363.81 320.051C363.81 315.431 363.81 310.651 363.81 305.571C363.63 285.661 362.06 263.371 351.75 248.991L350.92 249.561C357.85 259.221 360.77 272.561 361.98 286.401C351.74 285.081 349.5 275.201 346.45 261.611C346.03 259.751 345.6 257.831 345.13 255.861L344.13 256.081C344.6 258.081 345.03 259.971 345.45 261.821C348.45 275.391 350.91 286.131 362.05 287.431C362.55 293.511 362.73 299.651 362.78 305.581C362.83 310.651 362.78 315.431 362.78 320.051C362.78 335.401 362.72 347.521 364.78 356.861C365 357.901 365.24 358.991 365.5 360.131C368.15 372.081 372.12 390.001 370.14 421.201C370.509 421.004 370.864 420.78 371.2 420.531C373.04 389.641 369.09 371.831 366.45 359.921ZM302.51 278.071C303.93 284.641 314.67 290.171 319.51 291.311L320.75 297.991C320.51 301.541 320.25 305.271 319.98 309.131C318.49 330.361 316.38 346.741 317.5 351.701C320.43 364.701 319.56 373.001 317.99 388.011C317.83 389.551 317.66 391.151 317.49 392.841C316.6 401.551 315.61 410.101 314.96 415.581L316.02 415.341C316.66 409.851 317.63 401.471 318.5 392.941C318.67 391.251 318.84 389.651 319 388.111C320.58 373.001 321.45 364.681 318.49 351.481C317.41 346.671 319.58 329.371 320.99 309.191C321.16 306.751 321.33 304.351 321.49 302.011L325.26 320.011L324.64 351.011L329.39 319.071L323.56 286.681C323.56 286.681 310.02 285.741 302.51 278.071Z" fill="#37474F"/>
<path d="M305.69 173.931C299.36 174.931 293.16 177.861 288.37 187.401C284.43 195.241 281.47 204.641 276.64 217.821L250.64 217.401L255.26 233.991C255.26 233.991 270.77 236.401 278.75 237.381C288.96 238.631 290.08 237.991 292.8 232.551C297.55 223.021 302.86 206.621 302.86 206.621L305.69 173.931Z" fill="#C8856A"/>
<path d="M305.69 173.621C300.69 174.551 294.85 175.331 290.52 182.521C286.19 189.711 277.39 214.451 277.39 214.451C277.39 214.451 279.88 217.561 286.39 221.021C292.9 224.481 297.58 223.431 297.58 223.431L303.91 206.821L305.69 173.621Z" fill="#670536"/>
<path d="M340.45 172.061C350.95 174.421 356.37 175.961 361.34 177.121C361.34 177.121 367.04 183.831 366.49 219.421C366.43 223.741 365.39 254.521 366.17 264.971C366.17 264.971 348.64 274.901 319.26 271.891C296.2 269.531 293.39 260.941 293.39 260.941C293.39 260.941 294.69 229.451 295 212.401C295.41 190.251 297.61 180.401 305.65 173.621L322.12 170.781L340.45 172.061Z" fill="#FAFAFA"/>
<path d="M322.2 171.621L340.33 172.891C346.95 174.371 351.56 175.541 355.28 176.481C357.33 177.001 359.11 177.481 360.84 177.851C361.69 179.231 366.15 188.001 365.66 219.401C365.66 220.161 365.66 221.721 365.55 223.831C365.3 233.371 364.72 255.441 365.3 264.491C362.8 265.761 350.13 271.631 330.23 271.631C326.596 271.629 322.964 271.438 319.35 271.061C298.7 268.951 294.71 261.771 294.26 260.801C294.37 258.211 295.58 228.621 295.87 212.411C296.29 189.661 298.67 180.711 306.05 174.411L322.2 171.631M322.2 170.791L305.73 173.631C297.73 180.391 295.49 190.261 295.08 212.411C294.77 229.461 293.47 260.951 293.47 260.951C293.47 260.951 296.24 269.541 319.3 271.901C322.954 272.28 326.626 272.471 330.3 272.471C353.02 272.471 366.24 264.981 366.24 264.981C365.46 254.531 366.5 223.751 366.56 219.431C367.11 183.841 361.41 177.131 361.41 177.131C356.41 175.971 351.02 174.431 340.52 172.071L322.23 170.791H322.2Z" fill="#E0E0E0"/>
<path d="M338.33 133.391C336.67 139.391 341.33 145.111 343.55 146.841C343.34 150.311 343.21 157.941 343.19 161.471C349.4 160.061 359.62 128.121 348.96 124.591C350.23 117.961 342.47 114.511 336.31 112.791C330.15 111.071 327.5 107.921 322.11 109.371C321.251 109.654 320.494 110.185 319.936 110.896C319.377 111.608 319.041 112.469 318.97 113.371C316.637 112.534 314.099 112.457 311.72 113.151C308.72 113.791 306.97 118.321 310.22 119.741C307.55 120.111 304.22 121.971 304.72 125.061C304.875 125.775 305.268 126.414 305.835 126.874C306.403 127.334 307.11 127.587 307.84 127.591C304.75 128.111 302.29 131.271 305.14 133.751C305.352 133.986 305.505 134.268 305.587 134.574C305.669 134.88 305.677 135.201 305.61 135.511C305.4 136.111 304.61 136.511 304.12 135.901C304.376 136.197 304.703 136.423 305.071 136.558C305.438 136.693 305.834 136.733 306.221 136.673C306.608 136.613 306.973 136.455 307.283 136.215C307.592 135.976 307.836 135.661 307.99 135.301C308.34 134.551 308.05 133.761 308.28 132.961C309.2 136.351 313.51 134.961 316.06 135.281C323.39 134.201 330.93 134.201 338.33 133.391Z" fill="#263238"/>
<path d="M351.21 155.271C346.77 157.501 344.69 153.991 344.69 153.991L344.93 174.281C336.5 185.851 312.93 180.601 322.16 171.891V166.441C320.864 166.396 319.571 166.272 318.29 166.071C314.29 165.501 311.81 161.751 310.58 157.481C308.76 151.171 309.5 138.291 310.43 132.551C311.43 126.551 313.01 123.751 313.95 123.091C318.87 123.971 321.61 127.881 329.19 128.631C333.88 129.101 337.58 128.451 339.32 127.631C338.22 135.461 339.47 139.031 340.11 141.111C341.03 144.111 342.32 145.561 342.95 145.691C345.66 146.221 345.95 143.891 347.14 142.611C347.725 142.112 348.418 141.755 349.164 141.567C349.91 141.379 350.689 141.366 351.441 141.529C352.192 141.691 352.897 142.025 353.498 142.504C354.1 142.983 354.583 143.595 354.91 144.291C355.399 145.253 355.692 146.303 355.77 147.379C355.849 148.455 355.712 149.536 355.367 150.559C355.023 151.581 354.478 152.525 353.764 153.334C353.05 154.143 352.182 154.802 351.21 155.271Z" fill="#C8856A"/>
<path d="M341.86 159.091C340.64 164.951 332.19 168.451 322.15 168.821V166.441C324.616 166.383 327.074 166.129 329.5 165.681C335.3 164.651 339.88 162.351 341.86 159.091Z" fill="#AF6152"/>
<path d="M331.93 140.051C331.918 140.434 331.793 140.805 331.57 141.117C331.348 141.429 331.038 141.668 330.68 141.804C330.322 141.94 329.931 141.967 329.557 141.881C329.184 141.796 328.844 141.601 328.581 141.323C328.318 141.044 328.143 140.694 328.079 140.316C328.014 139.939 328.063 139.55 328.219 139.2C328.375 138.85 328.632 138.554 328.956 138.35C329.28 138.145 329.657 138.041 330.04 138.051C330.296 138.056 330.549 138.112 330.783 138.216C331.017 138.32 331.228 138.469 331.404 138.655C331.58 138.841 331.717 139.061 331.807 139.3C331.898 139.54 331.939 139.795 331.93 140.051Z" fill="#263238"/>
<path d="M317.45 139.771C317.438 140.154 317.313 140.525 317.09 140.837C316.868 141.149 316.558 141.388 316.2 141.524C315.842 141.66 315.451 141.687 315.078 141.601C314.704 141.516 314.364 141.321 314.101 141.043C313.838 140.764 313.663 140.414 313.599 140.036C313.534 139.659 313.583 139.27 313.739 138.92C313.895 138.57 314.151 138.274 314.476 138.07C314.8 137.865 315.177 137.761 315.56 137.771C315.824 137.749 316.089 137.786 316.336 137.881C316.582 137.975 316.805 138.124 316.987 138.316C317.168 138.508 317.304 138.739 317.384 138.991C317.465 139.243 317.487 139.509 317.45 139.771Z" fill="#263238"/>
<path d="M324.02 138.621L322.19 150.141L316.19 148.721C317.79 144.68 320.506 141.178 324.02 138.621Z" fill="#AF6152"/>
<path d="M312.83 135.751L317.45 134.361C317.375 134.056 317.239 133.769 317.05 133.518C316.86 133.267 316.621 133.057 316.348 132.902C316.074 132.746 315.772 132.648 315.46 132.614C315.147 132.579 314.831 132.609 314.53 132.701C313.912 132.898 313.392 133.323 313.076 133.889C312.76 134.456 312.672 135.122 312.83 135.751Z" fill="#263238"/>
<path d="M333.22 135.671L328.95 133.301C329.091 133.016 329.289 132.762 329.531 132.556C329.774 132.35 330.056 132.195 330.36 132.101C330.664 132.008 330.984 131.977 331.301 132.011C331.617 132.046 331.923 132.144 332.2 132.301C332.771 132.624 333.195 133.154 333.385 133.782C333.575 134.409 333.516 135.086 333.22 135.671Z" fill="#263238"/>
<path d="M327.85 151.571L321.16 154.201C321.312 154.65 321.553 155.063 321.868 155.417C322.183 155.771 322.566 156.057 322.995 156.26C323.423 156.462 323.888 156.577 324.361 156.596C324.834 156.615 325.307 156.538 325.75 156.371C326.657 156.003 327.385 155.296 327.777 154.399C328.17 153.502 328.196 152.487 327.85 151.571Z" fill="#AF6152"/>
<path d="M327.19 152.831C327.471 152.758 327.76 152.717 328.05 152.711C328.092 153.479 327.892 154.241 327.48 154.89C327.068 155.539 326.463 156.043 325.75 156.331C325.389 156.47 325.007 156.545 324.62 156.551C324.489 155.72 324.683 154.87 325.162 154.177C325.64 153.485 326.366 153.003 327.19 152.831Z" fill="#FFA8A7"/>
<path d="M244.59 194.071L246.28 192.941C246.527 192.811 246.801 192.744 247.08 192.744C247.359 192.744 247.633 192.811 247.88 192.941L266.64 200.691C267.444 201.07 268.156 201.618 268.727 202.298C269.298 202.978 269.716 203.774 269.95 204.631L277.68 240.521C277.79 240.82 277.806 241.145 277.728 241.454C277.649 241.763 277.479 242.041 277.24 242.251L275.5 243.411C275.252 243.542 274.976 243.61 274.695 243.61C274.415 243.61 274.138 243.542 273.89 243.411L255.12 235.661C254.319 235.281 253.609 234.732 253.04 234.052C252.47 233.372 252.054 232.577 251.82 231.721L244.09 195.821C243.88 194.971 244.1 194.351 244.59 194.071Z" fill="#455A64"/>
<path d="M266.61 203.041C267.385 203.804 267.941 204.76 268.22 205.811L275.96 241.691C276.062 241.982 276.08 242.295 276.013 242.595C275.946 242.896 275.796 243.171 275.58 243.391L277.22 242.301C277.457 242.089 277.625 241.811 277.704 241.503C277.782 241.195 277.767 240.871 277.66 240.571L269.92 204.671C269.663 203.687 269.153 202.787 268.44 202.061L266.61 203.041Z" fill="#37474F"/>
<path d="M275.95 241.691L268.22 205.801C267.984 204.946 267.568 204.152 266.998 203.472C266.429 202.793 265.72 202.243 264.92 201.861L246.15 194.111C244.66 193.501 243.73 194.291 244.07 195.851L251.8 231.751C252.034 232.607 252.45 233.402 253.02 234.082C253.589 234.762 254.299 235.311 255.1 235.691L273.87 243.441C275.39 244.041 276.29 243.261 275.95 241.691Z" fill="#263238"/>
<path d="M267.32 213.021L265.87 206.301C265.827 206.141 265.748 205.993 265.641 205.867C265.534 205.741 265.401 205.64 265.25 205.571L262.25 204.341C261.97 204.231 261.8 204.341 261.86 204.671C262.15 205.991 263.02 210.071 263.31 211.391C263.354 211.551 263.432 211.699 263.539 211.825C263.646 211.951 263.78 212.052 263.93 212.121L266.93 213.351C267.21 213.461 267.39 213.311 267.32 213.021Z" fill="#455A64"/>
<path d="M265.53 207.821C265.413 207.422 265.211 207.053 264.938 206.739C264.666 206.425 264.329 206.173 263.95 206.001C263.23 205.711 262.77 206.001 262.95 206.761C263.064 207.163 263.265 207.534 263.538 207.851C263.811 208.167 264.149 208.419 264.53 208.591C265.23 208.881 265.68 208.541 265.53 207.821Z" fill="#263238"/>
<path d="M266.22 211.201C266.104 210.802 265.902 210.432 265.63 210.118C265.357 209.804 265.019 209.552 264.64 209.381C263.92 209.081 263.46 209.381 263.64 210.141C263.756 210.541 263.958 210.91 264.231 211.224C264.503 211.538 264.841 211.79 265.22 211.961C265.92 212.271 266.39 211.921 266.22 211.201Z" fill="#263238"/>
<path d="M245.57 217.031C244.16 214.821 244.32 214.551 245.2 213.501C245.867 212.671 246.721 212.011 247.693 211.576C248.665 211.142 249.727 210.944 250.79 211.001C252.66 211.151 254.55 211.221 255.49 211.761C256.43 212.301 255.49 214.301 253.03 214.761C249.15 215.421 249.12 216.461 249.12 216.461C250.775 216.174 252.444 215.97 254.12 215.851C256.007 216.088 257.873 216.473 259.7 217.001C261.31 217.341 261.52 219.441 258.7 220.001L261.64 220.631C263.7 221.071 264.35 222.211 262.64 223.411C262.087 223.825 261.411 224.04 260.72 224.021C260.72 224.021 262.93 224.131 262.94 224.871C262.94 226.991 261.56 227.471 257.03 228.531C252.7 229.531 251.7 231.791 252.47 233.421C252.47 233.421 250.8 232.331 249.33 231.191C248.25 230.361 247.33 229.441 247.94 227.721C247.94 227.721 245.5 227.641 245.44 226.131C245.46 225.023 245.716 223.932 246.19 222.931C245.766 222.661 245.427 222.276 245.213 221.821C244.999 221.366 244.918 220.86 244.98 220.361C245.016 219.407 245.367 218.493 245.98 217.761L245.57 217.031Z" fill="#C8856A"/>
<path d="M258.74 219.981C257.863 219.75 256.965 219.606 256.06 219.551C255.14 219.619 254.238 219.838 253.39 220.201C251.719 220.815 250.103 221.571 248.56 222.461C250.301 222.1 252.008 221.588 253.66 220.931C254.443 220.587 255.257 220.315 256.09 220.121C256.92 220.071 257.85 220.101 258.74 219.981Z" fill="#AF6152"/>
<path d="M260.77 224.001C259.835 223.683 258.835 223.6 257.86 223.761C256.898 223.911 255.954 224.155 255.04 224.491C253.219 225.123 251.47 225.944 249.82 226.941C251.674 226.463 253.503 225.892 255.3 225.231C257.03 224.481 258.886 224.064 260.77 224.001Z" fill="#AF6152"/>
<path d="M363.24 178.201C371.6 180.201 374.24 183.011 377.13 192.401C379.9 201.491 386.35 221.941 383.13 235.161C381.13 243.221 362.9 222.351 362.9 222.351L356.05 192.901C356.05 192.901 357.89 178.381 363.24 178.201Z" fill="#AF6152"/>
<path d="M361.39 177.121C366.03 178.031 372.39 178.711 375.83 186.741C379.27 194.771 383.5 213.341 384.05 217.391C374.85 224.041 362.62 222.931 362.62 222.931L355.33 192.931C355.33 192.931 354.68 182.571 361.39 177.121Z" fill="#670536"/>
<path d="M360.12 189.251C358.48 186.571 356.79 183.821 356.12 179.931C355.45 176.041 352.66 172.331 351.74 170.811C350.82 169.291 348.74 167.021 347.2 164.871C345.66 162.721 345.2 162.131 342.8 161.551C339.5 160.761 336.92 160.061 335.59 160.361C334.26 160.661 334.24 161.531 335.29 162.761C336.34 163.991 338.71 164.441 339.44 164.761C340.17 165.081 341.74 165.851 341.74 165.851L344.52 170.611C342.374 170.827 340.246 171.191 338.15 171.701C337.09 172.191 336.03 174.791 336.38 176.281C336.38 176.281 334.38 177.451 334.99 179.391C334.99 179.391 333.71 180.841 334.43 182.151C335.248 183.48 336.214 184.711 337.31 185.821C337.91 186.421 340.42 186.731 340.42 186.731C341.412 188.5 342.633 190.13 344.05 191.581C345.76 193.041 346.94 193.031 348.72 195.951L360.12 189.251Z" fill="#C8856A"/>
<path d="M342.11 170.881C341.41 170.261 340.32 169.201 339.11 169.571C337.9 169.941 338.64 171.491 338.64 171.491L342.11 170.881Z" fill="#AF6152"/>
<path d="M336.39 176.361C337.209 175.757 338.103 175.263 339.05 174.891C339.93 174.531 341.76 174.021 341.76 174.021C340.506 174.045 339.263 174.253 338.07 174.641C337.459 174.834 336.866 175.081 336.3 175.381C336.279 175.669 336.299 175.959 336.36 176.241L336.39 176.361Z" fill="#AF6152"/>
<path d="M336.1 178.111C335.672 178.26 335.255 178.437 334.85 178.641C334.868 178.929 334.919 179.214 335 179.491C335.75 178.571 338.43 177.671 338.43 177.671C337.64 177.731 336.858 177.879 336.1 178.111Z" fill="#AF6152"/>
<path d="M340.83 187.401C340.203 185.904 339.44 184.468 338.55 183.111C338.258 182.733 337.833 182.48 337.361 182.404C336.889 182.327 336.406 182.434 336.01 182.701C335.65 183.171 337.35 183.221 337.83 183.481C339.023 184.628 340.035 185.95 340.83 187.401Z" fill="#AF6152"/>
<path d="M345.94 170.531C345.94 170.531 345.08 169.111 343.51 166.851C341.94 164.591 342.02 164.851 340.38 164.451C338.74 164.051 335.62 163.241 334.83 162.171C334.96 162.38 335.107 162.577 335.27 162.761C336.27 163.961 338.69 164.441 339.42 164.761C340.15 165.081 341.72 165.851 341.72 165.851L344.58 170.751L345.94 170.531Z" fill="#AF6152"/>
<path d="M360.12 189.251C365.25 196.391 379.22 213.651 382.27 220.351C384.37 224.991 384.27 235.421 381.54 239.021C378.81 242.621 371.89 240.561 366.54 235.161C361.92 230.511 358.54 219.831 355.47 212.161C352.4 204.491 348.7 195.881 348.7 195.881L360.12 189.251Z" fill="#C8856A"/>
<path d="M357.17 183.571C356.784 182.576 356.487 181.548 356.28 180.501C356.106 179.442 355.835 178.401 355.47 177.391C354.677 175.402 353.671 173.504 352.47 171.731C351.322 169.924 350.049 168.2 348.66 166.571C347.99 165.731 347.37 164.871 346.74 164.001C346.155 163.072 345.31 162.335 344.31 161.881C343.292 161.53 342.254 161.242 341.2 161.021C340.2 160.761 339.12 160.511 338.06 160.321C337.525 160.221 336.984 160.161 336.44 160.141C335.869 160.105 335.3 160.245 334.81 160.541C334.679 160.63 334.574 160.752 334.504 160.894C334.434 161.035 334.401 161.193 334.41 161.351C334.433 161.647 334.529 161.932 334.69 162.181C334.97 162.664 335.348 163.083 335.8 163.411C336.726 163.992 337.739 164.421 338.8 164.681C339.79 165.008 340.748 165.426 341.66 165.931L344.3 170.451C342.445 170.649 340.603 170.946 338.78 171.341C338.532 171.394 338.29 171.474 338.06 171.581C337.833 171.708 337.632 171.878 337.47 172.081C337.16 172.469 336.907 172.901 336.72 173.361C336.315 174.246 336.163 175.225 336.28 176.191C335.771 176.523 335.351 176.977 335.06 177.511C334.915 177.802 334.826 178.117 334.8 178.441C334.783 178.741 334.817 179.042 334.9 179.331C334.586 179.675 334.362 180.092 334.25 180.545C334.139 180.997 334.142 181.47 334.26 181.921C334.69 182.736 335.21 183.501 335.81 184.201C336.1 184.561 336.39 184.911 336.7 185.251C336.983 185.625 337.345 185.932 337.76 186.151C338.613 186.461 339.499 186.669 340.4 186.771C340.93 187.661 341.49 188.521 342.1 189.361C342.7 190.222 343.406 191.005 344.2 191.691C345.01 192.371 345.97 192.831 346.76 193.501C347.554 194.19 348.23 195.004 348.76 195.911C348.227 194.997 347.552 194.173 346.76 193.471C345.97 192.781 345.02 192.301 344.23 191.631C343.451 190.937 342.762 190.147 342.18 189.281C341.57 188.431 341.02 187.551 340.5 186.651H340.39C339.495 186.552 338.615 186.344 337.77 186.031C337.377 185.822 337.036 185.528 336.77 185.171C336.47 184.831 336.18 184.481 335.89 184.171C335.311 183.481 334.808 182.73 334.39 181.931C334.285 181.507 334.289 181.064 334.403 180.642C334.517 180.22 334.736 179.834 335.04 179.521V179.461C334.953 179.18 334.919 178.885 334.94 178.591C334.959 178.3 335.041 178.017 335.18 177.761C335.463 177.24 335.876 176.803 336.38 176.491L336.45 176.441V176.201C336.32 175.263 336.466 174.308 336.87 173.451C337.26 172.601 337.78 171.701 338.76 171.591C340.651 171.202 342.56 170.908 344.48 170.711H344.71L344.6 170.511L341.83 165.751C340.875 165.217 339.87 164.779 338.83 164.441C337.807 164.188 336.829 163.78 335.93 163.231C335.525 162.925 335.185 162.541 334.93 162.101C334.66 161.671 334.55 161.101 334.93 160.861C335.882 160.466 336.94 160.406 337.93 160.691C338.93 160.871 340.01 161.121 341.05 161.371C342.094 161.581 343.123 161.858 344.13 162.201C345.085 162.627 345.895 163.322 346.46 164.201C347.09 165.061 347.72 165.931 348.4 166.761C349.79 168.381 351.066 170.095 352.22 171.891C353.44 173.643 354.463 175.525 355.27 177.501C355.655 178.497 355.939 179.529 356.12 180.581C356.345 181.628 356.656 182.655 357.05 183.651C357.877 185.621 358.881 187.513 360.05 189.301C358.918 187.483 357.954 185.565 357.17 183.571Z" fill="#AF6152"/>
</svg>
